SplineFontDB: 3.2
FontName: TDATextCondensed
FullName: TDATextCondensed
FamilyName: TDATextCondensed
Weight: Regular
Copyright: Copyright (c) 2024 Dmitry Tretyakov\n\nBased on Philips SAA52XX/SAA55XX/TDA93XX IC character set:\nCopyright (c) 1993-2001 NXP Semiconductors N.V.

StartChar: exclam
Encoding: 33 33 4
Width: 348
Flags: HW
HStem: 0 100<250 350> 680 20G<250 350>
VStem: 250 100<0 100 200 700>
LayerCount: 2
Back
Fore
SplineSet
143 700 m 13
 162 700 181 700 200 700 c 25
 200 533 200 367 200 200 c 25
 181 200 162 200 143 200 c 25
 143 367 143 533 143 700 c 13
200 0 m 9
 181 0 162 0 143 0 c 1
 143 33 143 67 143 100 c 25
 162 100 181 100 200 100 c 1
 200 67 200 33 200 0 c 9
EndSplineSet
Validated: 1
EndChar

StartChar: asterisk
Encoding: 42 42 5
Width: 348
Flags: HW
HStem: 0 21G<250 350> 100 100<50 100 500 550> 300 100<200 250 350 400> 500 100<50 100 500 550> 680 20G<250 350>
VStem: 50 100<100 200 500 600> 100 100<200 300 400 500> 250 100<0 300 400 700> 400 100<200 300 400 500> 450 100<100 200 500 600>
LayerCount: 2
Back
Fore
SplineSet
29 600 m 13
 48 600 67 600 86 600 c 25
 86 567 86 533 86 500 c 25
 95 500 105 500 114 500 c 25
 114 467 114 433 114 400 c 25
 124 400 133 400 143 400 c 25
 143 500 143 600 143 700 c 25
 162 700 181 700 200 700 c 25
 200 600 200 500 200 400 c 25
 210 400 219 400 229 400 c 25
 229 433 229 467 229 500 c 25
 239 500 247 500 257 500 c 25
 257 533 257 567 257 600 c 25
 276 600 295 600 314 600 c 25
 314 567 314 533 314 500 c 25
 304 500 296 500 286 500 c 25
 286 467 286 433 286 400 c 25
 276 400 267 400 257 400 c 25
 257 367 257 333 257 300 c 25
 267 300 276 300 286 300 c 25
 286 267 286 233 286 200 c 25
 296 200 304 200 314 200 c 25
 314 167 314 133 314 100 c 25
 295 100 276 100 257 100 c 25
 257 133 257 167 257 200 c 25
 247 200 239 200 229 200 c 25
 229 233 229 267 229 300 c 25
 219 300 210 300 200 300 c 25
 200 200 200 100 200 0 c 25
 181 0 162 0 143 0 c 25
 143 100 143 200 143 300 c 25
 133 300 124 300 114 300 c 25
 114 267 114 233 114 200 c 25
 104 200 96 200 86 200 c 25
 86 167 86 133 86 100 c 25
 67 100 48 100 29 100 c 25
 29 133 29 167 29 200 c 25
 39 200 47 200 57 200 c 25
 57 233 57 267 57 300 c 25
 67 300 76 300 86 300 c 25
 86 333 86 367 86 400 c 25
 76 400 67 400 57 400 c 25
 57 433 57 467 57 500 c 25
 47 500 39 500 29 500 c 25
 29 533 29 567 29 600 c 13
EndSplineSet
Validated: 8388609
EndChar

StartChar: plus
Encoding: 43 43 6
Width: 348
Flags: HW
HStem: 250 100<100 250 350 500>
VStem: 250 100<50 250 350 550>
LayerCount: 2
Back
Fore
SplineSet
143 550 m 13
 162 550 181 550 200 550 c 25
 200 483 200 417 200 350 c 25
 229 350 257 350 286 350 c 25
 286 317 286 283 286 250 c 25
 257 250 229 250 200 250 c 25
 200 183 200 117 200 50 c 25
 181 50 162 50 143 50 c 25
 143 117 143 183 143 250 c 25
 114 250 86 250 57 250 c 25
 57 283 57 317 57 350 c 25
 86 350 114 350 143 350 c 25
 143 417 143 483 143 550 c 13
EndSplineSet
Validated: 1
EndChar

StartChar: comma
Encoding: 44 44 7
Width: 348
Flags: HW
HStem: -200 100<199 249> 0 100<199 249>
VStem: 199 100<-200 -100> 249 100<-100 0>
LayerCount: 2
Back
Fore
SplineSet
114 -100 m 5
 124 -100 132 -100 142 -100 c 29
 142 -67 142 -33 142 0 c 5
 132 0 124 0 114 0 c 29
 114 33 114 67 114 100 c 29
 143 100 170 100 199 100 c 29
 199 33 199 -33 199 -100 c 29
 189 -100 181 -100 171 -100 c 29
 171 -133 171 -167 171 -200 c 29
 152 -200 133 -200 114 -200 c 29
 114 -167 114 -133 114 -100 c 5
EndSplineSet
Validated: 8388609
EndChar

StartChar: hyphen
Encoding: 45 45 8
Width: 348
Flags: HW
HStem: 250 100<100 500>
LayerCount: 2
Back
Fore
SplineSet
57 250 m 13
 57 283 57 317 57 350 c 25
 133 350 210 350 286 350 c 25
 286 317 286 283 286 250 c 25
 210 250 133 250 57 250 c 13
EndSplineSet
Validated: 1
EndChar

StartChar: period
Encoding: 46 46 9
Width: 348
Flags: HW
HStem: 0 100<250 350>
VStem: 250 100<0 100>
LayerCount: 2
Back
Fore
SplineSet
200 0 m 13
 181 0 162 0 143 0 c 29
 143 33 143 67 143 100 c 29
 162 100 181 100 200 100 c 29
 200 67 200 33 200 0 c 13
EndSplineSet
Validated: 1
EndChar

StartChar: slash
Encoding: 47 47 10
Width: 348
Flags: HW
HStem: 0 100<100 150> 600 100<450 500>
VStem: 100 100<0 100> 150 100<100 200> 200 100<200 300> 250 100<300 400> 300 100<400 500> 350 100<500 600> 400 100<600 700>
LayerCount: 2
Back
Fore
SplineSet
229 700 m 13
 248 700 267 700 286 700 c 25
 286 667 286 633 286 600 c 25
 276 600 267 600 257 600 c 25
 257 567 257 533 257 500 c 25
 247 500 239 500 229 500 c 25
 229 467 229 433 229 400 c 25
 219 400 210 400 200 400 c 25
 200 367 200 333 200 300 c 25
 190 300 181 300 171 300 c 25
 171 267 171 233 171 200 c 25
 161 200 153 200 143 200 c 25
 143 167 143 133 143 100 c 25
 133 100 124 100 114 100 c 25
 114 67 114 33 114 0 c 25
 95 0 76 0 57 0 c 25
 57 33 57 67 57 100 c 25
 67 100 76 100 86 100 c 25
 86 133 86 167 86 200 c 25
 96 200 104 200 114 200 c 25
 114 233 114 267 114 300 c 25
 124 300 133 300 143 300 c 25
 143 333 143 367 143 400 c 25
 153 400 161 400 171 400 c 25
 171 433 171 467 171 500 c 25
 181 500 190 500 200 500 c 25
 200 533 200 567 200 600 c 25
 210 600 219 600 229 600 c 25
 229 633 229 667 229 700 c 13
EndSplineSet
Validated: 8388609
EndChar

StartChar: zero
Encoding: 48 48 11
Width: 348
Flags: HW
HStem: 0 100<250 400> 600 100<250 400>
VStem: 100 150<100 600> 400 150<100 600>
LayerCount: 2
Back
Fore
SplineSet
229 600 m 13
 200 600 172 600 143 600 c 25
 143 433 143 267 143 100 c 25
 172 100 200 100 229 100 c 25
 229 267 229 433 229 600 c 13
86 700 m 9
 153 700 219 700 286 700 c 25
 286 667 286 633 286 600 c 25
 296 600 304 600 314 600 c 25
 314 433 314 267 314 100 c 25
 304 100 296 100 286 100 c 25
 286 67 286 33 286 0 c 25
 219 0 153 0 86 0 c 25
 86 33 86 67 86 100 c 25
 76 100 67 100 57 100 c 25
 57 267 57 433 57 600 c 25
 67 600 76 600 86 600 c 25
 86 633 86 667 86 700 c 9
EndSplineSet
Validated: 1
EndChar

StartChar: one
Encoding: 49 49 12
Width: 348
Flags: HW
HStem: 0 21G<300 450> 500 100<200 300> 680 20G<300 450>
VStem: 300 150<0 500 600 700>
LayerCount: 2
Back
Fore
SplineSet
114 500 m 13
 114 533 114 567 114 600 c 29
 133 600 152 600 171 600 c 29
 171 633 171 667 171 700 c 29
 200 700 228 700 257 700 c 29
 257 467 257 233 257 0 c 29
 228 0 200 0 171 0 c 29
 171 167 171 333 171 500 c 29
 152 500 133 500 114 500 c 13
EndSplineSet
Validated: 1
EndChar

StartChar: two
Encoding: 50 50 13
Width: 348
Flags: HW
HStem: 0 100<100 150 350 550> 500 100<100 150> 600 100<200 400>
VStem: 100 100<500 600> 350 150<300 400> 400 150<400 600>
LayerCount: 2
Back
Fore
SplineSet
114 500 m 13
 95 500 76 500 57 500 c 1
 57 533 57 567 57 600 c 25
 67 600 76 600 86 600 c 25
 86 633 86 667 86 700 c 25
 153 700 219 700 286 700 c 25
 286 667 286 633 286 600 c 25
 296 600 304 600 314 600 c 25
 314 533 314 467 314 400 c 25
 304 400 296 400 286 400 c 25
 286 367 286 333 286 300 c 25
 276 300 267 300 257 300 c 25
 257 267 257 233 257 200 c 25
 238 200 219 200 200 200 c 25
 200 167 200 133 200 100 c 25
 238 100 276 100 314 100 c 25
 314 67 314 33 314 0 c 25
 228 0 143 0 57 0 c 25
 57 33 57 67 57 100 c 25
 67 100 76 100 86 100 c 25
 86 133 86 167 86 200 c 25
 105 200 124 200 143 200 c 25
 143 233 143 267 143 300 c 25
 162 300 181 300 200 300 c 25
 200 333 200 367 200 400 c 25
 210 400 219 400 229 400 c 25
 229 467 229 533 229 600 c 25
 191 600 152 600 114 600 c 1
 114 567 114 533 114 500 c 13
EndSplineSet
Validated: 8388609
EndChar

StartChar: three
Encoding: 51 51 14
Width: 348
Flags: HW
HStem: 0 100<100 450> 300 100<250 350> 600 100<100 400 500 550>
VStem: 350 100<400 500> 400 100<500 600> 450 100<100 300>
CounterMasks: 1 e0
LayerCount: 2
Back
Fore
SplineSet
57 700 m 13
 143 700 228 700 314 700 c 25
 314 667 314 633 314 600 c 25
 304 600 296 600 286 600 c 25
 286 567 286 533 286 500 c 25
 276 500 267 500 257 500 c 25
 257 467 257 433 257 400 c 25
 276 400 295 400 314 400 c 25
 314 300 314 200 314 100 c 25
 304 100 296 100 286 100 c 25
 286 67 286 33 286 0 c 25
 210 0 133 0 57 0 c 25
 57 33 57 67 57 100 c 25
 124 100 190 100 257 100 c 25
 257 167 257 233 257 300 c 25
 219 300 181 300 143 300 c 25
 143 333 143 367 143 400 c 25
 162 400 181 400 200 400 c 25
 200 433 200 467 200 500 c 25
 210 500 219 500 229 500 c 25
 229 533 229 567 229 600 c 25
 172 600 114 601 57 601 c 25
 57 634 57 667 57 700 c 13
EndSplineSet
Validated: 8388609
EndChar

StartChar: four
Encoding: 52 52 15
Width: 348
Flags: HW
HStem: 0 21G<400 550> 100 100<250 400> 600 100<500 550>
VStem: 100 150<200 300> 150 150<300 400> 250 150<400 500> 400 150<0 100 200 300 600 700>
LayerCount: 2
Back
Fore
SplineSet
229 700 m 13
 258 700 285 700 314 700 c 25
 314 667 314 633 314 600 c 25
 304 600 296 600 286 600 c 25
 286 567 286 533 286 500 c 25
 267 500 248 500 229 500 c 25
 229 467 229 433 229 400 c 25
 210 400 190 400 171 400 c 25
 171 367 171 333 171 300 c 25
 161 300 153 300 143 300 c 25
 143 267 143 233 143 200 c 25
 172 200 200 200 229 200 c 25
 229 233 229 267 229 300 c 25
 258 300 285 300 314 300 c 25
 314 200 314 100 314 0 c 25
 285 0 258 0 229 0 c 25
 229 33 229 67 229 100 c 25
 172 100 114 100 57 100 c 25
 57 167 57 233 57 300 c 25
 67 300 76 300 86 300 c 25
 86 333 86 367 86 400 c 25
 105 400 124 400 143 400 c 25
 143 433 143 467 143 500 c 25
 153 500 161 500 171 500 c 25
 171 533 171 567 171 600 c 25
 190 600 210 600 229 600 c 25
 229 633 229 667 229 700 c 13
EndSplineSet
Validated: 8388609
EndChar

StartChar: five
Encoding: 53 53 16
Width: 348
Flags: HW
HStem: 0 100<200 400> 100 100<100 150> 300 100<200 400> 600 100<200 500>
VStem: 100 100<100 200 400 600> 400 150<100 300>
LayerCount: 2
Back
Fore
SplineSet
286 700 m 13
 286 667 286 633 286 600 c 25
 229 600 171 600 114 600 c 25
 114 533 114 467 114 400 c 25
 171 400 229 400 286 400 c 25
 286 367 286 333 286 300 c 25
 296 300 304 300 314 300 c 25
 314 233 314 167 314 100 c 25
 304 100 296 100 286 100 c 25
 286 67 286 33 286 0 c 25
 219 0 153 0 86 0 c 25
 86 33 86 67 86 100 c 25
 76 100 67 100 57 100 c 25
 57 133 57 167 57 200 c 25
 76 200 95 200 114 200 c 25
 114 167 114 133 114 100 c 25
 152 100 191 100 229 100 c 25
 229 167 229 233 229 300 c 25
 172 300 114 300 57 300 c 25
 57 433 57 567 57 700 c 25
 133 700 210 700 286 700 c 13
EndSplineSet
Validated: 8388609
EndChar

StartChar: six
Encoding: 54 54 17
Width: 348
Flags: HW
HStem: 0 100<249 450> 300 100<300 450> 600 100<350 400>
VStem: 100 149<100 300> 150 150<400 500> 200 150<500 600> 250 150<600 700> 450 100<100 300>
CounterMasks: 1 e0
LayerCount: 2
Back
Fore
SplineSet
257 300 m 13
 219 300 180 300 142 300 c 25
 142 233 142 167 142 100 c 25
 180 100 219 100 257 100 c 25
 257 167 257 233 257 300 c 13
229 700 m 9
 229 667 229 633 229 600 c 25
 219 600 210 600 200 600 c 25
 200 567 200 533 200 500 c 25
 190 500 181 500 171 500 c 25
 171 467 171 433 171 400 c 25
 209 400 248 400 286 400 c 25
 286 367 286 333 286 300 c 25
 296 300 304 300 314 300 c 25
 314 233 314 167 314 100 c 25
 304 100 296 100 286 100 c 25
 286 67 286 33 286 0 c 25
 219 0 153 0 86 0 c 25
 86 33 86 67 86 100 c 25
 76 100 67 100 57 100 c 25
 57 200 57 300 57 400 c 25
 67 400 76 400 86 400 c 25
 86 433 86 467 86 500 c 25
 96 500 104 500 114 500 c 25
 114 533 114 567 114 600 c 25
 124 600 133 600 143 600 c 25
 143 633 143 667 143 700 c 25
 172 700 200 700 229 700 c 9
EndSplineSet
Validated: 8388609
EndChar

StartChar: seven
Encoding: 55 55 18
Width: 348
Flags: HW
HStem: 0 100<100 150> 600 100<50 350 500 550>
VStem: 100 150<0 100> 150 150<100 200> 200 150<200 300> 250 150<300 400> 300 150<400 500> 350 150<500 600>
LayerCount: 2
Back
Fore
SplineSet
29 700 m 1
 124 700 219 700 314 700 c 25
 314 667 314 633 314 600 c 25
 304 600 296 600 286 600 c 25
 286 567 286 533 286 500 c 25
 276 500 267 500 257 500 c 25
 257 467 257 433 257 400 c 25
 247 400 239 400 229 400 c 25
 229 367 229 333 229 300 c 25
 219 300 210 300 200 300 c 25
 200 267 200 233 200 200 c 25
 190 200 181 200 171 200 c 25
 171 167 171 133 171 100 c 25
 161 100 153 100 143 100 c 25
 143 67 143 33 143 0 c 25
 114 0 86 0 57 0 c 25
 57 33 57 67 57 100 c 25
 67 100 76 100 86 100 c 25
 86 133 86 167 86 200 c 25
 96 200 104 200 114 200 c 25
 114 233 114 267 114 300 c 25
 124 300 133 300 143 300 c 25
 143 333 143 367 143 400 c 25
 153 400 161 400 171 400 c 25
 171 433 171 467 171 500 c 25
 181 500 190 500 200 500 c 25
 200 533 200 567 200 600 c 1
 143 600 86 600 29 600 c 25
 29 633 29 667 29 700 c 1
EndSplineSet
Validated: 8388609
EndChar

StartChar: eight
Encoding: 56 56 19
Width: 348
Flags: HW
HStem: 0 100<250 400> 300 100<250 400> 600 100<250 400>
VStem: 100 150<100 300 400 600> 400 150<100 300 400 600>
CounterMasks: 1 e0
LayerCount: 2
Back
Fore
SplineSet
143 100 m 13
 172 100 200 100 229 100 c 25
 229 167 229 233 229 300 c 25
 200 300 172 300 143 300 c 25
 143 233 143 167 143 100 c 13
143 600 m 9
 143 533 143 467 143 400 c 25
 172 400 200 400 229 400 c 25
 229 467 229 533 229 600 c 25
 200 600 172 600 143 600 c 9
86 700 m 9
 153 700 219 700 286 700 c 25
 286 667 286 633 286 600 c 25
 296 600 304 600 314 600 c 25
 314 533 314 467 314 400 c 25
 295 400 276 400 257 400 c 25
 257 367 257 333 257 300 c 25
 276 300 295 300 314 300 c 25
 314 233 314 167 314 100 c 25
 304 100 296 100 286 100 c 25
 286 67 286 33 286 0 c 25
 219 0 153 0 86 0 c 25
 86 33 86 67 86 100 c 25
 76 100 67 100 57 100 c 25
 57 167 57 233 57 300 c 25
 76 300 95 300 114 300 c 25
 114 333 114 367 114 400 c 25
 95 400 76 400 57 400 c 25
 57 467 57 533 57 600 c 25
 67 600 76 600 86 600 c 25
 86 633 86 667 86 700 c 9
EndSplineSet
Validated: 1
EndChar

StartChar: nine
Encoding: 57 57 20
Width: 348
Flags: HW
HStem: 0 100<250 300> 300 100<200 350> 600 100<200 400>
VStem: 100 100<400 600> 250 150<0 100> 300 150<100 200> 350 150<200 300> 400 150<400 600>
CounterMasks: 1 e0
LayerCount: 2
Back
Fore
SplineSet
114 600 m 13
 114 533 114 467 114 400 c 25
 152 400 191 400 229 400 c 25
 229 467 229 533 229 600 c 25
 191 600 152 600 114 600 c 13
86 600 m 9
 86 633 86 667 86 700 c 25
 153 700 219 700 286 700 c 25
 286 667 286 633 286 600 c 25
 296 600 304 600 314 600 c 25
 314 500 314 400 314 300 c 25
 304 300 295 300 285 300 c 25
 285 267 286 233 286 200 c 25
 276 200 267 200 257 200 c 25
 257 167 257 133 257 100 c 25
 247 100 239 100 229 100 c 25
 229 67 229 33 229 0 c 25
 200 0 172 0 143 0 c 25
 143 33 143 67 143 100 c 25
 153 100 161 100 171 100 c 25
 171 133 171 167 171 200 c 25
 181 200 190 200 200 200 c 25
 200 233 200 267 200 300 c 25
 162 300 124 300 86 300 c 25
 86 333 86 367 86 400 c 25
 76 400 67 400 57 400 c 25
 57 467 57 533 57 600 c 25
 67 600 76 600 86 600 c 9
EndSplineSet
Validated: 8388609
EndChar

StartChar: colon
Encoding: 58 58 21
Width: 348
Flags: HW
HStem: 0 21G<250 350> 480 20G<250 349.1>
VStem: 250 100<0 200 300 500>
LayerCount: 2
Back
Fore
SplineSet
143 200 m 13
 162 200 181 200 200 200 c 25
 200 133 200 67 200 0 c 25
 181 0 162 0 143 0 c 25
 143 67 143 133 143 200 c 13
143 500 m 9
 162 500 180 500 199 500 c 25
 199 433 200 367 200 300 c 25
 181 300 162 300 143 300 c 25
 143 367 143 433 143 500 c 9
EndSplineSet
Validated: 1
EndChar

StartChar: semicolon
Encoding: 59 59 22
Width: 348
Flags: HW
HStem: -200 100<200 250> 480 20G<250 350>
VStem: 200 100<-200 -100> 250 100<-100 100 300 500>
LayerCount: 2
Back
Fore
SplineSet
143 100 m 1
 162 100 181 100 200 100 c 25
 200 33 200 -33 200 -100 c 1
 190 -100 181 -100 171 -100 c 25
 171 -133 171 -167 171 -200 c 25
 152 -200 133 -200 114 -200 c 25
 114 -167 114 -133 114 -100 c 25
 124 -100 133 -100 143 -100 c 25
 143 -33 143 33 143 100 c 1
143 500 m 9
 162 500 181 500 200 500 c 25
 200 433 200 367 200 300 c 25
 181 300 162 300 143 300 c 25
 143 367 143 433 143 500 c 9
EndSplineSet
Validated: 8388609
EndChar

StartChar: less
Encoding: 60 60 23
Width: 348
Flags: HW
HStem: 0 100<450 550> 100 100<350 400> 200 100<250 300> 300 100<100 200> 400 100<250 300> 500 100<350 400> 600 100<450 550>
VStem: 100 150<300 400> 200 150<200 300 400 500> 300 150<100 200 500 600> 400 150<0 100 600 700>
LayerCount: 2
Back
Fore
SplineSet
229 700 m 13
 258 700 285 700 314 700 c 25
 314 667 314 633 314 600 c 25
 295 600 276 600 257 600 c 25
 257 567 257 533 257 500 c 25
 238 500 219 500 200 500 c 25
 200 467 200 433 200 400 c 25
 181 400 162 400 143 400 c 25
 143 367 143 333 143 300 c 25
 162 300 181 300 200 300 c 25
 200 267 200 233 200 200 c 25
 219 200 238 200 257 200 c 25
 257 167 257 133 257 100 c 25
 276 100 295 100 314 100 c 25
 314 67 314 33 314 0 c 25
 285 0 258 0 229 0 c 25
 229 33 229 67 229 100 c 25
 210 100 190 100 171 100 c 25
 171 133 171 167 171 200 c 25
 152 200 133 200 114 200 c 25
 114 233 114 267 114 300 c 25
 95 300 76 300 57 300 c 25
 57 333 57 367 57 400 c 25
 76 400 95 400 114 400 c 25
 114 433 114 467 114 500 c 25
 133 500 152 500 171 500 c 25
 171 533 171 567 171 600 c 25
 190 600 210 600 229 600 c 25
 229 633 229 667 229 700 c 13
EndSplineSet
Validated: 8388609
EndChar

StartChar: equal
Encoding: 61 61 24
Width: 348
Flags: HW
HStem: 200 100<100 500> 400 100<100 500>
LayerCount: 2
Back
Fore
SplineSet
57 500 m 13
 133 500 210 500 286 500 c 25
 286 467 286 433 286 400 c 25
 210 400 133 400 57 400 c 25
 57 433 57 467 57 500 c 13
57 300 m 9
 133 300 210 300 286 300 c 25
 286 267 286 233 286 200 c 25
 210 200 133 200 57 200 c 25
 57 233 57 267 57 300 c 9
EndSplineSet
Validated: 1
EndChar

StartChar: greater
Encoding: 62 62 25
Width: 348
Flags: HW
HStem: 0 100<100 200> 100 100<250 300> 200 100<350 400> 300 100<450 550> 400 100<350 400> 500 100<250 300> 600 100<100 200>
VStem: 100 150<0 100 600 700> 200 150<100 200 500 600> 300 150<200 300 400 500> 400 150<300 400>
LayerCount: 2
Back
Fore
SplineSet
57 600 m 13
 57 633 57 667 57 700 c 25
 86 700 114 700 143 700 c 25
 143 667 143 633 143 600 c 25
 162 600 181 600 200 600 c 25
 200 567 200 533 200 500 c 25
 219 500 238 500 257 500 c 25
 257 467 257 433 257 400 c 25
 276 400 295 400 314 400 c 25
 314 367 314 333 314 300 c 25
 295 300 276 300 257 300 c 25
 257 267 257 233 257 200 c 25
 238 200 219 200 200 200 c 25
 200 167 200 133 200 100 c 25
 181 100 162 100 143 100 c 25
 143 67 143 33 143 0 c 25
 114 0 86 0 57 0 c 25
 57 33 57 67 57 100 c 25
 76 100 95 100 114 100 c 25
 114 133 114 167 114 200 c 25
 133 200 152 200 171 200 c 25
 171 233 171 267 171 300 c 25
 190 300 210 300 229 300 c 25
 229 333 229 367 229 400 c 25
 210 400 190 400 171 400 c 25
 171 433 171 467 171 500 c 25
 152 500 133 500 114 500 c 25
 114 533 114 567 114 600 c 25
 95 600 76 600 57 600 c 13
EndSplineSet
Validated: 8388609
EndChar

StartChar: question
Encoding: 63 63 26
Width: 348
Flags: HW
HStem: 0 100<300 400> 200 100<300 400> 300 100<400 450> 600 100<200 450>
VStem: 100 100<400 600> 300 100<0 100 200 300> 400 100<300 400> 450 100<400 600>
LayerCount: 2
Back
Fore
SplineSet
171 300 m 1
 190 300 210 300 229 300 c 1
 229 267 229 233 229 200 c 1
 210 200 190 200 171 200 c 1
 171 233 171 267 171 300 c 1
229 0 m 9
 210 0 190 0 171 0 c 1
 171 33 171 67 171 100 c 25
 190 100 210 100 229 100 c 1
 229 67 229 33 229 0 c 9
57 600 m 9
 67 600 76 600 86 600 c 25
 86 633 86 667 86 700 c 25
 153 700 219 700 286 700 c 25
 286 667 286 633 286 600 c 25
 296 600 304 600 314 600 c 25
 314 533 314 467 314 400 c 25
 304 400 295 400 285 400 c 25
 285 367 286 333 286 300 c 25
 267 300 248 300 229 300 c 25
 229 333 229 367 229 400 c 25
 239 400 247 400 257 400 c 25
 257 467 257 533 257 600 c 25
 209 600 162 600 114 600 c 25
 114 533 114 467 114 400 c 25
 95 400 76 400 57 400 c 25
 57 467 57 533 57 600 c 9
EndSplineSet
Validated: 8388613
EndChar

StartChar: at
Encoding: 64 64 27
Width: 348
Flags: HW
HStem: -100 100<200 500> 100 100<350 450> 400 100<350 450> 600 100<200 450>
VStem: 50 100<100 500> 100 100<0 100 500 600> 250 100<200 400> 300 250<100 200 400 500> 450 100<200 400 500 600>
LayerCount: 2
Back
Fore
SplineSet
200 400 m 13
 200 333 200 267 200 200 c 25
 219 200 238 200 257 200 c 25
 257 267 257 333 257 400 c 25
 238 400 219 400 200 400 c 13
86 600 m 9
 86 633 86 667 86 700 c 25
 153 700 219 700 286 700 c 25
 286 667 286 633 286 600 c 25
 296 600 304 600 314 600 c 25
 314 433 314 267 314 100 c 25
 266 100 219 100 171 100 c 25
 171 133 171 167 171 200 c 25
 161 200 153 200 143 200 c 25
 143 267 143 333 143 400 c 25
 153 400 161 400 171 400 c 25
 171 433 171 467 171 500 c 25
 200 500 228 500 257 500 c 25
 257 533 257 567 257 600 c 25
 209 600 162 600 114 600 c 25
 114 567 114 533 114 500 c 25
 104 500 96 500 86 500 c 25
 86 367 86 233 86 100 c 25
 96 100 104 100 114 100 c 25
 114 67 114 33 114 0 c 25
 171 0 229 0 286 0 c 25
 286 -33 286 -67 286 -100 c 25
 219 -100 153 -100 86 -100 c 25
 86 -67 86 -33 86 0 c 25
 76 0 67 0 57 0 c 25
 57 33 57 67 57 100 c 25
 47 100 39 100 29 100 c 25
 29 233 29 367 29 500 c 25
 39 500 47 500 57 500 c 25
 57 533 57 567 57 600 c 25
 67 600 76 600 86 600 c 9
EndSplineSet
Validated: 8388609
EndChar

StartChar: A
Encoding: 65 65 28
Width: 348
Flags: HW
HStem: 0 21G<50 150 450 550> 200 100<150 450> 600 100<250 350>
VStem: 50 100<0 200 300 400> 100 100<400 500> 150 100<500 600> 350 100<500 600> 400 100<400 500> 450 100<0 200 300 400>
LayerCount: 2
Back
Fore
SplineSet
86 400 m 13
 86 367 86 333 86 300 c 25
 143 300 200 300 257 300 c 25
 257 333 257 367 257 400 c 25
 247 400 239 400 229 400 c 25
 229 433 229 467 229 500 c 25
 219 500 210 500 200 500 c 25
 200 533 200 567 200 600 c 25
 181 600 162 600 143 600 c 25
 143 567 143 533 143 500 c 25
 133 500 124 500 114 500 c 25
 114 467 114 433 114 400 c 25
 104 400 96 400 86 400 c 13
86 0 m 9
 67 0 48 0 29 0 c 25
 29 133 29 267 29 400 c 25
 39 400 47 400 57 400 c 25
 57 433 57 467 57 500 c 25
 67 500 76 500 86 500 c 25
 86 533 86 567 86 600 c 25
 96 600 104 600 114 600 c 25
 114 633 114 667 114 700 c 25
 152 700 190 700 228 700 c 25
 228 667 229 633 229 600 c 25
 239 600 247 600 257 600 c 25
 257 567 257 533 257 500 c 25
 267 500 276 500 286 500 c 25
 286 467 286 433 286 400 c 25
 296 400 304 400 314 400 c 25
 314 267 314 133 314 0 c 25
 295 0 276 0 257 0 c 25
 257 67 257 133 257 200 c 25
 200 200 143 200 86 200 c 25
 86 133 86 67 86 0 c 9
EndSplineSet
Validated: 8388609
EndChar

StartChar: B
Encoding: 66 66 29
Width: 348
Flags: HW
HStem: 0 100<200 450> 300 100<200 450> 600 100<200 450>
VStem: 100 400<0 100 300 400 600 700> 100 100<100 300 400 600> 450 100<100 300 400 600>
CounterMasks: 1 e0
LayerCount: 2
Back
Fore
SplineSet
114 600 m 13
 114 533 114 467 114 400 c 25
 162 400 209 400 257 400 c 25
 257 467 257 533 257 600 c 25
 209 600 162 600 114 600 c 13
114 300 m 9
 114 233 114 167 114 100 c 25
 162 100 209 100 257 100 c 25
 257 167 257 233 257 300 c 25
 209 300 162 300 114 300 c 9
57 0 m 9
 57 233 57 467 57 700 c 25
 133 700 210 700 286 700 c 25
 286 667 286 633 286 600 c 25
 296 600 304 600 314 600 c 25
 314 533 314 467 314 400 c 25
 304 400 296 400 286 400 c 25
 286 367 286 333 286 300 c 25
 296 300 304 300 314 300 c 25
 314 233 314 167 314 100 c 25
 304 100 296 100 286 100 c 25
 286 67 286 33 286 0 c 25
 210 0 133 0 57 0 c 9
EndSplineSet
Validated: 8388609
EndChar

StartChar: C
Encoding: 67 67 30
Width: 348
Flags: HW
HStem: 0 100<250 450> 100 100<500 550> 500 100<500 550> 600 100<250 450>
VStem: 100 100<200 500> 150 100<100 200 500 600> 200 300<0 100 600 700> 450 100<100 200 500 600>
LayerCount: 2
Back
Fore
SplineSet
114 700 m 13
 171 700 229 700 286 700 c 25
 286 667 286 633 286 600 c 25
 296 600 304 600 314 600 c 25
 314 567 314 533 314 500 c 25
 295 500 276 500 257 500 c 25
 257 533 257 567 257 600 c 25
 219 600 181 600 143 600 c 25
 143 567 143 533 143 500 c 25
 133 500 124 500 114 500 c 25
 114 400 114 300 114 200 c 25
 124 200 133 200 143 200 c 25
 143 167 143 133 143 100 c 25
 181 100 219 100 257 100 c 25
 257 133 257 167 257 200 c 25
 276 200 295 200 314 200 c 25
 314 167 314 133 314 100 c 25
 304 100 296 100 286 100 c 25
 286 67 286 33 286 0 c 25
 229 0 171 0 114 0 c 25
 114 33 114 67 114 100 c 25
 104 100 96 100 86 100 c 25
 86 133 86 167 86 200 c 25
 76 200 67 200 57 200 c 25
 57 300 57 400 57 500 c 25
 67 500 76 500 86 500 c 25
 86 533 86 567 86 600 c 25
 96 600 104 600 114 600 c 25
 114 633 114 667 114 700 c 13
EndSplineSet
Validated: 8388609
EndChar

StartChar: D
Encoding: 68 68 31
Width: 348
Flags: HW
HStem: 0 100<200 400> 600 100<200 400>
VStem: 100 100<100 600> 400 100<100 200 500 600> 450 100<200 500>
LayerCount: 2
Back
Fore
SplineSet
114 600 m 13
 114 433 114 267 114 100 c 25
 152 100 191 100 229 100 c 25
 229 133 229 167 229 200 c 25
 239 200 247 200 257 200 c 25
 257 300 257 400 257 500 c 25
 247 500 239 500 229 500 c 25
 229 533 229 567 229 600 c 25
 191 600 152 600 114 600 c 13
57 700 m 9
 124 700 190 700 257 700 c 25
 257 667 257 633 257 600 c 25
 267 600 276 600 286 600 c 25
 286 567 286 533 286 500 c 25
 296 500 304 500 314 500 c 25
 314 400 314 300 314 200 c 25
 304 200 296 200 286 200 c 25
 286 167 286 133 286 100 c 25
 276 100 267 100 257 100 c 25
 257 67 257 33 257 0 c 25
 190 0 124 0 57 0 c 25
 57 233 57 467 57 700 c 9
EndSplineSet
Validated: 8388609
EndChar

StartChar: E
Encoding: 69 69 32
Width: 348
Flags: HW
HStem: 0 100<200 550> 300 100<200 450> 600 100<200 550>
VStem: 100 100<100 300 400 600>
CounterMasks: 1 e0
LayerCount: 2
Back
Fore
SplineSet
314 600 m 13
 247 600 181 600 114 600 c 25
 114 533 114 467 114 400 c 25
 162 400 209 400 257 400 c 25
 257 367 257 333 257 300 c 25
 209 300 162 300 114 300 c 25
 114 233 114 167 114 100 c 25
 181 100 247 100 314 100 c 25
 314 67 314 33 314 0 c 25
 228 0 143 0 57 0 c 25
 57 233 57 467 57 700 c 25
 143 700 228 700 314 700 c 25
 314 667 314 633 314 600 c 13
EndSplineSet
Validated: 1
EndChar

StartChar: F
Encoding: 70 70 33
Width: 348
Flags: HW
HStem: 0 21G<100 200> 300 100<200 450> 600 100<200 550>
VStem: 100 100<0 300 400 600>
LayerCount: 2
Back
Fore
SplineSet
114 0 m 13
 95 0 76 0 57 0 c 25
 57 233 57 467 57 700 c 25
 143 700 228 700 314 700 c 25
 314 667 314 633 314 600 c 25
 247 600 181 600 114 600 c 25
 114 533 114 467 114 400 c 25
 162 400 209 400 257 400 c 25
 257 367 257 333 257 300 c 25
 209 300 162 300 114 300 c 25
 114 200 114 100 114 0 c 13
EndSplineSet
Validated: 1
EndChar

StartChar: G
Encoding: 71 71 34
Width: 348
Flags: HW
HStem: 0 100<200 450> 200 100<300 450> 500 100<500 550> 600 100<200 450>
VStem: 100 100<100 600> 450 100<100 200 500 600>
LayerCount: 2
Back
Fore
SplineSet
257 600 m 13
 209 600 162 600 114 600 c 25
 114 433 114 267 114 100 c 25
 162 100 209 100 257 100 c 25
 257 133 257 167 257 200 c 25
 228 200 200 200 171 200 c 25
 171 233 171 267 171 300 c 25
 219 300 266 300 314 300 c 25
 314 233 314 167 314 100 c 25
 304 100 296 100 286 100 c 25
 286 67 286 33 286 0 c 25
 219 0 153 0 86 0 c 25
 86 33 86 67 86 100 c 25
 76 100 67 100 57 100 c 25
 57 267 57 433 57 600 c 25
 67 600 76 600 86 600 c 25
 86 633 86 667 86 700 c 25
 153 700 219 700 286 700 c 25
 286 667 286 633 286 600 c 25
 296 600 304 600 314 600 c 25
 314 567 314 533 314 500 c 25
 295 500 276 500 257 500 c 25
 257 533 257 567 257 600 c 13
EndSplineSet
Validated: 8388609
EndChar

StartChar: H
Encoding: 72 72 35
Width: 348
Flags: HW
HStem: 0 21G<100 200 450 550> 300 100<200 450> 680 20G<100 200 450 550>
VStem: 100 100<0 300 400 700> 450 100<0 300 400 700>
LayerCount: 2
Back
Fore
SplineSet
57 700 m 13
 76 700 95 700 114 700 c 25
 114 600 114 500 114 400 c 25
 162 400 209 400 257 400 c 25
 257 500 257 600 257 700 c 25
 276 700 295 700 314 700 c 25
 314 467 314 233 314 0 c 25
 295 0 276 0 257 0 c 25
 257 100 257 200 257 300 c 25
 209 300 162 300 114 300 c 25
 114 200 114 100 114 0 c 25
 95 0 76 0 57 0 c 25
 57 233 57 467 57 700 c 13
EndSplineSet
Validated: 1
EndChar

StartChar: I
Encoding: 73 73 36
Width: 348
Flags: HW
HStem: 0 100<100 250 350 500> 600 100<100 250 350 500>
VStem: 250 100<100 600>
LayerCount: 2
Back
Fore
SplineSet
57 700 m 13
 133 700 210 700 286 700 c 25
 286 667 286 633 286 600 c 25
 257 600 229 600 200 600 c 25
 200 433 200 267 200 100 c 25
 229 100 257 100 286 100 c 25
 286 67 286 33 286 0 c 25
 210 0 133 0 57 0 c 25
 57 33 57 67 57 100 c 25
 86 100 114 100 143 100 c 25
 143 267 143 433 143 600 c 25
 114 600 86 600 57 600 c 25
 57 633 57 667 57 700 c 13
EndSplineSet
Validated: 1
EndChar

StartChar: J
Encoding: 74 74 37
Width: 348
Flags: HW
HStem: 0 100<200 450> 100 100<100 150> 680 20G<450 550>
VStem: 100 100<100 200> 450 100<100 700>
LayerCount: 2
Back
Fore
SplineSet
257 700 m 13
 276 700 295 700 314 700 c 25
 314 500 314 300 314 100 c 25
 304 100 296 100 286 100 c 25
 286 67 286 33 286 0 c 25
 219 0 153 0 86 0 c 25
 86 33 86 67 86 100 c 25
 76 100 67 100 57 100 c 25
 57 133 57 167 57 200 c 25
 76 200 95 200 114 200 c 25
 114 167 114 133 114 100 c 25
 162 100 209 100 257 100 c 25
 257 300 257 500 257 700 c 13
EndSplineSet
Validated: 8388609
EndChar

StartChar: K
Encoding: 75 75 38
Width: 348
Flags: HW
HStem: 0 100<450 550> 200 100<300 350> 300 100<200 250> 400 100<300 350> 600 100<450 550>
VStem: 100 100<0 300 400 700> 250 150<200 300 400 500> 350 100<100 200 500 600> 400 150<0 100 600 700>
LayerCount: 2
Back
Fore
SplineSet
57 700 m 13
 76 700 95 700 114 700 c 25
 114 600 114 500 114 400 c 25
 124 400 133 400 143 400 c 25
 143 433 143 467 143 500 c 25
 162 500 181 500 200 500 c 25
 200 533 200 567 200 600 c 25
 210 600 219 600 229 600 c 25
 229 633 229 667 229 700 c 25
 258 700 285 700 314 700 c 25
 314 667 314 633 314 600 c 25
 295 600 276 600 257 600 c 25
 257 567 257 533 257 500 c 25
 247 500 239 500 229 500 c 25
 229 467 229 433 229 400 c 25
 210 400 190 400 171 400 c 25
 171 367 171 333 171 300 c 25
 190 300 210 300 229 300 c 25
 229 267 229 233 229 200 c 25
 239 200 247 200 257 200 c 25
 257 167 257 133 257 100 c 25
 276 100 295 100 314 100 c 25
 314 67 314 33 314 0 c 25
 285 0 258 0 229 0 c 25
 229 33 229 67 229 100 c 25
 219 100 210 100 200 100 c 25
 200 133 200 167 200 200 c 25
 181 200 162 200 143 200 c 25
 143 233 143 267 143 300 c 25
 133 300 124 300 114 300 c 25
 114 200 114 100 114 0 c 25
 95 0 76 0 57 0 c 25
 57 233 57 467 57 700 c 13
EndSplineSet
Validated: 8388609
EndChar

StartChar: L
Encoding: 76 76 39
Width: 348
Flags: HW
HStem: 0 100<200 550> 680 20G<100 200>
VStem: 100 100<100 700>
LayerCount: 2
Back
Fore
SplineSet
57 700 m 13
 76 700 95 700 114 700 c 25
 114 500 114 300 114 100 c 25
 181 100 247 100 314 100 c 25
 314 67 314 33 314 0 c 25
 228 0 143 0 57 0 c 25
 57 233 57 467 57 700 c 13
EndSplineSet
Validated: 1
EndChar

StartChar: M
Encoding: 77 77 40
Width: 348
Flags: HW
HStem: 0 21G<50 150 450 550> 680 20G<50 200 400 550>
VStem: 50 150<600 700> 50 100<0 500> 250 100<300 400> 400 150<600 700> 450 100<0 500>
LayerCount: 2
Back
Fore
SplineSet
86 0 m 13
 67 0 48 0 29 0 c 25
 29 233 29 467 29 700 c 25
 58 700 85 700 114 700 c 25
 114 667 114 633 114 600 c 25
 124 600 133 600 143 600 c 25
 143 567 143 533 143 500 c 25
 162 500 181 500 200 500 c 25
 200 533 200 567 200 600 c 25
 210 600 219 600 229 600 c 25
 229 633 229 667 229 700 c 25
 258 700 285 700 314 700 c 25
 314 467 314 233 314 0 c 25
 295 0 276 0 257 0 c 25
 257 167 257 333 257 500 c 25
 247 500 239 500 229 500 c 25
 229 467 229 433 229 400 c 25
 219 400 210 400 200 400 c 25
 200 367 200 333 200 300 c 25
 181 300 162 300 143 300 c 25
 143 333 143 367 143 400 c 25
 133 400 124 400 114 400 c 25
 114 433 114 467 114 500 c 25
 104 500 96 500 86 500 c 25
 86 333 86 167 86 0 c 13
EndSplineSet
Validated: 8388609
EndChar

StartChar: N
Encoding: 78 78 41
Width: 348
Flags: HW
HStem: 0 21G<50 150 400 550> 680 20G<50 200 450 550>
VStem: 50 150<600 700> 50 100<0 500> 200 100<400 500> 250 100<300 400> 300 100<200 300> 400 150<0 100> 450 100<200 700>
LayerCount: 2
Back
Fore
SplineSet
29 700 m 13
 58 700 85 700 114 700 c 25
 114 667 114 633 114 600 c 25
 124 600 133 600 143 600 c 25
 143 567 143 533 143 500 c 25
 153 500 161 500 171 500 c 25
 171 467 171 433 171 400 c 25
 181 400 190 400 200 400 c 25
 200 367 200 333 200 300 c 25
 210 300 219 300 229 300 c 25
 229 267 229 233 229 200 c 25
 239 200 247 200 257 200 c 25
 257 367 257 533 257 700 c 25
 276 700 295 700 314 700 c 25
 314 467 314 233 314 0 c 25
 285 0 258 0 229 0 c 25
 229 33 229 67 229 100 c 25
 219 100 210 100 200 100 c 25
 200 133 200 167 200 200 c 25
 190 200 181 200 171 200 c 25
 171 233 171 267 171 300 c 25
 161 300 153 300 143 300 c 25
 143 333 143 367 143 400 c 25
 133 400 124 400 114 400 c 25
 114 433 114 467 114 500 c 25
 104 500 96 500 86 500 c 25
 86 333 86 167 86 0 c 25
 67 0 48 0 29 0 c 25
 29 233 29 467 29 700 c 13
EndSplineSet
Validated: 8388609
EndChar

StartChar: O
Encoding: 79 79 42
Width: 348
Flags: HW
HStem: 0 100<200 400> 600 100<200 400>
VStem: 50 100<200 500> 100 100<100 200 500 600> 150 300<0 100 600 700> 400 100<100 200 500 600> 450 100<200 500>
LayerCount: 2
Back
Fore
SplineSet
229 100 m 13
 229 133 229 167 229 200 c 25
 239 200 247 200 257 200 c 25
 257 300 257 400 257 500 c 25
 247 500 239 500 229 500 c 25
 229 533 229 567 229 600 c 25
 191 600 152 600 114 600 c 25
 114 567 114 533 114 500 c 25
 104 500 96 500 86 500 c 25
 86 400 86 300 86 200 c 25
 96 200 104 200 114 200 c 25
 114 167 114 133 114 100 c 25
 152 100 191 100 229 100 c 13
257 0 m 9
 200 0 143 0 86 0 c 25
 86 33 86 67 86 100 c 25
 76 100 67 100 57 100 c 25
 57 133 57 167 57 200 c 25
 47 200 39 200 29 200 c 25
 29 300 29 400 29 500 c 25
 39 500 47 500 57 500 c 25
 57 533 57 567 57 600 c 25
 67 600 76 600 86 600 c 25
 86 633 86 667 86 700 c 25
 143 700 200 700 257 700 c 25
 257 667 257 633 257 600 c 25
 267 600 276 600 286 600 c 25
 286 567 286 533 286 500 c 25
 296 500 304 500 314 500 c 25
 314 400 314 300 314 200 c 25
 304 200 296 200 286 200 c 25
 286 167 286 133 286 100 c 25
 276 100 267 100 257 100 c 25
 257 67 257 33 257 0 c 9
EndSplineSet
Validated: 8388609
EndChar

StartChar: P
Encoding: 80 80 43
Width: 348
Flags: HW
HStem: 0 21G<100 200> 300 100<200 450> 600 100<200 450>
VStem: 100 100<0 300 400 600> 450 100<400 600>
LayerCount: 2
Back
Fore
SplineSet
114 600 m 13
 114 533 114 467 114 400 c 25
 162 400 209 400 257 400 c 25
 257 467 257 533 257 600 c 25
 209 600 162 600 114 600 c 13
57 700 m 9
 133 700 210 700 286 700 c 25
 286 683 286 667 286 650 c 25
 296 650 304 650 314 650 c 25
 314 567 314 483 314 400 c 25
 304 400 296 400 286 400 c 25
 286 367 286 333 286 300 c 25
 229 300 171 300 114 300 c 25
 114 200 114 100 114 0 c 25
 95 0 76 0 57 0 c 25
 57 233 57 467 57 700 c 9
EndSplineSet
Validated: 1
EndChar

StartChar: Q
Encoding: 81 81 44
Width: 348
Flags: HW
HStem: -200 100<450 550> 0 100<150 300> 600 100<150 450>
VStem: 50 100<100 600> 300 100<100 200> 350 100<-100 0> 400 150<-200 -100> 450 100<100 600>
LayerCount: 2
Back
Fore
SplineSet
86 600 m 13
 86 433 86 267 86 100 c 25
 115 100 142 100 171 100 c 25
 171 133 171 167 171 200 c 25
 190 200 210 200 229 200 c 25
 229 167 229 133 229 100 c 25
 239 100 247 100 257 100 c 25
 257 267 257 433 257 600 c 25
 200 600 143 600 86 600 c 13
57 700 m 9
 133 700 210 700 286 700 c 25
 286 667 286 633 286 600 c 25
 296 600 304 600 314 600 c 25
 314 433 314 267 314 100 c 25
 304 100 296 100 286 100 c 25
 286 67 286 33 286 0 c 25
 276 0 267 0 257 0 c 25
 257 -33 257 -67 257 -100 c 25
 276 -100 295 -100 314 -100 c 25
 314 -133 314 -167 314 -200 c 25
 285 -200 258 -200 229 -200 c 25
 229 -167 229 -133 229 -100 c 25
 219 -100 210 -100 200 -100 c 25
 200 -67 200 -33 200 0 c 25
 152 0 105 0 57 0 c 25
 57 33 57 67 57 100 c 25
 47 100 39 100 29 100 c 25
 29 267 29 433 29 600 c 25
 39 600 47 600 57 600 c 25
 57 633 57 667 57 700 c 9
EndSplineSet
Validated: 8388609
EndChar

StartChar: R
Encoding: 82 82 45
Width: 348
Flags: HW
HStem: 0 100<450 550> 300 100<200 300 400 450> 600 100<200 450>
VStem: 100 100<0 300 400 600> 300 100<200 300> 350 100<100 200> 400 150<0 100> 450 100<400 600>
CounterMasks: 1 e0
LayerCount: 2
Back
Fore
SplineSet
114 600 m 13
 114 533 114 467 114 400 c 25
 162 400 209 400 257 400 c 25
 257 467 257 533 257 600 c 25
 209 600 162 600 114 600 c 13
57 700 m 9
 133 700 210 700 286 700 c 25
 286 683 286 667 286 650 c 25
 296 650 304 650 314 650 c 25
 314 567 314 483 314 400 c 25
 304 400 296 400 286 400 c 25
 286 367 286 333 286 300 c 25
 267 300 248 300 229 300 c 25
 229 267 229 233 229 200 c 25
 239 200 247 200 257 200 c 25
 257 167 257 133 257 100 c 25
 276 100 295 100 314 100 c 25
 314 67 314 33 314 0 c 25
 285 0 258 0 229 0 c 25
 229 33 229 67 229 100 c 25
 219 100 210 100 200 100 c 25
 200 133 200 167 200 200 c 25
 190 200 181 200 171 200 c 25
 171 233 171 267 171 300 c 25
 152 300 133 300 114 300 c 25
 114 200 114 100 114 0 c 25
 95 0 76 0 57 0 c 25
 57 233 57 467 57 700 c 9
EndSplineSet
Validated: 8388609
EndChar

StartChar: S
Encoding: 83 83 46
Width: 348
Flags: HW
HStem: 0 100<150 450> 300 100<200 450> 600 100<200 500>
VStem: 100 100<400 600> 150 350<0 100 300 400 600 700> 450 100<100 300>
CounterMasks: 1 e0
LayerCount: 2
Back
Fore
SplineSet
86 600 m 13
 86 633 86 667 86 700 c 25
 153 700 219 700 286 700 c 25
 286 667 286 633 286 600 c 25
 229 600 171 600 114 600 c 25
 114 533 114 467 114 400 c 25
 171 400 229 400 286 400 c 25
 286 367 286 333 286 300 c 25
 296 300 304 300 314 300 c 25
 314 233 314 167 314 100 c 25
 304 100 296 100 286 100 c 25
 286 67 286 33 286 0 c 25
 219 0 153 0 86 0 c 25
 86 33 86 67 86 100 c 25
 143 100 200 100 257 100 c 25
 257 167 257 233 257 300 c 25
 200 300 143 300 86 300 c 25
 86 333 86 367 86 400 c 25
 76 400 67 400 57 400 c 25
 57 467 57 533 57 600 c 25
 67 600 76 600 86 600 c 13
EndSplineSet
Validated: 8388609
EndChar

StartChar: T
Encoding: 84 84 47
Width: 348
Flags: HW
HStem: 0 21G<250 350> 600 100<50 250 350 550>
VStem: 250 100<0 600>
LayerCount: 2
Back
Fore
SplineSet
29 700 m 1
 124 700 219 700 314 700 c 5
 314 667 314 633 314 600 c 1
 276 600 238 600 200 600 c 1
 200 400 200 200 200 0 c 25
 181 0 162 0 143 0 c 25
 143 200 143 400 143 600 c 1
 105 600 67 600 29 600 c 1
 29 633 29 667 29 700 c 1
EndSplineSet
Validated: 1
EndChar

StartChar: U
Encoding: 85 85 48
Width: 348
Flags: HW
HStem: 0 100<200 450> 680 20G<100 200 450 550>
VStem: 100 100<100 700> 450 100<100 700>
LayerCount: 2
Back
Fore
SplineSet
57 700 m 13
 76 700 95 700 114 700 c 25
 114 500 114 300 114 100 c 25
 162 100 209 100 257 100 c 25
 257 300 257 500 257 700 c 25
 276 700 295 700 314 700 c 25
 314 500 314 300 314 100 c 25
 304 100 296 100 286 100 c 25
 286 67 286 33 286 0 c 25
 219 0 153 0 86 0 c 25
 86 33 86 67 86 100 c 25
 76 100 67 100 57 100 c 25
 57 300 57 500 57 700 c 13
EndSplineSet
Validated: 1
EndChar

StartChar: V
Encoding: 86 86 49
Width: 348
Flags: HW
HStem: 0 21G<300 400> 680 20G<100 200 500 600>
VStem: 100 100<500 700> 150 100<300 500> 200 100<200 300> 300 100<0 100> 400 100<200 300> 450 100<300 500> 500 100<500 700>
LayerCount: 2
Back
Fore
SplineSet
57 700 m 13
 76 700 95 700 114 700 c 25
 114 633 114 567 114 500 c 25
 124 500 133 500 143 500 c 25
 143 433 143 367 143 300 c 25
 153 300 161 300 171 300 c 25
 171 267 171 233 171 200 c 25
 190 200 210 200 229 200 c 25
 229 233 229 267 229 300 c 25
 239 300 247 300 257 300 c 25
 257 367 257 433 257 500 c 25
 267 500 276 500 286 500 c 25
 286 567 286 633 286 700 c 25
 305 700 324 700 343 700 c 25
 343 633 343 567 343 500 c 25
 333 500 324 500 314 500 c 25
 314 433 314 367 314 300 c 25
 304 300 296 300 286 300 c 25
 286 267 286 233 286 200 c 25
 276 200 267 200 257 200 c 25
 257 167 257 133 257 100 c 25
 247 100 239 100 229 100 c 25
 229 67 229 33 229 0 c 25
 210 0 190 0 171 0 c 25
 171 33 171 67 171 100 c 25
 161 100 153 100 143 100 c 25
 143 133 143 167 143 200 c 25
 133 200 124 200 114 200 c 25
 114 233 114 267 114 300 c 25
 104 300 96 300 86 300 c 25
 86 367 86 433 86 500 c 25
 76 500 67 500 57 500 c 25
 57 567 57 633 57 700 c 13
EndSplineSet
Validated: 8388609
EndChar

StartChar: W
Encoding: 87 87 50
Width: 348
Flags: HW
HStem: 0 21G<100 200 400 500> 680 20G<50 150 450 550>
VStem: 50 100<200 700> 100 150<100 200> 100 100<0 100> 250 100<300 400> 350 150<100 200> 400 100<0 100> 450 100<200 700>
LayerCount: 2
Back
Fore
SplineSet
29 700 m 13
 48 700 67 700 86 700 c 25
 86 533 86 367 86 200 c 25
 96 200 104 200 114 200 c 25
 114 233 114 267 114 300 c 25
 124 300 133 300 143 300 c 25
 143 333 143 367 143 400 c 25
 162 400 181 400 200 400 c 25
 200 367 200 333 200 300 c 25
 210 300 219 300 229 300 c 25
 229 267 229 233 229 200 c 25
 239 200 247 200 257 200 c 25
 257 367 257 533 257 700 c 25
 276 700 295 700 314 700 c 25
 314 533 314 367 314 200 c 25
 304 200 296 200 286 200 c 25
 286 133 286 67 286 0 c 25
 267 0 248 0 229 0 c 25
 229 33 229 67 229 100 c 25
 219 100 210 100 200 100 c 25
 200 133 200 167 200 200 c 25
 181 200 162 200 143 200 c 25
 143 167 143 133 143 100 c 25
 133 100 124 100 114 100 c 25
 114 67 114 33 114 0 c 25
 95 0 76 0 57 0 c 25
 57 67 57 133 57 200 c 25
 47 200 39 200 29 200 c 25
 29 367 29 533 29 700 c 13
EndSplineSet
Validated: 8388609
EndChar

StartChar: X
Encoding: 88 88 51
Width: 348
Flags: HW
HStem: 0 100<100 150 450 500> 600 100<100 150 450 500>
VStem: 100 100<0 100 600 700> 150 100<100 200 500 600> 200 200<200 300 400 500> 350 100<100 200 500 600> 400 100<0 100 600 700>
LayerCount: 2
Back
Fore
SplineSet
57 700 m 13
 76 700 95 700 114 700 c 25
 114 667 114 633 114 600 c 25
 124 600 133 600 143 600 c 25
 143 567 143 533 143 500 c 25
 162 500 181 500 200 500 c 25
 200 533 200 567 200 600 c 25
 210 600 219 600 229 600 c 25
 229 633 229 667 229 700 c 25
 248 700 267 700 286 700 c 25
 286 667 286 633 286 600 c 25
 276 600 267 600 257 600 c 25
 257 567 257 533 257 500 c 25
 247 500 239 500 229 500 c 25
 229 467 229 433 229 400 c 25
 219 400 210 400 200 400 c 25
 200 367 200 333 200 300 c 25
 210 300 219 300 229 300 c 25
 229 267 229 233 229 200 c 25
 239 200 247 200 257 200 c 25
 257 167 257 133 257 100 c 25
 267 100 276 100 286 100 c 25
 286 67 286 33 286 0 c 25
 267 0 248 0 229 0 c 25
 229 33 229 67 229 100 c 25
 219 100 210 100 200 100 c 25
 200 133 200 167 200 200 c 25
 181 200 162 200 143 200 c 25
 143 167 143 133 143 100 c 25
 133 100 124 100 114 100 c 25
 114 67 114 33 114 0 c 25
 95 0 76 0 57 0 c 25
 57 33 57 67 57 100 c 25
 67 100 76 100 86 100 c 25
 86 133 86 167 86 200 c 25
 96 200 104 200 114 200 c 25
 114 233 114 267 114 300 c 25
 124 300 133 300 143 300 c 25
 143 333 143 367 143 400 c 25
 133 400 124 400 114 400 c 25
 114 433 114 467 114 500 c 25
 104 500 96 500 86 500 c 25
 86 533 86 567 86 600 c 25
 76 600 67 600 57 600 c 25
 57 633 57 667 57 700 c 13
EndSplineSet
Validated: 8388609
EndChar

StartChar: Y
Encoding: 89 89 52
Width: 348
Flags: HW
HStem: 0 21G<250 350> 600 100<50 100 500 550>
VStem: 50 100<600 700> 100 100<500 600> 150 100<400 500> 250 100<0 300> 350 100<400 500> 400 100<500 600> 450 100<600 700>
LayerCount: 2
Back
Fore
SplineSet
29 700 m 13
 48 700 67 700 86 700 c 25
 86 667 86 633 86 600 c 25
 96 600 104 600 114 600 c 25
 114 567 114 533 114 500 c 25
 124 500 133 500 143 500 c 25
 143 467 143 433 143 400 c 25
 162 400 181 400 200 400 c 25
 200 433 200 467 200 500 c 25
 210 500 219 500 229 500 c 25
 229 533 229 567 229 600 c 25
 239 600 247 600 257 600 c 25
 257 633 257 667 257 700 c 25
 276 700 295 700 314 700 c 25
 314 667 314 633 314 600 c 25
 304 600 296 600 286 600 c 25
 286 567 286 533 286 500 c 25
 276 500 267 500 257 500 c 25
 257 467 257 433 257 400 c 25
 247 400 239 400 229 400 c 25
 229 367 229 333 229 300 c 25
 219 300 210 300 200 300 c 25
 200 200 200 100 200 0 c 25
 181 0 162 0 143 0 c 25
 143 100 143 200 143 300 c 25
 133 300 124 300 114 300 c 25
 114 333 114 367 114 400 c 25
 104 400 96 400 86 400 c 25
 86 433 86 467 86 500 c 25
 76 500 67 500 57 500 c 25
 57 533 57 567 57 600 c 25
 47 600 39 600 29 600 c 25
 29 633 29 667 29 700 c 13
EndSplineSet
Validated: 8388609
EndChar

StartChar: Z
Encoding: 90 90 53
Width: 348
Flags: HW
HStem: 0 100<100 150 250 500> 600 100<100 350 450 500>
VStem: 150 100<100 200> 200 100<200 300> 250 100<300 400> 300 100<400 500> 350 100<500 600>
LayerCount: 2
Back
Fore
SplineSet
57 700 m 13
 133 700 210 700 286 700 c 25
 286 667 286 633 286 600 c 25
 276 600 267 600 257 600 c 25
 257 567 257 533 257 500 c 25
 247 500 239 500 229 500 c 25
 229 467 229 433 229 400 c 25
 219 400 210 400 200 400 c 25
 200 367 200 333 200 300 c 25
 190 300 181 300 171 300 c 25
 171 267 171 233 171 200 c 25
 161 200 153 200 143 200 c 25
 143 167 143 133 143 100 c 25
 191 100 238 100 286 100 c 25
 286 67 286 33 286 0 c 25
 210 0 133 0 57 0 c 25
 57 33 57 67 57 100 c 25
 67 100 76 100 86 100 c 25
 86 133 86 167 86 200 c 25
 96 200 104 200 114 200 c 25
 114 233 114 267 114 300 c 25
 124 300 133 300 143 300 c 25
 143 333 143 367 143 400 c 25
 153 400 161 400 171 400 c 25
 171 433 171 467 171 500 c 25
 181 500 190 500 200 500 c 25
 200 533 200 567 200 600 c 25
 152 600 105 600 57 600 c 25
 57 633 57 667 57 700 c 13
EndSplineSet
Validated: 8388609
EndChar

StartChar: a
Encoding: 97 97 54
Width: 348
Flags: HW
HStem: 0 100<150 400 500 549> 100 100<50 100> 200 100<150 400> 400 100<100 400>
VStem: 50 100<100 200> 400 100<100 200 300 400>
LayerCount: 2
Back
Fore
SplineSet
86 200 m 13
 86 167 86 133 86 100 c 25
 134 100 181 100 229 100 c 25
 229 133 229 167 229 200 c 25
 181 200 134 200 86 200 c 13
57 500 m 9
 124 500 190 500 257 500 c 25
 257 467 257 433 257 400 c 25
 267 400 276 400 286 400 c 25
 286 300 286 200 286 100 c 25
 295 100 305 100 314 100 c 25
 314 67 314 33 314 0 c 25
 228 0 143 0 57 0 c 25
 57 33 57 67 57 100 c 25
 47 100 39 100 29 100 c 25
 29 133 29 167 29 200 c 25
 39 200 47 200 57 200 c 25
 57 233 57 267 57 300 c 25
 114 300 172 300 229 300 c 25
 229 333 229 367 229 400 c 25
 172 400 114 400 57 400 c 25
 57 433 57 467 57 500 c 9
EndSplineSet
Validated: 8388609
EndChar

StartChar: b
Encoding: 98 98 55
Width: 348
Flags: HW
HStem: 0 100<200 450> 300 100<200 250> 400 100<250 450> 680 20G<100 200>
VStem: 100 150<300 400> 100 100<100 300 400 700> 450 100<100 400>
LayerCount: 2
Back
Fore
SplineSet
257 400 m 13
 219 400 181 400 143 400 c 25
 143 367 143 333 143 300 c 25
 133 300 124 300 114 300 c 25
 114 233 114 167 114 100 c 25
 162 100 209 100 257 100 c 25
 257 200 257 300 257 400 c 13
57 700 m 9
 76 700 95 700 114 700 c 25
 114 600 114 500 114 400 c 25
 124 400 133 400 143 400 c 25
 143 433 143 467 143 500 c 25
 191 500 238 500 286 500 c 25
 286 467 286 433 286 400 c 25
 296 400 304 400 314 400 c 25
 314 300 314 200 314 100 c 25
 304 100 296 100 286 100 c 25
 286 67 286 33 286 0 c 25
 210 0 133 0 57 0 c 25
 57 233 57 467 57 700 c 9
EndSplineSet
Validated: 8388613
EndChar

StartChar: c
Encoding: 99 99 56
Width: 348
Flags: HW
HStem: 0 100<250 550> 200 100<100 150> 400 100<250 550>
VStem: 100 100<200 300> 150 100<100 200 300 400>
CounterMasks: 1 e0
LayerCount: 2
Back
Fore
SplineSet
114 500 m 13
 181 500 247 500 314 500 c 25
 314 467 314 433 314 400 c 25
 257 400 200 400 143 400 c 25
 143 367 143 333 143 300 c 25
 133 300 124 300 114 300 c 25
 114 267 114 233 114 200 c 25
 124 200 133 200 143 200 c 25
 143 167 143 133 143 100 c 25
 200 100 257 100 314 100 c 25
 314 67 314 33 314 0 c 25
 247 0 181 0 114 0 c 25
 114 33 114 67 114 100 c 25
 104 100 96 100 86 100 c 25
 86 133 86 167 86 200 c 25
 76 200 67 200 57 200 c 25
 57 233 57 267 57 300 c 25
 67 300 76 300 86 300 c 25
 86 333 86 367 86 400 c 25
 96 400 104 400 114 400 c 25
 114 433 114 467 114 500 c 13
EndSplineSet
Validated: 8388609
EndChar

StartChar: d
Encoding: 100 100 57
Width: 348
Flags: HW
HStem: 0 100<200 450> 300 100<400 450> 400 100<200 400> 680 20G<450 550>
VStem: 100 100<100 400> 400 150<300 400> 450 100<100 300 400 700>
LayerCount: 2
Back
Fore
SplineSet
114 100 m 13
 162 100 209 100 257 100 c 25
 257 167 257 233 257 300 c 25
 247 300 239 300 229 300 c 25
 229 333 229 367 229 400 c 25
 191 400 152 400 114 400 c 25
 114 300 114 200 114 100 c 13
257 700 m 9
 276 700 295 700 314 700 c 25
 314 467 314 233 314 0 c 25
 238 0 162 0 86 0 c 25
 86 33 86 67 86 100 c 25
 76 100 67 100 57 100 c 25
 57 200 57 300 57 400 c 25
 67 400 76 400 86 400 c 25
 86 433 86 467 86 500 c 25
 134 500 181 500 229 500 c 25
 229 467 229 433 229 400 c 25
 239 400 247 400 257 400 c 25
 257 500 257 600 257 700 c 9
EndSplineSet
Validated: 8388613
EndChar

StartChar: e
Encoding: 101 101 58
Width: 348
Flags: HW
HStem: 0 100<200 500> 200 100<200 450> 400 100<200 450>
VStem: 100 100<100 200 300 400> 450 100<300 400>
CounterMasks: 1 e0
LayerCount: 2
Back
Fore
SplineSet
114 400 m 1
 114 367 114 333 114 300 c 1
 162 300 209 300 257 300 c 1
 257 333 257 367 257 400 c 1
 209 400 162 400 114 400 c 1
86 400 m 1
 86 433 86 467 86 500 c 1
 152 500 219 500 285 500 c 1
 285 467 286 433 286 400 c 25
 296 400 304 400 314 400 c 25
 314 333 314 267 314 200 c 1
 247 200 181 200 114 200 c 1
 114 167 114 133 114 100 c 1
 171 100 229 100 286 100 c 1
 286 67 286 33 286 0 c 1
 219 0 153 0 86 0 c 1
 86 33 86 67 86 100 c 1
 76 100 67 100 57 100 c 1
 57 200 57 300 57 400 c 5
 67 400 76 400 86 400 c 1
EndSplineSet
Validated: 1
EndChar

StartChar: f
Encoding: 102 102 59
Width: 348
Flags: HW
HStem: 0 21G<200 300> 300 100<100 200 300 450> 600 100<300 550>
VStem: 200 100<0 300 400 600>
LayerCount: 2
Back
Fore
SplineSet
143 600 m 13
 143 633 143 667 143 700 c 25
 200 700 257 700 314 700 c 25
 314 667 314 633 314 600 c 25
 266 600 219 600 171 600 c 25
 171 533 171 467 171 400 c 25
 200 400 228 400 257 400 c 25
 257 367 257 333 257 300 c 25
 228 300 200 300 171 300 c 25
 171 200 171 100 171 0 c 25
 152 0 133 0 114 0 c 25
 114 100 114 200 114 300 c 25
 95 300 76 300 57 300 c 25
 57 333 57 367 57 400 c 25
 76 400 95 400 114 400 c 25
 114 467 114 533 114 600 c 25
 124 600 133 600 143 600 c 13
EndSplineSet
Validated: 1
EndChar

StartChar: g
Encoding: 103 103 60
Width: 348
Flags: HW
HStem: -200 100<150 450> 0 100<200 400> 100 100<400 450> 300 100<400 450> 400 100<200 400>
VStem: 100 100<100 400> 150 250<0 100 400 498> 400 150<100 200 300 400> 450 100<-100 100 200 300 400 500>
LayerCount: 2
Back
Fore
SplineSet
114 400 m 13
 114 300 114 200 114 100 c 25
 152 100 191 100 229 100 c 25
 229 133 229 167 229 200 c 25
 239 200 247 200 257 200 c 25
 257 233 257 267 257 300 c 25
 247 300 239 300 229 300 c 25
 229 333 229 367 229 400 c 25
 191 400 152 400 114 400 c 13
86 400 m 9
 86 433 86 465 86 498 c 25
 134 499 181 499 229 500 c 25
 229 467 229 433 229 400 c 25
 239 400 247 400 257 400 c 25
 257 433 257 467 257 500 c 25
 276 500 295 500 314 500 c 25
 314 300 314 100 314 -100 c 25
 304 -100 296 -100 286 -100 c 25
 286 -133 286 -167 286 -200 c 25
 219 -200 153 -200 86 -200 c 25
 86 -167 86 -133 86 -100 c 25
 143 -100 200 -100 257 -100 c 25
 257 -33 257 33 257 100 c 25
 247 100 239 100 229 100 c 25
 229 67 229 33 229 0 c 25
 181 0 134 0 86 0 c 25
 86 33 86 67 86 100 c 25
 76 100 67 100 57 100 c 25
 57 200 57 300 57 400 c 25
 67 400 76 400 86 400 c 9
EndSplineSet
Validated: 8388613
EndChar

StartChar: h
Encoding: 104 104 61
Width: 348
Flags: HW
HStem: 0 21G<100 200 450 550> 300 100<200 250> 400 100<250 450> 680 20G<100 200>
VStem: 100 150<300 400> 100 100<0 300 400 700> 450 100<0 400>
LayerCount: 2
Back
Fore
SplineSet
57 700 m 13
 76 700 95 700 114 700 c 25
 114 600 114 500 114 400 c 25
 124 400 133 400 143 400 c 25
 143 433 143 467 143 500 c 25
 191 500 238 500 286 500 c 25
 286 467 286 433 286 400 c 25
 296 400 304 400 314 400 c 25
 314 267 314 133 314 0 c 25
 295 0 276 0 257 0 c 25
 257 133 257 267 257 400 c 25
 219 400 181 400 143 400 c 25
 143 367 143 333 143 300 c 25
 133 300 124 300 114 300 c 25
 114 200 114 100 114 0 c 25
 95 0 76 0 57 0 c 25
 57 233 57 467 57 700 c 13
EndSplineSet
Validated: 8388613
EndChar

StartChar: i
Encoding: 105 105 62
Width: 348
Flags: HW
HStem: 0 100<150 250 349 450> 400 100<200 250> 600 100<200 350>
VStem: 200 150<400 500 600 700> 250 100<100 400>
LayerCount: 2
Back
Fore
SplineSet
114 500 m 1
 143 500 171 500 200 500 c 25
 200 367 199 233 199 100 c 25
 218 100 238 100 257 100 c 25
 257 67 257 33 257 0 c 25
 200 0 143 0 86 0 c 25
 86 33 86 67 86 100 c 25
 105 100 124 100 143 100 c 25
 143 200 143 300 143 400 c 1
 133 400 124 400 114 400 c 29
 114 433 114 467 114 500 c 1
114 700 m 9
 143 700 171 700 200 700 c 25
 200 667 200 633 200 600 c 25
 171 600 143 600 114 600 c 25
 114 633 114 667 114 700 c 9
EndSplineSet
Validated: 8388609
EndChar

StartChar: j
Encoding: 106 106 63
Width: 348
Flags: HW
HStem: -200 100<200 450> -100 100<100 150> 400 100<400 450> 600 100<400 549>
VStem: 100 100<-100 0> 400 150<400 500 600 700> 450 100<-100 400>
LayerCount: 2
Back
Fore
SplineSet
229 400 m 13
 229 433 229 467 229 500 c 25
 258 500 285 500 314 500 c 25
 314 300 314 100 314 -100 c 25
 304 -100 296 -100 286 -100 c 25
 286 -133 286 -167 286 -200 c 25
 219 -200 153 -200 86 -200 c 25
 86 -167 86 -133 86 -100 c 25
 76 -100 67 -100 57 -100 c 25
 57 -67 57 -33 57 0 c 25
 76 0 95 0 114 0 c 25
 114 -33 114 -67 114 -100 c 25
 162 -100 209 -100 257 -100 c 25
 257 67 257 233 257 400 c 25
 247 400 239 400 229 400 c 13
229 700 m 9
 257 700 286 700 314 700 c 25
 314 667 314 633 314 600 c 25
 285 600 258 600 229 600 c 25
 229 633 229 667 229 700 c 9
EndSplineSet
Validated: 8388609
EndChar

StartChar: k
Encoding: 107 107 64
Width: 348
Flags: HW
HStem: 0 100<400 500> 200 100<200 300> 400 100<400 500> 680 20G<100 200>
VStem: 100 100<0 200 300 700> 300 100<100 200 300 400> 350 150<0 100 400 500>
LayerCount: 2
Back
Fore
SplineSet
57 700 m 13
 76 700 95 700 114 700 c 25
 114 567 114 433 114 300 c 25
 133 300 152 300 171 300 c 25
 171 333 171 367 171 400 c 25
 181 400 190 400 200 400 c 25
 200 433 200 467 200 500 c 25
 229 500 257 500 286 500 c 25
 286 467 286 433 286 400 c 25
 267 400 248 400 229 400 c 25
 229 367 229 333 229 300 c 25
 219 300 210 300 200 300 c 25
 200 267 200 233 200 200 c 25
 210 200 219 200 229 200 c 25
 229 167 229 133 229 100 c 25
 248 100 267 100 286 100 c 25
 286 67 286 33 286 0 c 25
 257 0 229 0 200 0 c 25
 200 33 200 67 200 100 c 25
 190 100 181 100 171 100 c 25
 171 133 171 167 171 200 c 25
 152 200 133 200 114 200 c 25
 114 133 114 67 114 0 c 25
 95 0 76 0 57 0 c 25
 57 233 57 467 57 700 c 13
EndSplineSet
Validated: 8388609
EndChar

StartChar: l
Encoding: 108 108 65
Width: 348
Flags: HW
HStem: 0 100<100 250 350 500> 650 100<150 250>
VStem: 250 100<100 650>
LayerCount: 2
Back
Fore
SplineSet
86 750 m 13
 124 750 162 750 200 750 c 25
 200 533 200 317 200 100 c 25
 229 100 257 100 286 100 c 25
 286 67 286 33 286 0 c 25
 210 0 133 0 57 0 c 25
 57 33 57 67 57 100 c 25
 86 100 114 100 143 100 c 25
 143 283 143 467 143 650 c 25
 124 650 105 650 86 650 c 25
 86 683 86 717 86 750 c 13
EndSplineSet
Validated: 1
EndChar

StartChar: m
Encoding: 109 109 66
Width: 348
Flags: HW
HStem: 0 21G<50 150 250 350 450 550> 400 100<150 250 350 450>
VStem: 50 100<0 400> 250 100<0 400> 450 100<0 400>
CounterMasks: 1 38
LayerCount: 2
Back
Fore
SplineSet
29 0 m 13
 29 167 29 333 29 500 c 25
 115 500 199 500 285 500 c 25
 285 467 286 433 286 400 c 25
 296 400 304 400 314 400 c 25
 314 267 314 133 314 0 c 25
 295 0 276 0 257 0 c 25
 257 133 257 267 257 400 c 25
 238 400 219 400 200 400 c 25
 200 267 200 133 200 0 c 25
 181 0 162 0 143 0 c 25
 143 133 143 267 143 400 c 25
 124 400 105 400 86 400 c 25
 86 267 86 133 86 0 c 25
 67 0 48 0 29 0 c 13
EndSplineSet
Validated: 1
EndChar

StartChar: n
Encoding: 110 110 67
Width: 348
Flags: HW
HStem: 0 21G<100 200 450 550> 300 100<200 250> 400 100<250 450>
VStem: 100 150<300 400> 100 100<0 300 400 500> 450 100<0 400>
LayerCount: 2
Back
Fore
SplineSet
57 0 m 13
 57 167 57 333 57 500 c 25
 76 500 95 500 114 500 c 25
 114 467 114 433 114 400 c 25
 124 400 133 400 143 400 c 25
 143 433 143 467 143 500 c 25
 191 500 238 500 286 500 c 25
 286 467 286 433 286 400 c 25
 296 400 304 400 314 400 c 25
 314 267 314 133 314 0 c 25
 295 0 276 0 257 0 c 25
 257 133 257 267 257 400 c 25
 219 400 181 400 143 400 c 25
 143 367 143 333 143 300 c 25
 133 300 124 300 114 300 c 25
 114 200 114 100 114 0 c 25
 95 0 76 0 57 0 c 13
EndSplineSet
Validated: 8388613
EndChar

StartChar: o
Encoding: 111 111 68
Width: 348
Flags: HW
HStem: 0 100<200 450> 400 100<200 450>
VStem: 100 100<100 400> 450 100<100 400>
LayerCount: 2
Back
Fore
SplineSet
114 400 m 13
 114 300 114 200 114 100 c 25
 162 100 209 100 257 100 c 25
 257 200 257 300 257 400 c 25
 209 400 162 400 114 400 c 13
86 500 m 9
 153 500 219 500 286 500 c 25
 286 467 286 433 286 400 c 25
 296 400 304 400 314 400 c 25
 314 300 314 200 314 100 c 25
 304 100 296 100 286 100 c 25
 286 67 286 33 286 0 c 25
 219 0 153 0 86 0 c 25
 86 33 86 67 86 100 c 25
 76 100 67 100 57 100 c 25
 57 200 57 300 57 400 c 25
 67 400 76 400 86 400 c 25
 86 433 86 467 86 500 c 9
EndSplineSet
Validated: 1
EndChar

StartChar: p
Encoding: 112 112 69
Width: 348
Flags: HW
HStem: -200 21G<100 200> 0 100<250 450> 100 100<200 250> 300 100<200 250> 400 100<250 450>
VStem: 100 150<100 200 300 400> 100 100<-200 100 200 300 400 500> 250 250<0 100 400 500> 450 100<100 400>
LayerCount: 2
Back
Fore
SplineSet
143 300 m 13
 133 300 124 300 114 300 c 25
 114 267 114 233 114 200 c 25
 124 200 133 200 143 200 c 25
 143 167 143 133 143 100 c 25
 181 100 219 100 257 100 c 25
 257 200 257 300 257 400 c 25
 219 400 181 400 143 400 c 25
 143 367 143 333 143 300 c 13
57 500 m 9
 76 500 95 500 114 500 c 25
 114 467 114 433 114 400 c 25
 124 400 133 400 143 400 c 25
 143 433 143 467 143 500 c 25
 191 500 238 500 286 500 c 25
 286 467 286 433 286 400 c 25
 296 400 304 400 314 400 c 25
 314 300 314 200 314 100 c 25
 304 100 296 100 286 100 c 25
 286 67 286 33 286 0 c 25
 238 0 191 0 143 0 c 25
 143 33 143 67 143 100 c 25
 133 100 124 100 114 100 c 25
 114 0 114 -100 114 -200 c 25
 95 -200 76 -200 57 -200 c 25
 57 33 57 267 57 500 c 9
EndSplineSet
Validated: 8388613
EndChar

StartChar: q
Encoding: 113 113 70
Width: 348
Flags: HW
HStem: -200 21G<450 550> 0 100<200 400> 100 100<400 450> 300 100<400 450> 400 100<200 400>
VStem: 100 100<100 400> 150 250<0 100 400 500> 400 150<100 200 300 400> 450 100<-200 100 200 300 400 500>
LayerCount: 2
Back
Fore
SplineSet
114 400 m 13
 114 300 114 200 114 100 c 25
 152 100 191 100 229 100 c 25
 229 133 229 167 229 200 c 25
 239 200 247 200 257 200 c 25
 257 233 257 267 257 300 c 25
 247 300 239 300 229 300 c 25
 229 333 229 367 229 400 c 25
 191 400 152 400 114 400 c 13
86 500 m 9
 134 500 181 500 229 500 c 25
 229 467 229 433 229 400 c 25
 239 400 247 400 257 400 c 25
 257 433 257 467 257 500 c 25
 276 500 295 500 314 500 c 25
 314 267 314 33 314 -200 c 25
 295 -200 276 -200 257 -200 c 25
 257 -100 257 0 257 100 c 25
 247 100 239 100 229 100 c 25
 229 67 229 33 229 0 c 25
 181 0 134 0 86 0 c 25
 86 33 86 67 86 100 c 25
 76 100 67 100 57 100 c 25
 57 200 57 300 57 400 c 25
 67 400 76 400 86 400 c 25
 86 433 86 467 86 500 c 9
EndSplineSet
Validated: 8388613
EndChar

StartChar: r
Encoding: 114 114 71
Width: 348
Flags: HW
HStem: 0 21G<100 200> 300 100<200 300> 400 100<300 550>
VStem: 100 100<0 300 400 500>
LayerCount: 2
Back
Fore
SplineSet
57 0 m 13
 57 167 57 333 57 500 c 25
 76 500 95 500 114 500 c 25
 114 467 114 433 114 400 c 25
 133 400 152 400 171 400 c 25
 171 433 171 467 171 500 c 25
 219 500 266 500 314 500 c 25
 314 467 314 433 314 400 c 25
 266 400 219 400 171 400 c 25
 171 367 171 333 171 300 c 25
 152 300 133 300 114 300 c 25
 114 200 114 100 114 0 c 25
 95 0 76 0 57 0 c 13
EndSplineSet
Validated: 8388613
EndChar

StartChar: s
Encoding: 115 115 72
Width: 348
Flags: HW
HStem: 0 100<150 450> 100 100<500 550> 200 100<200 450> 300 100<100 150> 400 100<200 500>
VStem: 100 100<300 400> 150 350<0 100 200 300 400 500> 450 100<100 200>
LayerCount: 2
Back
Fore
SplineSet
286 400 m 1
 229 400 171 400 114 400 c 1
 114 367 114 333 114 300 c 1
 171 300 229 300 286 300 c 1
 286 267 286 233 286 200 c 25
 296 200 304 200 314 200 c 25
 314 167 314 133 314 100 c 25
 304 100 296 100 286 100 c 25
 286 67 286 33 286 0 c 1
 219 0 153 0 86 0 c 5
 86 33 86 67 86 100 c 1
 143 100 200 100 257 100 c 1
 257 133 257 167 257 200 c 1
 200 200 143 200 86 200 c 1
 86 233 86 267 86 300 c 1
 76 300 67 300 57 300 c 1
 57 333 57 367 57 400 c 1
 67 400 76 400 86 400 c 1
 86 433 86 467 86 500 c 1
 153 500 219 500 286 500 c 1
 286 467 286 433 286 400 c 1
EndSplineSet
Validated: 8388609
EndChar

StartChar: t
Encoding: 116 116 73
Width: 348
Flags: HW
HStem: 0 100<300 550> 400 100<100 200 300 450> 680 20G<200 300>
VStem: 200 100<100 400 500 700>
LayerCount: 2
Back
Fore
SplineSet
114 700 m 9
 133 700 152 700 171 700 c 25
 171 633 171 567 171 500 c 1
 200 500 228 500 257 500 c 5
 257 467 257 433 257 400 c 1
 228 400 200 400 171 400 c 1
 171 300 171 200 171 100 c 25
 219 100 266 100 314 100 c 25
 314 67 314 33 314 0 c 25
 257 0 200 0 143 0 c 25
 143 33 143 67 143 100 c 25
 133 100 124 100 114 100 c 25
 114 200 114 300 114 400 c 25
 95 400 76 400 57 400 c 25
 57 433 57 467 57 500 c 25
 76 500 95 500 114 500 c 25
 114 567 114 633 114 700 c 9
EndSplineSet
Validated: 1
EndChar

StartChar: u
Encoding: 117 117 74
Width: 348
Flags: HW
HStem: 0 100<200 400> 100 100<400 450> 480 20G<100 200 450 550>
VStem: 100 100<100 500> 400 150<100 200> 450 100<0 100 200 500>
LayerCount: 2
Back
Fore
SplineSet
57 500 m 13
 76 500 95 500 114 500 c 25
 114 367 114 233 114 100 c 25
 152 100 191 100 229 100 c 25
 229 133 229 167 229 200 c 25
 239 200 247 200 257 200 c 25
 257 300 257 400 257 500 c 25
 276 500 295 500 314 500 c 25
 314 333 314 167 314 0 c 25
 295 0 276 0 257 0 c 25
 257 33 257 67 257 100 c 25
 247 100 239 100 229 100 c 25
 229 67 229 33 229 0 c 25
 181 0 134 0 86 0 c 25
 86 33 86 67 86 100 c 25
 76 100 67 100 57 100 c 25
 57 233 57 367 57 500 c 13
EndSplineSet
Validated: 8388613
EndChar

StartChar: v
Encoding: 118 118 75
Width: 348
Flags: HW
HStem: 0 21G<250 350> 400 100<50 100 500 550>
VStem: 50 100<400 500> 100 100<300 400> 150 100<200 300> 250 100<0 100> 350 100<200 300> 400 100<300 400> 450 100<400 500>
LayerCount: 2
Back
Fore
SplineSet
29 500 m 13
 48 500 67 500 86 500 c 25
 86 467 86 433 86 400 c 25
 96 400 104 400 114 400 c 25
 114 367 114 333 114 300 c 25
 124 300 133 300 143 300 c 25
 143 267 143 233 143 200 c 25
 162 200 181 200 200 200 c 25
 200 233 200 267 200 300 c 25
 210 300 219 300 229 300 c 25
 229 333 229 367 229 400 c 25
 239 400 247 400 257 400 c 25
 257 433 257 467 257 500 c 25
 276 500 295 500 314 500 c 25
 314 467 314 433 314 400 c 25
 304 400 296 400 286 400 c 25
 286 367 286 333 286 300 c 25
 276 300 267 300 257 300 c 25
 257 267 257 233 257 200 c 25
 247 200 239 200 229 200 c 25
 229 167 229 133 229 100 c 25
 219 100 210 100 200 100 c 25
 200 67 200 33 200 0 c 25
 181 0 162 0 143 0 c 25
 143 33 143 67 143 100 c 25
 133 100 124 100 114 100 c 25
 114 133 114 167 114 200 c 25
 104 200 96 200 86 200 c 25
 86 233 86 267 86 300 c 25
 76 300 67 300 57 300 c 25
 57 333 57 367 57 400 c 25
 47 400 39 400 29 400 c 25
 29 433 29 467 29 500 c 13
EndSplineSet
Validated: 8388609
EndChar

StartChar: w
Encoding: 119 119 76
Width: 348
Flags: HW
HStem: 0 100<200 250 350 400> 480 20G<50 150 450 550>
VStem: 50 100<200 500> 100 100<100 200> 250 100<100 400> 400 100<100 200> 450 100<200 500>
LayerCount: 2
Back
Fore
SplineSet
257 500 m 13
 276 500 295 500 314 500 c 25
 314 400 314 300 314 200 c 25
 304 200 296 200 286 200 c 25
 286 167 286 133 286 100 c 25
 276 100 267 100 257 100 c 25
 257 67 257 33 257 0 c 25
 238 0 219 0 200 0 c 25
 200 33 200 67 200 100 c 25
 181 100 162 100 143 100 c 25
 143 67 143 33 143 0 c 25
 124 0 105 0 86 0 c 25
 86 33 86 67 86 100 c 25
 76 100 67 100 57 100 c 25
 57 133 57 167 57 200 c 25
 47 200 39 200 29 200 c 25
 29 300 29 400 29 500 c 25
 48 500 67 500 86 500 c 25
 86 400 86 300 86 200 c 25
 96 200 104 200 114 200 c 25
 114 167 114 133 114 100 c 25
 124 100 133 100 143 100 c 25
 143 200 143 300 143 400 c 25
 162 400 181 400 200 400 c 25
 200 300 200 200 200 100 c 25
 210 100 219 100 229 100 c 25
 229 133 229 167 229 200 c 25
 239 200 247 200 257 200 c 25
 257 300 257 400 257 500 c 13
EndSplineSet
Validated: 8388613
EndChar

StartChar: x
Encoding: 120 120 77
Width: 348
Flags: HW
HStem: 0 100<50 150 450 550> 200 100<250 350> 400 100<50 150 450 550>
VStem: 50 150<0 100 400 500> 150 100<100 200 300 400> 350 100<100 200 300 400> 400 150<0 100 400 500>
CounterMasks: 1 e0
LayerCount: 2
Back
Fore
SplineSet
29 500 m 13
 58 500 85 500 114 500 c 25
 114 467 114 433 114 400 c 25
 124 400 133 400 143 400 c 25
 143 367 143 333 143 300 c 25
 162 300 181 300 200 300 c 25
 200 333 200 367 200 400 c 25
 210 400 219 400 229 400 c 25
 229 433 229 467 229 500 c 25
 258 500 285 500 314 500 c 25
 314 467 314 433 314 400 c 25
 295 400 276 400 257 400 c 25
 257 367 257 333 257 300 c 25
 247 300 239 300 229 300 c 25
 229 267 229 233 229 200 c 25
 239 200 247 200 257 200 c 25
 257 167 257 133 257 100 c 25
 276 100 295 100 314 100 c 25
 314 67 314 33 314 0 c 25
 285 0 258 0 229 0 c 25
 229 33 229 67 229 100 c 25
 219 100 210 100 200 100 c 25
 200 133 200 167 200 200 c 25
 181 200 162 200 143 200 c 25
 143 167 143 133 143 100 c 25
 133 100 124 100 114 100 c 25
 114 67 114 33 114 0 c 25
 85 0 58 0 29 0 c 25
 29 33 29 67 29 100 c 25
 48 100 67 100 86 100 c 25
 86 133 86 167 86 200 c 25
 96 200 104 200 114 200 c 25
 114 233 114 267 114 300 c 25
 104 300 96 300 86 300 c 25
 86 333 86 367 86 400 c 25
 67 400 48 400 29 400 c 25
 29 433 29 467 29 500 c 13
EndSplineSet
Validated: 8388609
EndChar

StartChar: y
Encoding: 121 121 78
Width: 348
Flags: HW
HStem: -200 100<100 200> 400 100<100 150 500 550>
VStem: 100 100<400 500> 150 100<300 400> 200 100<-100 0 200 300> 250 150<100 200> 250 100<0 100> 350 100<200 300> 400 100<300 400> 450 100<400 500>
LayerCount: 2
Back
Fore
SplineSet
57 500 m 13
 76 500 95 500 114 500 c 25
 114 467 114 433 114 400 c 25
 124 400 133 400 143 400 c 25
 143 367 143 333 143 300 c 25
 153 300 161 300 171 300 c 25
 171 267 171 233 171 200 c 25
 181 200 190 200 200 200 c 25
 200 233 200 267 200 300 c 25
 210 300 219 300 229 300 c 25
 229 333 229 367 229 400 c 25
 239 400 247 400 257 400 c 25
 257 433 257 467 257 500 c 25
 276 500 295 500 314 500 c 25
 314 467 314 433 314 400 c 25
 304 400 296 400 286 400 c 25
 286 367 286 333 286 300 c 25
 276 300 267 300 257 300 c 25
 257 267 257 233 257 200 c 25
 247 200 239 200 229 200 c 25
 229 167 229 133 229 100 c 25
 219 100 210 100 200 100 c 25
 200 67 200 33 200 0 c 25
 190 0 181 0 171 0 c 25
 171 -33 171 -67 171 -100 c 25
 161 -100 153 -100 143 -100 c 25
 143 -133 143 -167 143 -200 c 25
 114 -200 86 -200 57 -200 c 25
 57 -167 57 -133 57 -100 c 25
 76 -100 95 -100 114 -100 c 25
 114 -67 114 -33 114 0 c 25
 124 0 133 0 143 0 c 25
 143 67 143 133 143 200 c 25
 133 200 124 200 114 200 c 25
 114 233 114 267 114 300 c 25
 104 300 96 300 86 300 c 25
 86 333 86 367 86 400 c 25
 76 400 67 400 57 400 c 25
 57 433 57 467 57 500 c 13
EndSplineSet
Validated: 8388609
EndChar

StartChar: z
Encoding: 122 122 79
Width: 348
Flags: HW
HStem: 0 100<100 200 300 500> 400 100<100 300 400 500>
VStem: 200 100<100 200> 250 100<200 300> 300 100<300 400>
LayerCount: 2
Back
Fore
SplineSet
57 500 m 13
 133 500 210 500 286 500 c 25
 286 467 286 433 286 400 c 25
 267 400 248 400 229 400 c 25
 229 367 229 333 229 300 c 25
 219 300 210 300 200 300 c 25
 200 267 200 233 200 200 c 25
 190 200 181 200 171 200 c 25
 171 167 171 133 171 100 c 25
 209 100 248 100 286 100 c 25
 286 67 286 33 286 0 c 25
 210 0 133 0 57 0 c 25
 57 33 57 67 57 100 c 25
 76 100 95 100 114 100 c 25
 114 133 114 167 114 200 c 25
 124 200 133 200 143 200 c 25
 143 233 143 267 143 300 c 25
 153 300 161 300 171 300 c 25
 171 333 171 367 171 400 c 25
 133 400 95 400 57 400 c 25
 57 433 57 467 57 500 c 13
EndSplineSet
Validated: 8388609
EndChar

StartChar: edieresis
Encoding: 235 235 82
Width: 348
Flags: HW
HStem: 0 100<200 500> 200 100<200 450> 400 100<200 450> 600 100<150 250 400 500>
VStem: 100 100<100 200 300 400> 150 100<600 700> 400 100<600 700> 450 100<300 400>
LayerCount: 2
Back
Fore
SplineSet
229 700 m 9
 248 700 267 700 286 700 c 25
 286 667 286 633 286 600 c 25
 267 600 248 600 229 600 c 25
 229 633 229 667 229 700 c 9
86 700 m 9
 105 700 124 700 143 700 c 25
 143 667 143 633 143 600 c 25
 124 600 105 600 86 600 c 25
 86 633 86 667 86 700 c 9
114 400 m 1
 114 367 114 333 114 300 c 1
 162 300 209 300 257 300 c 1
 257 333 257 367 257 400 c 1
 209 400 162 400 114 400 c 1
86 400 m 1
 86 433 86 467 86 500 c 1
 152 500 219 500 285 500 c 1
 285 467 286 433 286 400 c 25
 296 400 304 400 314 400 c 25
 314 333 314 267 314 200 c 1
 247 200 181 200 114 200 c 1
 114 167 114 133 114 100 c 1
 171 100 229 100 286 100 c 1
 286 67 286 33 286 0 c 1
 219 0 153 0 86 0 c 1
 86 33 86 67 86 100 c 1
 76 100 67 100 57 100 c 1
 57 200 57 300 57 400 c 5
 67 400 76 400 86 400 c 1
EndSplineSet
Validated: 8388609
EndChar

StartChar: uni0401
Encoding: 1025 1025 97
Width: 348
Flags: HW
HStem: 0 100<200 550> 300 100<200 450> 500 100<200 550> 700 100<150 250 400 500>
VStem: 100 100<100 300 400 500> 150 100<700 800> 400 100<700 800>
LayerCount: 2
Back
Fore
SplineSet
229 700 m 9
 229 733 229 767 229 800 c 25
 248 800 267 800 286 800 c 25
 286 767 286 733 286 700 c 25
 267 700 248 700 229 700 c 9
86 700 m 9
 86 733 86 767 86 800 c 25
 105 800 124 800 143 800 c 25
 143 767 143 733 143 700 c 25
 124 700 105 700 86 700 c 9
314 500 m 1
 247 500 181 500 114 500 c 1
 114 467 114 433 114 400 c 1
 162 400 209 400 257 400 c 25
 257 367 257 333 257 300 c 25
 209 300 162 300 114 300 c 25
 114 233 114 167 114 100 c 25
 181 100 247 100 314 100 c 25
 314 67 314 33 314 0 c 25
 228 0 143 0 57 0 c 1
 57 200 57 400 57 600 c 1
 143 600 228 600 314 600 c 1
 314 567 314 533 314 500 c 1
EndSplineSet
Validated: 8388609
EndChar

StartChar: uni0402
Encoding: 1026 1026 98
Width: 348
Flags: HW
HStem: 0 100<350 500> 300 100<300 500> 600 100<50 200 300 450>
VStem: 200 100<0 300 400 600> 500 100<100 300>
CounterMasks: 1 e0
LayerCount: 2
Back
Fore
SplineSet
114 0 m 13
 114 200 114 400 114 600 c 25
 85 600 58 600 29 600 c 25
 29 633 29 667 29 700 c 25
 105 700 181 700 257 700 c 25
 257 667 257 633 257 600 c 25
 228 600 200 600 171 600 c 25
 171 533 171 467 171 400 c 25
 219 400 266 400 314 400 c 25
 314 367 314 333 314 300 c 25
 324 300 333 300 343 300 c 25
 343 233 343 167 343 100 c 25
 333 100 324 100 314 100 c 25
 314 67 314 33 314 0 c 25
 276 0 238 0 200 0 c 25
 200 33 200 67 200 100 c 25
 229 100 257 100 286 100 c 25
 286 167 286 233 286 300 c 25
 248 300 209 300 171 300 c 25
 171 200 171 100 171 0 c 25
 152 0 133 0 114 0 c 13
EndSplineSet
Validated: 1
EndChar

StartChar: uni0403
Encoding: 1027 1027 99
Width: 348
Flags: HW
HStem: 0 21G<100 200> 500 100<200 250 350 550> 700 100<350 400>
VStem: 100 100<0 500> 250 100<600 700> 300 100<700 800>
LayerCount: 2
Back
Fore
SplineSet
57 0 m 13
 57 200 57 400 57 600 c 25
 86 600 114 600 143 600 c 25
 143 633 143 667 143 700 c 25
 153 700 161 700 171 700 c 25
 171 733 171 767 171 800 c 25
 190 800 210 800 229 800 c 25
 229 767 229 733 229 700 c 25
 219 700 210 700 200 700 c 25
 200 667 200 633 200 600 c 25
 238 600 276 600 314 600 c 25
 314 567 314 533 314 500 c 25
 247 500 181 500 114 500 c 25
 114 333 114 167 114 0 c 25
 95 0 76 0 57 0 c 13
EndSplineSet
Validated: 8388609
EndChar

StartChar: uni0404
Encoding: 1028 1028 100
Width: 348
Flags: HW
HStem: 0 100<200 400> 100 100<450 500> 300 100<150 350> 500 100<450 500> 600 100<200 400>
VStem: 50 100<200 300 400 500> 100 100<100 200 500 600> 150 300<0 100 600 700> 400 100<100 200 500 600>
LayerCount: 2
Back
Fore
SplineSet
114 500 m 13
 104 500 96 500 86 500 c 25
 86 467 86 433 86 400 c 25
 124 400 162 400 200 400 c 25
 200 367 200 333 200 300 c 25
 162 300 124 300 86 300 c 25
 86 267 86 233 86 200 c 25
 96 200 104 200 114 200 c 25
 114 167 114 133 114 100 c 25
 152 100 191 100 229 100 c 25
 229 133 229 167 229 200 c 25
 248 200 267 200 286 200 c 25
 286 167 286 133 286 100 c 25
 276 100 267 100 257 100 c 25
 257 67 257 33 257 0 c 25
 200 0 143 0 86 0 c 25
 86 33 86 67 86 100 c 25
 76 100 67 100 57 100 c 25
 57 133 57 167 57 200 c 25
 47 200 39 200 29 200 c 25
 29 300 29 400 29 500 c 25
 39 500 47 500 57 500 c 25
 57 533 57 567 57 600 c 25
 67 600 76 600 86 600 c 25
 86 633 86 667 86 700 c 25
 143 700 200 700 257 700 c 25
 257 667 257 633 257 600 c 25
 267 600 276 600 286 600 c 25
 286 567 286 533 286 500 c 25
 267 500 248 500 229 500 c 25
 229 533 229 567 229 600 c 25
 191 600 152 600 114 600 c 25
 114 567 114 533 114 500 c 13
EndSplineSet
Validated: 8388609
EndChar

StartChar: uni0405
Encoding: 1029 1029 101
Width: 348
Flags: HW
HStem: 0 100<150 450> 300 100<200 450> 600 100<200 500>
VStem: 100 100<400 600> 150 350<0 100 300 400 600 700> 450 100<100 300>
CounterMasks: 1 e0
LayerCount: 2
Back
Fore
SplineSet
86 600 m 13
 86 633 86 667 86 700 c 25
 153 700 219 700 286 700 c 25
 286 667 286 633 286 600 c 25
 229 600 171 600 114 600 c 25
 114 533 114 467 114 400 c 25
 171 400 229 400 286 400 c 25
 286 367 286 333 286 300 c 25
 296 300 304 300 314 300 c 25
 314 233 314 167 314 100 c 25
 304 100 296 100 286 100 c 25
 286 67 286 33 286 0 c 25
 219 0 153 0 86 0 c 25
 86 33 86 67 86 100 c 25
 143 100 200 100 257 100 c 25
 257 167 257 233 257 300 c 25
 200 300 143 300 86 300 c 25
 86 333 86 367 86 400 c 25
 76 400 67 400 57 400 c 25
 57 467 57 533 57 600 c 25
 67 600 76 600 86 600 c 13
EndSplineSet
Validated: 8388609
EndChar

StartChar: uni0406
Encoding: 1030 1030 102
Width: 348
Flags: HW
HStem: 0 100<100 250 350 500> 600 100<100 250 350 500>
VStem: 250 100<100 600>
LayerCount: 2
Back
Fore
SplineSet
57 700 m 13
 133 700 210 700 286 700 c 25
 286 667 286 633 286 600 c 25
 257 600 229 600 200 600 c 25
 200 433 200 267 200 100 c 25
 229 100 257 100 286 100 c 25
 286 67 286 33 286 0 c 25
 210 0 133 0 57 0 c 25
 57 33 57 67 57 100 c 25
 86 100 114 100 143 100 c 25
 143 267 143 433 143 600 c 25
 114 600 86 600 57 600 c 25
 57 633 57 667 57 700 c 13
EndSplineSet
Validated: 1
EndChar

StartChar: uni0407
Encoding: 1031 1031 103
Width: 348
Flags: HMW
LayerCount: 2
Back
Fore
SplineSet
200 650 m 13
 200 683 200 717 200 750 c 25
 219 750 238 750 257 750 c 25
 257 717 257 683 257 650 c 25
 238 650 219 650 200 650 c 13
86 650 m 9
 86 683 86 717 86 750 c 25
 105 750 124 750 143 750 c 25
 143 717 143 683 143 650 c 25
 124 650 105 650 86 650 c 9
57 500 m 9
 57 533 57 567 57 600 c 25
 133 600 210 600 286 600 c 25
 286 567 286 533 286 500 c 25
 257 500 229 500 200 500 c 25
 200 367 200 233 200 100 c 25
 229 100 257 100 286 100 c 25
 286 67 286 33 286 0 c 25
 210 0 133 0 57 0 c 25
 57 33 57 67 57 100 c 25
 86 100 114 100 143 100 c 25
 143 233 143 367 143 500 c 25
 114 500 86 500 57 500 c 9
EndSplineSet
Validated: 1
EndChar

StartChar: uni0408
Encoding: 1032 1032 104
Width: 348
Flags: HW
HStem: 0 100<200 450> 100 100<100 150> 680 20G<450 550>
VStem: 100 100<100 200> 450 100<100 700>
LayerCount: 2
Back
Fore
SplineSet
257 700 m 13
 276 700 295 700 314 700 c 25
 314 500 314 300 314 100 c 25
 304 100 296 100 286 100 c 25
 286 67 286 33 286 0 c 25
 219 0 153 0 86 0 c 25
 86 33 86 67 86 100 c 25
 76 100 67 100 57 100 c 25
 57 133 57 167 57 200 c 25
 76 200 95 200 114 200 c 25
 114 167 114 133 114 100 c 25
 162 100 209 100 257 100 c 25
 257 300 257 500 257 700 c 13
EndSplineSet
Validated: 8388609
EndChar

StartChar: uni0409
Encoding: 1033 1033 105
Width: 348
Flags: HW
HStem: 0 100<50 100 400 500> 300 100<400 500> 600 100<200 300>
VStem: 50 100<0 100> 100 100<100 600> 300 250<0 50 300 400> 300 100<100 300 400 600> 500 100<100 300>
CounterMasks: 1 e0
LayerCount: 2
Back
Fore
SplineSet
229 100 m 13
 248 100 267 100 286 100 c 25
 286 167 286 233 286 300 c 25
 267 300 248 300 229 300 c 25
 229 233 229 167 229 100 c 13
29 0 m 9
 29 33 29 67 29 100 c 25
 39 100 47 100 57 100 c 25
 57 267 57 433 57 600 c 25
 67 600 76 600 86 600 c 25
 86 633 86 667 86 700 c 25
 134 700 181 700 229 700 c 25
 229 600 229 500 229 400 c 25
 258 400 285 400 314 400 c 25
 314 367 314 333 314 300 c 25
 324 300 333 300 343 300 c 25
 343 217 343 133 343 50 c 25
 333 50 324 50 314 50 c 25
 314 33 314 17 314 0 c 25
 266 0 219 0 171 0 c 25
 171 200 171 400 171 600 c 25
 152 600 133 600 114 600 c 25
 114 433 114 267 114 100 c 25
 104 100 96 100 86 100 c 25
 86 67 86 33 86 0 c 25
 67 0 48 0 29 0 c 9
EndSplineSet
Validated: 8388609
EndChar

StartChar: uni040A
Encoding: 1034 1034 106
Width: 348
Flags: HW
HStem: 0 21G<50 150 300 550> 300 100<150 300> 680 20G<50 150 300 400>
VStem: 50 100<0 300 400 700> 300 300<50 300> 300 100<400 700>
LayerCount: 2
Back
Fore
SplineSet
29 700 m 13
 48 700 67 700 86 700 c 25
 86 600 86 500 86 400 c 25
 115 400 142 400 171 400 c 25
 171 500 171 600 171 700 c 25
 190 700 210 700 229 700 c 25
 229 600 229 500 229 400 c 25
 258 400 285 400 314 400 c 25
 314 367 314 333 314 300 c 25
 324 300 333 300 343 300 c 25
 343 217 343 133 343 50 c 25
 333 50 324 50 314 50 c 25
 314 33 314 17 314 0 c 25
 266 0 219 0 171 0 c 25
 171 100 171 200 171 300 c 25
 142 300 115 300 86 300 c 25
 86 200 86 100 86 0 c 25
 67 0 48 0 29 0 c 25
 29 233 29 467 29 700 c 13
EndSplineSet
Validated: 8388609
EndChar

StartChar: uni040B
Encoding: 1035 1035 107
Width: 348
Flags: HW
HStem: 0 21G<200 300 500 600> 300 100<300 500> 600 100<50 200 300 450>
VStem: 200 100<0 300 400 600> 500 100<0 300>
LayerCount: 2
Back
Fore
SplineSet
29 600 m 13
 29 633 29 667 29 700 c 25
 105 700 181 700 257 700 c 25
 257 667 257 633 257 600 c 25
 228 600 200 600 171 600 c 25
 171 533 171 467 171 400 c 25
 219 400 266 400 314 400 c 25
 314 367 314 333 314 300 c 25
 324 300 333 300 343 300 c 25
 343 200 343 100 343 0 c 25
 324 0 305 0 286 0 c 25
 286 100 286 200 286 300 c 25
 248 300 209 300 171 300 c 25
 171 200 171 100 171 0 c 25
 152 0 133 0 114 0 c 25
 114 200 114 400 114 600 c 25
 85 600 58 600 29 600 c 13
EndSplineSet
Validated: 1
EndChar

StartChar: uni040C
Encoding: 1036 1036 108
Width: 348
Flags: HW
HStem: 0 100<400 500> 100 100<300 350> 400 100<300 350> 500 100<400 500> 600 100<250 300> 700 100<350 400>
VStem: 100 200<200 400> 100 100<0 200 400 600> 250 100<600 700> 300 100<700 800> 350 150<0 100 500 600>
LayerCount: 2
Back
Fore
SplineSet
57 0 m 13
 57 200 57 400 57 600 c 25
 76 600 95 600 114 600 c 25
 114 533 114 467 114 400 c 25
 124 400 133 400 143 400 c 25
 143 433 143 467 143 500 c 25
 162 500 181 500 200 500 c 25
 200 533 200 567 200 600 c 25
 229 600 257 600 286 600 c 25
 286 567 286 533 286 500 c 25
 267 500 248 500 229 500 c 25
 229 467 229 433 229 400 c 25
 210 400 190 400 171 400 c 25
 171 333 171 267 171 200 c 25
 190 200 210 200 229 200 c 25
 229 167 229 133 229 100 c 25
 248 100 267 100 286 100 c 25
 286 67 286 33 286 0 c 25
 257 0 229 0 200 0 c 25
 200 33 200 67 200 100 c 25
 181 100 162 100 143 100 c 25
 143 133 143 167 143 200 c 25
 133 200 124 200 114 200 c 25
 114 133 114 67 114 0 c 25
 95 0 76 0 57 0 c 13
143 600 m 9
 143 633 143 667 143 700 c 25
 153 700 161 700 171 700 c 25
 171 733 171 767 171 800 c 25
 190 800 210 800 229 800 c 25
 229 767 229 733 229 700 c 25
 219 700 210 700 200 700 c 25
 200 667 200 633 200 600 c 25
 181 600 162 600 143 600 c 9
EndSplineSet
Validated: 8388613
EndChar

StartChar: uni040E
Encoding: 1038 1038 109
Width: 348
Flags: HW
HStem: 0 100<200 450> 100 100<100 150> 300 100<200 450> 680 20G<100 200 450 550> 700 100<300 350>
VStem: 100 100<100 200 400 700> 300 50<700 800> 450 100<100 300 400 700>
CounterMasks: 1 07
LayerCount: 2
Back
Fore
SplineSet
171 700 m 13
 171 733 171 767 171 800 c 25
 181 800 190 800 200 800 c 25
 200 767 200 733 200 700 c 25
 190 700 181 700 171 700 c 13
57 700 m 9
 76 700 95 700 114 700 c 25
 114 600 114 500 114 400 c 25
 162 400 209 400 257 400 c 25
 257 500 257 600 257 700 c 25
 276 700 295 700 314 700 c 25
 314 500 314 300 314 100 c 25
 304 100 296 100 286 100 c 25
 286 67 286 33 286 0 c 25
 219 0 153 0 86 0 c 25
 86 33 86 67 86 100 c 25
 76 100 67 100 57 100 c 25
 57 133 57 167 57 200 c 25
 76 200 95 200 114 200 c 25
 114 167 114 133 114 100 c 25
 162 100 209 100 257 100 c 25
 257 167 257 233 257 300 c 25
 200 300 143 300 86 300 c 25
 86 333 86 367 86 400 c 25
 76 400 67 400 57 400 c 25
 57 500 57 600 57 700 c 9
EndSplineSet
Validated: 8388609
EndChar

StartChar: uni040F
Encoding: 1039 1039 110
Width: 348
Flags: HW
HStem: -200 21G<300 400> 0 100<200 300 400 500> 680 20G<100 200 500 600>
VStem: 100 100<100 700> 300 100<-200 0> 500 100<100 700>
CounterMasks: 1 1c
LayerCount: 2
Back
Fore
SplineSet
57 0 m 13
 57 233 57 467 57 700 c 25
 76 700 95 700 114 700 c 25
 114 500 114 300 114 100 c 25
 171 100 229 100 286 100 c 25
 286 300 286 500 286 700 c 25
 305 700 324 700 343 700 c 25
 343 467 343 233 343 0 c 25
 305 0 267 0 229 0 c 25
 229 -67 229 -133 229 -200 c 25
 210 -200 190 -200 171 -200 c 25
 171 -133 171 -67 171 0 c 25
 133 0 95 0 57 0 c 13
EndSplineSet
Validated: 1
EndChar

StartChar: uni0410
Encoding: 1040 1040 111
Width: 348
Flags: HW
HStem: 0 21G<50 150 450 550> 200 100<150 450> 600 100<250 350>
VStem: 50 100<0 200 300 400> 100 100<400 500> 150 100<500 600> 350 100<500 600> 400 100<400 500> 450 100<0 200 300 400>
LayerCount: 2
Back
Fore
SplineSet
86 400 m 13
 86 367 86 333 86 300 c 25
 143 300 200 300 257 300 c 25
 257 333 257 367 257 400 c 25
 247 400 239 400 229 400 c 25
 229 433 229 467 229 500 c 25
 219 500 210 500 200 500 c 25
 200 533 200 567 200 600 c 25
 181 600 162 600 143 600 c 25
 143 567 143 533 143 500 c 25
 133 500 124 500 114 500 c 25
 114 467 114 433 114 400 c 25
 104 400 96 400 86 400 c 13
86 0 m 9
 67 0 48 0 29 0 c 25
 29 133 29 267 29 400 c 25
 39 400 47 400 57 400 c 25
 57 433 57 467 57 500 c 25
 67 500 76 500 86 500 c 25
 86 533 86 567 86 600 c 25
 96 600 104 600 114 600 c 25
 114 633 114 667 114 700 c 25
 152 700 190 700 228 700 c 25
 228 667 229 633 229 600 c 25
 239 600 247 600 257 600 c 25
 257 567 257 533 257 500 c 25
 267 500 276 500 286 500 c 25
 286 467 286 433 286 400 c 25
 296 400 304 400 314 400 c 25
 314 267 314 133 314 0 c 25
 295 0 276 0 257 0 c 25
 257 67 257 133 257 200 c 25
 200 200 143 200 86 200 c 25
 86 133 86 67 86 0 c 9
EndSplineSet
Validated: 8388609
EndChar

StartChar: uni0411
Encoding: 1041 1041 112
Width: 348
Flags: HW
HStem: 0 100<200 450> 300 100<200 450> 600 100<200 500>
VStem: 100 400<0 100 300 400 600 700> 100 100<100 300 400 600> 450 100<100 300>
CounterMasks: 1 e0
LayerCount: 2
Back
Fore
SplineSet
114 100 m 13
 162 100 209 100 257 100 c 25
 257 167 257 233 257 300 c 25
 209 300 162 300 114 300 c 25
 114 233 114 167 114 100 c 13
57 700 m 9
 133 700 210 700 286 700 c 25
 286 667 286 633 286 600 c 25
 229 600 171 600 114 600 c 25
 114 533 114 467 114 400 c 25
 171 400 229 400 286 400 c 25
 286 367 286 333 286 300 c 25
 296 300 304 300 314 300 c 25
 314 233 314 167 314 100 c 25
 304 100 296 100 286 100 c 25
 286 67 286 33 286 0 c 25
 210 0 133 0 57 0 c 25
 57 233 57 467 57 700 c 9
EndSplineSet
Validated: 8388609
EndChar

StartChar: uni0412
Encoding: 1042 1042 113
Width: 348
Flags: HW
HStem: 0 100<200 450> 300 100<200 450> 600 100<200 450>
VStem: 100 400<0 100 300 400 600 700> 100 100<100 300 400 600> 450 100<100 300 400 600>
CounterMasks: 1 e0
LayerCount: 2
Back
Fore
SplineSet
114 600 m 13
 114 533 114 467 114 400 c 25
 162 400 209 400 257 400 c 25
 257 467 257 533 257 600 c 25
 209 600 162 600 114 600 c 13
114 300 m 9
 114 233 114 167 114 100 c 25
 162 100 209 100 257 100 c 25
 257 167 257 233 257 300 c 25
 209 300 162 300 114 300 c 9
57 0 m 9
 57 233 57 467 57 700 c 25
 133 700 210 700 286 700 c 25
 286 667 286 633 286 600 c 25
 296 600 304 600 314 600 c 25
 314 533 314 467 314 400 c 25
 304 400 296 400 286 400 c 25
 286 367 286 333 286 300 c 25
 296 300 304 300 314 300 c 25
 314 233 314 167 314 100 c 25
 304 100 296 100 286 100 c 25
 286 67 286 33 286 0 c 25
 210 0 133 0 57 0 c 9
EndSplineSet
Validated: 8388609
EndChar

StartChar: uni0413
Encoding: 1043 1043 114
Width: 348
Flags: HW
HStem: 0 21G<100 200> 600 100<200 550>
VStem: 100 100<0 600>
LayerCount: 2
Back
Fore
SplineSet
57 700 m 13
 143 700 228 700 314 700 c 25
 314 667 314 633 314 600 c 25
 247 600 181 600 114 600 c 25
 114 400 114 200 114 0 c 25
 95 0 76 0 57 0 c 25
 57 233 57 467 57 700 c 13
EndSplineSet
Validated: 1
EndChar

StartChar: uni0414
Encoding: 1044 1044 115
Width: 348
Flags: HW
HStem: 0 100<250 400> 600 100<300 400>
VStem: 100 100<-100 0> 150 100<100 500> 200 100<500 600> 400 100<100 600> 450 100<-100 0>
LayerCount: 2
Back
Fore
SplineSet
171 600 m 13
 171 567 171 533 171 500 c 25
 161 500 153 500 143 500 c 25
 143 367 143 233 143 100 c 25
 172 100 200 100 229 100 c 25
 229 267 229 433 229 600 c 25
 210 600 190 600 171 600 c 13
114 500 m 9
 114 533 114 567 114 600 c 25
 124 600 133 600 143 600 c 25
 143 633 143 667 143 700 c 25
 191 700 238 700 286 700 c 25
 286 500 286 300 286 100 c 25
 296 100 304 100 314 100 c 25
 314 33 314 -33 314 -100 c 25
 295 -100 276 -100 257 -100 c 25
 257 -67 257 -33 257 0 c 25
 209 0 162 0 114 0 c 25
 114 -33 114 -67 114 -100 c 25
 95 -100 76 -100 57 -100 c 25
 57 -33 57 33 57 100 c 25
 67 100 76 100 86 100 c 25
 86 233 86 367 86 500 c 25
 96 500 104 500 114 500 c 9
EndSplineSet
Validated: 8388609
EndChar

StartChar: uni0415
Encoding: 1045 1045 116
Width: 348
Flags: HW
HStem: 0 100<200 550> 300 100<200 450> 600 100<200 550>
VStem: 100 100<100 300 400 600>
CounterMasks: 1 e0
LayerCount: 2
Back
Fore
SplineSet
314 600 m 13
 247 600 181 600 114 600 c 29
 114 533 114 467 114 400 c 29
 162 400 209 400 257 400 c 29
 257 367 257 333 257 300 c 29
 209 300 162 300 114 300 c 29
 114 233 114 167 114 100 c 29
 181 100 247 100 314 100 c 29
 314 67 314 33 314 0 c 29
 228 0 143 0 57 0 c 29
 57 233 57 467 57 700 c 29
 143 700 228 700 314 700 c 29
 314 667 314 633 314 600 c 13
EndSplineSet
Validated: 1
EndChar

StartChar: uni0416
Encoding: 1046 1046 117
Width: 348
Flags: HW
HStem: 0 21G<50 150 250 350 450 550> 300 100<200 250 350 400> 680 20G<50 149.1 250 350 450 550>
VStem: 50 100<0 200 500 700> 100 100<200 300 400 500> 250 100<0 300 400 700> 400 100<200 300 400 500> 450 100<0 200 500 700>
LayerCount: 2
Back
Fore
SplineSet
29 700 m 13
 48 700 66 700 85 700 c 25
 85 633 86 567 86 500 c 25
 95 500 105 500 114 500 c 25
 114 467 114 433 114 400 c 25
 124 400 133 400 143 400 c 25
 143 500 143 600 143 700 c 25
 162 700 181 700 200 700 c 25
 200 600 200 500 200 400 c 25
 210 400 219 400 229 400 c 25
 229 433 229 467 229 500 c 25
 239 500 247 500 257 500 c 25
 257 567 257 633 257 700 c 25
 276 700 295 700 314 700 c 25
 314 633 314 567 314 500 c 25
 304 500 296 500 286 500 c 25
 286 467 286 433 286 400 c 25
 276 400 267 400 257 400 c 25
 257 367 257 333 257 300 c 25
 267 300 276 300 286 300 c 25
 286 267 286 233 286 200 c 25
 296 200 304 200 314 200 c 25
 314 133 314 67 314 0 c 25
 295 0 276 0 257 0 c 25
 257 67 257 133 257 200 c 25
 247 200 239 200 229 200 c 25
 229 233 229 267 229 300 c 25
 219 300 210 300 200 300 c 25
 200 200 200 100 200 0 c 25
 181 0 162 0 143 0 c 25
 143 100 143 200 143 300 c 25
 133 300 124 300 114 300 c 25
 114 267 114 233 114 200 c 25
 104 200 96 200 86 200 c 25
 86 133 86 67 86 0 c 25
 67 0 48 0 29 0 c 25
 29 67 29 133 29 200 c 25
 39 200 47 200 57 200 c 25
 57 233 57 267 57 300 c 25
 67 300 76 300 86 300 c 25
 86 333 86 367 86 400 c 25
 76 400 67 400 57 400 c 25
 57 433 57 467 57 500 c 25
 47 500 39 500 29 500 c 25
 29 567 29 633 29 700 c 13
EndSplineSet
Validated: 8388609
EndChar

StartChar: uni0417
Encoding: 1047 1047 118
Width: 348
Flags: HW
HStem: 0 100<200 450> 100 100<100 150> 300 100<250 450> 500 100<100 150> 600 100<200 450>
VStem: 100 100<100 200 500 600> 450 100<100 300 400 600>
LayerCount: 2
Back
Fore
SplineSet
57 500 m 13
 57 533 57 567 57 600 c 1
 67 600 76 600 86 600 c 25
 86 633 86 667 86 700 c 25
 153 700 219 700 286 700 c 25
 286 667 286 633 286 600 c 25
 296 600 304 600 314 600 c 25
 314 533 314 467 314 400 c 25
 304 400 296 400 286 400 c 25
 286 367 286 333 286 300 c 25
 296 300 304 300 314 300 c 25
 314 233 314 167 314 100 c 25
 304 100 296 100 286 100 c 25
 286 67 286 33 286 0 c 25
 219 0 153 0 86 0 c 25
 86 33 86 67 86 100 c 25
 76 100 67 100 57 100 c 25
 57 133 57 167 57 200 c 25
 76 200 95 200 114 200 c 25
 114 167 114 133 114 100 c 25
 162 100 209 100 257 100 c 25
 257 167 257 233 257 300 c 25
 219 300 181 300 143 300 c 25
 143 333 143 367 143 400 c 25
 181 400 219 400 257 400 c 25
 257 467 257 533 257 600 c 25
 209 600 162 600 114 600 c 25
 114 567 114 533 114 500 c 1
 95 500 76 500 57 500 c 13
EndSplineSet
Validated: 8388609
EndChar

StartChar: uni0418
Encoding: 1048 1048 119
Width: 348
Flags: HW
HStem: 0 21G<50 200 450 550> 680 20G<50 150 400 550>
VStem: 50 150<0 100> 50 100<200 700> 200 100<200 300> 250 100<300 400> 300 100<400 500> 400 150<600 700> 450 100<0 500>
LayerCount: 2
Back
Fore
SplineSet
29 700 m 13
 48 700 67 700 86 700 c 29
 86 533 86 367 86 200 c 29
 96 200 104 200 114 200 c 29
 114 233 114 267 114 300 c 29
 124 300 133 300 143 300 c 29
 143 333 143 367 143 400 c 29
 153 400 161 400 171 400 c 29
 171 433 171 467 171 500 c 29
 181 500 190 500 200 500 c 29
 200 533 200 567 200 600 c 29
 210 600 219 600 229 600 c 29
 229 633 229 667 229 700 c 29
 258 700 285 700 314 700 c 29
 314 467 314 233 314 0 c 29
 295 0 276 0 257 0 c 29
 257 167 257 333 257 500 c 29
 247 500 239 500 229 500 c 29
 229 467 229 433 229 400 c 29
 219 400 210 400 200 400 c 29
 200 367 200 333 200 300 c 29
 190 300 181 300 171 300 c 29
 171 267 171 233 171 200 c 29
 161 200 153 200 143 200 c 29
 143 167 143 133 143 100 c 29
 133 100 124 100 114 100 c 29
 114 67 114 33 114 0 c 29
 85 0 58 0 29 0 c 29
 29 233 29 467 29 700 c 13
EndSplineSet
Validated: 8388609
EndChar

StartChar: uni0419
Encoding: 1049 1049 120
Width: 348
Flags: HW
HStem: 0 21G<50 200 450 550> 680 20G<50 150 400 550> 700 100<250 300>
VStem: 50 150<0 100> 50 100<200 700> 200 100<200 300> 250 100<300 400> 250 50<700 800> 300 100<400 500> 400 150<600 700> 450 100<0 500>
LayerCount: 2
Back
Fore
SplineSet
143 700 m 13
 143 733 143 767 143 800 c 25
 153 800 161 800 171 800 c 25
 171 767 171 733 171 700 c 25
 161 700 153 700 143 700 c 13
29 700 m 9
 48 700 67 700 86 700 c 25
 86 533 86 367 86 200 c 25
 96 200 104 200 114 200 c 25
 114 233 114 267 114 300 c 25
 124 300 133 300 143 300 c 25
 143 333 143 367 143 400 c 25
 153 400 161 400 171 400 c 25
 171 433 171 467 171 500 c 25
 181 500 190 500 200 500 c 25
 200 533 200 567 200 600 c 25
 210 600 219 600 229 600 c 25
 229 633 229 667 229 700 c 25
 258 700 285 700 314 700 c 25
 314 467 314 233 314 0 c 25
 295 0 276 0 257 0 c 25
 257 167 257 333 257 500 c 25
 247 500 239 500 229 500 c 25
 229 467 229 433 229 400 c 25
 219 400 210 400 200 400 c 25
 200 367 200 333 200 300 c 25
 190 300 181 300 171 300 c 25
 171 267 171 233 171 200 c 25
 161 200 153 200 143 200 c 25
 143 167 143 133 143 100 c 25
 133 100 124 100 114 100 c 25
 114 67 114 33 114 0 c 25
 85 0 58 0 29 0 c 25
 29 233 29 467 29 700 c 9
EndSplineSet
Validated: 8388609
EndChar

StartChar: uni041A
Encoding: 1050 1050 121
Width: 348
Flags: HW
HStem: 0 100<450 550> 200 100<300 350> 300 100<200 250> 400 100<300 350> 600 100<450 550>
VStem: 100 100<0 300 400 700> 250 150<200 300 400 500> 350 100<100 200 500 600> 400 150<0 100 600 700>
LayerCount: 2
Back
Fore
SplineSet
57 700 m 13
 76 700 95 700 114 700 c 25
 114 600 114 500 114 400 c 25
 124 400 133 400 143 400 c 25
 143 433 143 467 143 500 c 25
 162 500 181 500 200 500 c 25
 200 533 200 567 200 600 c 25
 210 600 219 600 229 600 c 25
 229 633 229 667 229 700 c 25
 258 700 285 700 314 700 c 25
 314 667 314 633 314 600 c 25
 295 600 276 600 257 600 c 25
 257 567 257 533 257 500 c 25
 247 500 239 500 229 500 c 25
 229 467 229 433 229 400 c 25
 210 400 190 400 171 400 c 25
 171 367 171 333 171 300 c 25
 190 300 210 300 229 300 c 25
 229 267 229 233 229 200 c 25
 239 200 247 200 257 200 c 25
 257 167 257 133 257 100 c 25
 276 100 295 100 314 100 c 25
 314 67 314 33 314 0 c 25
 285 0 258 0 229 0 c 25
 229 33 229 67 229 100 c 25
 219 100 210 100 200 100 c 25
 200 133 200 167 200 200 c 25
 181 200 162 200 143 200 c 25
 143 233 143 267 143 300 c 25
 133 300 124 300 114 300 c 25
 114 200 114 100 114 0 c 25
 95 0 76 0 57 0 c 25
 57 233 57 467 57 700 c 13
EndSplineSet
Validated: 8388609
EndChar

StartChar: uni041B
Encoding: 1051 1051 122
Width: 348
Flags: HW
HStem: 0 100<100 150> 600 100<300 450>
VStem: 100 100<0 100> 150 100<100 200> 200 100<200 600> 450 100<0 600>
LayerCount: 2
Back
Fore
SplineSet
57 0 m 13
 57 33 57 67 57 100 c 25
 67 100 76 100 86 100 c 25
 86 133 86 167 86 200 c 25
 96 200 104 200 114 200 c 25
 114 333 114 467 114 600 c 25
 124 600 133 600 143 600 c 25
 143 633 143 667 143 700 c 25
 200 700 257 700 314 700 c 25
 314 467 314 233 314 0 c 25
 295 0 276 0 257 0 c 25
 257 200 257 400 257 600 c 25
 228 600 200 600 171 600 c 25
 171 467 171 333 171 200 c 25
 161 200 153 200 143 200 c 25
 143 167 143 133 143 100 c 25
 133 100 124 100 114 100 c 25
 114 67 114 33 114 0 c 25
 95 0 76 0 57 0 c 13
EndSplineSet
Validated: 8388609
EndChar

StartChar: uni041C
Encoding: 1052 1052 123
Width: 348
Flags: HW
HStem: 0 21G<50 150 450 550> 680 20G<50 200 400 550>
VStem: 50 150<600 700> 50 100<0 500> 250 100<300 400> 400 150<600 700> 450 100<0 500>
LayerCount: 2
Back
Fore
SplineSet
86 0 m 13
 67 0 48 0 29 0 c 25
 29 233 29 467 29 700 c 25
 58 700 85 700 114 700 c 25
 114 667 114 633 114 600 c 25
 124 600 133 600 143 600 c 25
 143 567 143 533 143 500 c 25
 162 500 181 500 200 500 c 25
 200 533 200 567 200 600 c 25
 210 600 219 600 229 600 c 25
 229 633 229 667 229 700 c 25
 258 700 285 700 314 700 c 25
 314 467 314 233 314 0 c 25
 295 0 276 0 257 0 c 25
 257 167 257 333 257 500 c 25
 247 500 239 500 229 500 c 25
 229 467 229 433 229 400 c 25
 219 400 210 400 200 400 c 25
 200 367 200 333 200 300 c 25
 181 300 162 300 143 300 c 25
 143 333 143 367 143 400 c 25
 133 400 124 400 114 400 c 25
 114 433 114 467 114 500 c 25
 104 500 96 500 86 500 c 25
 86 333 86 167 86 0 c 13
EndSplineSet
Validated: 8388609
EndChar

StartChar: uni041D
Encoding: 1053 1053 124
Width: 348
Flags: HW
HStem: 0 21G<100 200 450 550> 300 100<200 450> 680 20G<100 200 450 550>
VStem: 100 100<0 300 400 700> 450 100<0 300 400 700>
LayerCount: 2
Back
Fore
SplineSet
57 700 m 13
 76 700 95 700 114 700 c 25
 114 600 114 500 114 400 c 25
 162 400 209 400 257 400 c 25
 257 500 257 600 257 700 c 25
 276 700 295 700 314 700 c 25
 314 467 314 233 314 0 c 25
 295 0 276 0 257 0 c 25
 257 100 257 200 257 300 c 25
 209 300 162 300 114 300 c 25
 114 200 114 100 114 0 c 25
 95 0 76 0 57 0 c 25
 57 233 57 467 57 700 c 13
EndSplineSet
Validated: 1
EndChar

StartChar: uni041E
Encoding: 1054 1054 125
Width: 348
Flags: HW
HStem: 0 100<200 400> 600 100<200 400>
VStem: 50 100<200 500> 100 100<100 200 500 600> 150 300<0 100 600 700> 400 100<100 200 500 600> 450 100<200 500>
LayerCount: 2
Back
Fore
SplineSet
229 100 m 13
 229 133 229 167 229 200 c 25
 239 200 247 200 257 200 c 25
 257 300 257 400 257 500 c 25
 247 500 239 500 229 500 c 25
 229 533 229 567 229 600 c 25
 191 600 152 600 114 600 c 25
 114 567 114 533 114 500 c 25
 104 500 96 500 86 500 c 25
 86 400 86 300 86 200 c 25
 96 200 104 200 114 200 c 25
 114 167 114 133 114 100 c 25
 152 100 191 100 229 100 c 13
257 0 m 9
 200 0 143 0 86 0 c 25
 86 33 86 67 86 100 c 25
 76 100 67 100 57 100 c 25
 57 133 57 167 57 200 c 25
 47 200 39 200 29 200 c 25
 29 300 29 400 29 500 c 25
 39 500 47 500 57 500 c 25
 57 533 57 567 57 600 c 25
 67 600 76 600 86 600 c 25
 86 633 86 667 86 700 c 25
 143 700 200 700 257 700 c 25
 257 667 257 633 257 600 c 25
 267 600 276 600 286 600 c 25
 286 567 286 533 286 500 c 25
 296 500 304 500 314 500 c 25
 314 400 314 300 314 200 c 25
 304 200 296 200 286 200 c 25
 286 167 286 133 286 100 c 25
 276 100 267 100 257 100 c 25
 257 67 257 33 257 0 c 9
EndSplineSet
Validated: 8388609
EndChar

StartChar: uni041F
Encoding: 1055 1055 126
Width: 348
Flags: HW
HStem: 0 21G<100 200 450 550> 600 100<200 450>
VStem: 100 100<0 600> 450 100<0 600>
LayerCount: 2
Back
Fore
SplineSet
57 700 m 13
 143 700 228 700 314 700 c 25
 314 467 314 233 314 0 c 25
 295 0 276 0 257 0 c 25
 257 200 257 400 257 600 c 25
 209 600 162 600 114 600 c 25
 114 400 114 200 114 0 c 25
 95 0 76 0 57 0 c 25
 57 233 57 467 57 700 c 13
EndSplineSet
Validated: 1
EndChar

StartChar: uni0420
Encoding: 1056 1056 127
Width: 348
Flags: HW
HStem: 0 21G<100 200> 300 100<200 450> 600 100<200 450>
VStem: 100 100<0 300 400 600> 450 100<400 600>
LayerCount: 2
Back
Fore
SplineSet
114 600 m 13
 114 533 114 467 114 400 c 25
 162 400 209 400 257 400 c 25
 257 467 257 533 257 600 c 25
 209 600 162 600 114 600 c 13
57 700 m 9
 133 700 210 700 286 700 c 25
 286 683 286 667 286 650 c 25
 296 650 304 650 314 650 c 25
 314 567 314 483 314 400 c 25
 304 400 296 400 286 400 c 25
 286 367 286 333 286 300 c 25
 229 300 171 300 114 300 c 25
 114 200 114 100 114 0 c 25
 95 0 76 0 57 0 c 25
 57 233 57 467 57 700 c 9
EndSplineSet
Validated: 1
EndChar

StartChar: uni0421
Encoding: 1057 1057 128
Width: 348
Flags: HW
HStem: 0 100<250 450> 100 100<500 550> 500 100<500 550> 600 100<250 450>
VStem: 100 100<200 500> 150 100<100 200 500 600> 200 300<0 100 600 700> 450 100<100 200 500 600>
LayerCount: 2
Back
Fore
SplineSet
114 700 m 13
 171 700 229 700 286 700 c 25
 286 667 286 633 286 600 c 25
 296 600 304 600 314 600 c 25
 314 567 314 533 314 500 c 25
 295 500 276 500 257 500 c 25
 257 533 257 567 257 600 c 25
 219 600 181 600 143 600 c 25
 143 567 143 533 143 500 c 25
 133 500 124 500 114 500 c 25
 114 400 114 300 114 200 c 25
 124 200 133 200 143 200 c 25
 143 167 143 133 143 100 c 25
 181 100 219 100 257 100 c 25
 257 133 257 167 257 200 c 25
 276 200 295 200 314 200 c 25
 314 167 314 133 314 100 c 25
 304 100 296 100 286 100 c 25
 286 67 286 33 286 0 c 25
 229 0 171 0 114 0 c 25
 114 33 114 67 114 100 c 25
 104 100 96 100 86 100 c 25
 86 133 86 167 86 200 c 25
 76 200 67 200 57 200 c 25
 57 300 57 400 57 500 c 25
 67 500 76 500 86 500 c 25
 86 533 86 567 86 600 c 25
 96 600 104 600 114 600 c 25
 114 633 114 667 114 700 c 13
EndSplineSet
Validated: 8388609
EndChar

StartChar: uni0422
Encoding: 1058 1058 129
Width: 348
Flags: HW
HStem: 0 21G<250 350> 600 100<50 250 350 550>
VStem: 250 100<0 600>
LayerCount: 2
Back
Fore
SplineSet
29 700 m 1
 124 700 219 700 314 700 c 5
 314 667 314 633 314 600 c 1
 276 600 238 600 200 600 c 1
 200 400 200 200 200 0 c 25
 181 0 162 0 143 0 c 25
 143 200 143 400 143 600 c 1
 105 600 67 600 29 600 c 1
 29 633 29 667 29 700 c 1
EndSplineSet
Validated: 1
EndChar

StartChar: uni0423
Encoding: 1059 1059 130
Width: 348
Flags: HW
HStem: 0 100<200 450> 100 100<100 150> 300 100<200 450> 680 20G<100 200 450 550>
VStem: 100 100<100 200 400 700> 450 100<100 300 400 700>
LayerCount: 2
Back
Fore
SplineSet
57 700 m 13
 76 700 95 700 114 700 c 25
 114 600 114 500 114 400 c 25
 162 400 209 400 257 400 c 25
 257 500 257 600 257 700 c 25
 276 700 295 700 314 700 c 25
 314 500 314 300 314 100 c 25
 304 100 296 100 286 100 c 25
 286 67 286 33 286 0 c 25
 219 0 153 0 86 0 c 25
 86 33 86 67 86 100 c 25
 76 100 67 100 57 100 c 25
 57 133 57 167 57 200 c 25
 76 200 95 200 114 200 c 25
 114 167 114 133 114 100 c 25
 162 100 209 100 257 100 c 25
 257 167 257 233 257 300 c 25
 200 300 143 300 86 300 c 25
 86 333 86 367 86 400 c 25
 76 400 67 400 57 400 c 25
 57 500 57 600 57 700 c 13
EndSplineSet
Validated: 8388609
EndChar

StartChar: uni0424
Encoding: 1060 1060 131
Width: 348
Flags: HW
HStem: 0 21G<250 350> 100 100<150 250 350 450> 500 100<150 250 350 450> 680 20G<250 350>
VStem: 50 100<200 500> 250 100<0 100 200 500 600 700> 450 100<200 500>
CounterMasks: 1 0e
LayerCount: 2
Back
Fore
SplineSet
200 500 m 13
 200 400 200 300 200 200 c 25
 219 200 238 200 257 200 c 25
 257 300 257 400 257 500 c 25
 238 500 219 500 200 500 c 13
86 500 m 9
 86 400 86 300 86 200 c 25
 105 200 124 200 143 200 c 25
 143 300 143 400 143 500 c 25
 124 500 105 500 86 500 c 9
143 600 m 9
 143 633 143 667 143 700 c 1
 162 700 181 700 200 700 c 25
 200 667 200 633 200 600 c 25
 229 600 257 600 286 600 c 25
 286 567 286 533 286 500 c 25
 296 500 304 500 314 500 c 25
 314 400 314 300 314 200 c 25
 304 200 296 200 286 200 c 25
 286 167 286 133 286 100 c 25
 257 100 229 100 200 100 c 25
 200 67 200 33 200 0 c 25
 181 0 162 0 143 0 c 25
 143 33 143 67 143 100 c 25
 114 100 86 100 57 100 c 25
 57 133 57 167 57 200 c 25
 47 200 39 200 29 200 c 25
 29 300 29 400 29 500 c 25
 39 500 47 500 57 500 c 25
 57 533 57 567 57 600 c 1
 86 600 114 600 143 600 c 9
EndSplineSet
Validated: 1
EndChar

StartChar: uni0425
Encoding: 1061 1061 132
Width: 348
Flags: HW
HStem: 0 100<100 150 450 500> 600 100<100 150 450 500>
VStem: 100 100<0 100 600 700> 150 100<100 200 500 600> 200 200<200 300 400 500> 350 100<100 200 500 600> 400 100<0 100 600 700>
LayerCount: 2
Back
Fore
SplineSet
57 700 m 13
 76 700 95 700 114 700 c 25
 114 667 114 633 114 600 c 25
 124 600 133 600 143 600 c 25
 143 567 143 533 143 500 c 25
 162 500 181 500 200 500 c 25
 200 533 200 567 200 600 c 25
 210 600 219 600 229 600 c 25
 229 633 229 667 229 700 c 25
 248 700 267 700 286 700 c 25
 286 667 286 633 286 600 c 25
 276 600 267 600 257 600 c 25
 257 567 257 533 257 500 c 25
 247 500 239 500 229 500 c 25
 229 467 229 433 229 400 c 25
 219 400 210 400 200 400 c 25
 200 367 200 333 200 300 c 25
 210 300 219 300 229 300 c 25
 229 267 229 233 229 200 c 25
 239 200 247 200 257 200 c 25
 257 167 257 133 257 100 c 25
 267 100 276 100 286 100 c 25
 286 67 286 33 286 0 c 25
 267 0 248 0 229 0 c 25
 229 33 229 67 229 100 c 25
 219 100 210 100 200 100 c 25
 200 133 200 167 200 200 c 25
 181 200 162 200 143 200 c 25
 143 167 143 133 143 100 c 25
 133 100 124 100 114 100 c 25
 114 67 114 33 114 0 c 25
 95 0 76 0 57 0 c 25
 57 33 57 67 57 100 c 25
 67 100 76 100 86 100 c 25
 86 133 86 167 86 200 c 25
 96 200 104 200 114 200 c 25
 114 233 114 267 114 300 c 25
 124 300 133 300 143 300 c 25
 143 333 143 367 143 400 c 25
 133 400 124 400 114 400 c 25
 114 433 114 467 114 500 c 25
 104 500 96 500 86 500 c 25
 86 533 86 567 86 600 c 25
 76 600 67 600 57 600 c 25
 57 633 57 667 57 700 c 13
EndSplineSet
Validated: 8388609
EndChar

StartChar: uni0426
Encoding: 1062 1062 133
Width: 348
Flags: HW
HStem: 0 100<200 350> 680 20G<100 200 350 450>
VStem: 100 100<100 700> 350 100<100 700> 450 100<-100 0>
LayerCount: 2
Back
Fore
SplineSet
57 700 m 13
 76 700 95 700 114 700 c 25
 114 500 114 300 114 100 c 25
 143 100 171 100 200 100 c 25
 200 300 200 500 200 700 c 25
 219 700 238 700 257 700 c 25
 257 500 257 300 257 100 c 25
 276 100 295 100 314 100 c 25
 314 33 314 -33 314 -100 c 25
 295 -100 276 -100 257 -100 c 25
 257 -67 257 -33 257 0 c 25
 190 0 124 0 57 0 c 25
 57 233 57 467 57 700 c 13
EndSplineSet
Validated: 8388609
EndChar

StartChar: uni0427
Encoding: 1063 1063 134
Width: 348
Flags: HW
HStem: 0 21G<450 550> 300 100<250 450> 680 20G<100 200 450 550>
VStem: 100 100<500 700> 150 100<400 500> 450 100<0 300 400 700>
LayerCount: 2
Back
Fore
SplineSet
57 700 m 13
 76 700 95 700 114 700 c 25
 114 633 114 567 114 500 c 25
 124 500 133 500 143 500 c 25
 143 467 143 433 143 400 c 25
 181 400 219 400 257 400 c 25
 257 500 257 600 257 700 c 25
 276 700 295 700 314 700 c 25
 314 467 314 233 314 0 c 25
 295 0 276 0 257 0 c 25
 257 100 257 200 257 300 c 25
 209 300 162 300 114 300 c 25
 114 333 114 367 114 400 c 25
 104 400 96 400 86 400 c 25
 86 433 86 467 86 500 c 25
 76 500 67 500 57 500 c 25
 57 567 57 633 57 700 c 13
EndSplineSet
Validated: 8388609
EndChar

StartChar: uni0428
Encoding: 1064 1064 135
Width: 348
Flags: HW
HStem: 0 100<150 250 350 450> 680 20G<50 150 250 350 450 550>
VStem: 50 100<100 700> 250 100<100 700> 450 100<100 700>
CounterMasks: 1 38
LayerCount: 2
Back
Fore
SplineSet
29 700 m 13
 48 700 67 700 86 700 c 25
 86 500 86 300 86 100 c 25
 105 100 124 100 143 100 c 25
 143 300 143 500 143 700 c 25
 162 700 181 700 200 700 c 25
 200 500 200 300 200 100 c 25
 219 100 238 100 257 100 c 25
 257 300 257 500 257 700 c 25
 276 700 295 700 314 700 c 25
 314 467 314 233 314 0 c 25
 219 0 124 0 29 0 c 25
 29 233 29 467 29 700 c 13
EndSplineSet
Validated: 1
EndChar

StartChar: uni0429
Encoding: 1065 1065 136
Width: 348
Flags: HW
HStem: 0 100<150 250 350 450> 680 20G<50 150 250 350 450 550>
VStem: 50 100<100 700> 250 100<100 700> 450 100<100 700> 500 100<-100 0>
LayerCount: 2
Back
Fore
SplineSet
29 700 m 13
 48 700 67 700 86 700 c 25
 86 500 86 300 86 100 c 25
 105 100 124 100 143 100 c 25
 143 300 143 500 143 700 c 25
 162 700 181 700 200 700 c 25
 200 500 200 300 200 100 c 25
 219 100 238 100 257 100 c 25
 257 300 257 500 257 700 c 25
 276 700 295 700 314 700 c 25
 314 500 314 300 314 100 c 25
 324 100 333 100 343 100 c 25
 343 33 343 -33 343 -100 c 25
 324 -100 305 -100 286 -100 c 25
 286 -67 286 -33 286 0 c 25
 200 0 115 0 29 0 c 25
 29 233 29 467 29 700 c 13
EndSplineSet
Validated: 8388609
EndChar

StartChar: uni042A
Encoding: 1066 1066 137
Width: 348
Flags: HW
HStem: 0 100<250 450> 300 100<250 450> 600 100<50 150>
VStem: 150 100<100 300 400 600> 450 100<100 300>
CounterMasks: 1 e0
LayerCount: 2
Back
Fore
SplineSet
143 300 m 13
 143 233 143 167 143 100 c 25
 181 100 219 100 257 100 c 25
 257 167 257 233 257 300 c 25
 219 300 181 300 143 300 c 13
29 700 m 9
 67 700 105 700 143 700 c 25
 143 600 143 500 143 400 c 25
 191 400 238 400 286 400 c 25
 286 367 286 333 286 300 c 25
 296 300 304 300 314 300 c 25
 314 233 314 167 314 100 c 25
 304 100 296 100 286 100 c 25
 286 67 286 33 286 0 c 25
 219 0 153 0 86 0 c 25
 86 200 86 400 86 600 c 25
 67 600 48 600 29 600 c 25
 29 633 29 667 29 700 c 9
EndSplineSet
Validated: 1
EndChar

StartChar: uni042B
Encoding: 1067 1067 138
Width: 348
Flags: HW
HStem: 0 100<150 300> 300 100<150 300> 680 20G<50 150 450 550>
VStem: 50 300<0 100 300 400> 50 100<100 300 400 700> 300 100<100 300> 450 100<0 700>
LayerCount: 2
Back
Fore
SplineSet
171 300 m 13
 142 300 115 300 86 300 c 25
 86 233 86 167 86 100 c 25
 115 100 142 100 171 100 c 25
 171 167 171 233 171 300 c 13
257 700 m 9
 276 700 295 700 314 700 c 25
 314 467 314 233 314 0 c 25
 295 0 276 0 257 0 c 25
 257 233 257 467 257 700 c 9
29 700 m 9
 48 700 67 700 86 700 c 25
 86 600 86 500 86 400 c 25
 124 400 162 400 200 400 c 25
 200 367 200 333 200 300 c 25
 210 300 219 300 229 300 c 25
 229 233 229 167 229 100 c 25
 219 100 210 100 200 100 c 25
 200 67 200 33 200 0 c 25
 143 0 86 0 29 0 c 25
 29 233 29 467 29 700 c 9
EndSplineSet
Validated: 8388609
EndChar

StartChar: uni042C
Encoding: 1068 1068 139
Width: 348
Flags: HW
HStem: 0 100<250 450> 300 100<250 450> 680 20G<150 249>
VStem: 150 99<100 300 400 700> 450 100<101 300>
LayerCount: 2
Back
Fore
SplineSet
143 100 m 13
 181 100 219 100 257 100 c 25
 257 167 257 233 257 300 c 25
 219 300 181 300 143 300 c 25
 143 233 143 167 143 100 c 13
86 700 m 9
 105 700 123 700 142 700 c 25
 142 600 142 500 142 400 c 25
 190 400 238 400 286 400 c 25
 286 367 286 333 286 300 c 25
 295 300 304 300 313 300 c 25
 313 234 314 167 314 101 c 25
 304 101 296 100 286 100 c 25
 286 67 286 33 286 0 c 25
 219 0 153 0 86 0 c 25
 86 233 86 467 86 700 c 9
EndSplineSet
Validated: 1
EndChar

StartChar: uni042D
Encoding: 1069 1069 140
Width: 348
Flags: HW
HStem: 0 100<200 400> 100 100<100 150> 300 100<250 450> 500 100<100 150> 600 100<200 400>
VStem: 100 100<100 200 500 600> 150 300<0 100 600 700> 400 100<100 200 500 600> 450 100<200 300 400 500>
LayerCount: 2
Back
Fore
SplineSet
57 500 m 13
 57 533 57 567 57 600 c 25
 67 600 76 600 86 600 c 25
 86 633 86 667 86 700 c 25
 143 700 200 700 257 700 c 25
 257 667 257 633 257 600 c 25
 267 600 276 600 286 600 c 25
 286 567 286 533 286 500 c 25
 296 500 304 500 314 500 c 25
 314 400 314 300 314 200 c 25
 304 200 296 200 286 200 c 25
 286 167 286 133 286 100 c 25
 276 100 267 100 257 100 c 25
 257 67 257 33 257 0 c 25
 200 0 143 0 86 0 c 25
 86 33 86 67 86 100 c 25
 76 100 67 100 57 100 c 25
 57 133 57 167 57 200 c 25
 76 200 95 200 114 200 c 25
 114 167 114 133 114 100 c 25
 152 100 191 100 229 100 c 25
 229 133 229 167 229 200 c 25
 239 200 247 200 257 200 c 25
 257 233 257 267 257 300 c 25
 219 300 181 300 143 300 c 25
 143 333 143 367 143 400 c 25
 181 400 219 400 257 400 c 25
 257 433 257 467 257 500 c 25
 247 500 239 500 229 500 c 25
 229 533 229 567 229 600 c 25
 191 600 152 600 114 600 c 25
 114 567 114 533 114 500 c 25
 95 500 76 500 57 500 c 13
EndSplineSet
Validated: 8388609
EndChar

StartChar: uni042E
Encoding: 1070 1070 141
Width: 348
Flags: HW
HStem: 0 100<350 450> 300 100<200 250> 600 100<350 450>
VStem: 100 100<0 300 400 700> 250 100<100 300 400 600> 300 200<0 100 600 700> 450 100<100 600>
CounterMasks: 1 e0
LayerCount: 2
Back
Fore
SplineSet
200 600 m 13
 200 433 200 267 200 100 c 25
 219 100 238 100 257 100 c 25
 257 267 257 433 257 600 c 25
 238 600 219 600 200 600 c 13
57 700 m 9
 76 700 95 700 114 700 c 25
 114 600 114 500 114 400 c 25
 124 400 133 400 143 400 c 25
 143 467 143 533 143 600 c 25
 153 600 161 600 171 600 c 25
 171 633 171 667 171 700 c 25
 209 700 248 700 286 700 c 25
 286 667 286 633 286 600 c 25
 296 600 304 600 314 600 c 25
 314 433 314 267 314 100 c 25
 304 100 296 100 286 100 c 25
 286 67 286 33 286 0 c 25
 248 0 209 0 171 0 c 25
 171 33 171 67 171 100 c 25
 161 100 153 100 143 100 c 25
 143 167 143 233 143 300 c 25
 133 300 124 300 114 300 c 25
 114 200 114 100 114 0 c 25
 95 0 76 0 57 0 c 25
 57 233 57 467 57 700 c 9
EndSplineSet
Validated: 8388609
EndChar

StartChar: uni042F
Encoding: 1071 1071 142
Width: 348
Flags: HW
HStem: 0 100<100 200> 300 100<200 300> 600 100<200 450>
VStem: 100 100<400 600> 200 150<100 200> 450 100<0 200 400 600>
CounterMasks: 1 e0
LayerCount: 2
Back
Fore
SplineSet
114 600 m 13
 114 533 114 467 114 400 c 25
 162 400 209 400 257 400 c 25
 257 467 257 533 257 600 c 25
 209 600 162 600 114 600 c 13
86 700 m 9
 162 700 238 700 314 700 c 25
 314 467 314 233 314 0 c 25
 295 0 276 0 257 0 c 25
 257 67 257 133 257 200 c 25
 238 200 219 200 200 200 c 25
 200 167 200 133 200 100 c 25
 190 100 181 100 171 100 c 25
 171 67 171 33 171 0 c 25
 133 0 95 0 57 0 c 25
 57 33 57 67 57 100 c 25
 76 100 95 100 114 100 c 25
 114 133 114 167 114 200 c 25
 133 200 152 200 171 200 c 25
 171 233 171 267 171 300 c 25
 142 300 115 300 86 300 c 25
 86 333 86 367 86 400 c 25
 76 400 67 400 57 400 c 25
 57 467 57 533 57 600 c 25
 67 600 76 600 86 600 c 25
 86 633 86 667 86 700 c 9
EndSplineSet
Validated: 8388609
EndChar

StartChar: uni0430
Encoding: 1072 1072 143
Width: 348
Flags: HW
HStem: 0 100<150 400 500 549> 100 100<50 100> 200 100<150 400> 400 100<100 400>
VStem: 50 100<100 200> 400 100<100 200 300 400>
LayerCount: 2
Back
Fore
SplineSet
86 200 m 13
 86 167 86 133 86 100 c 25
 134 100 181 100 229 100 c 25
 229 133 229 167 229 200 c 25
 181 200 134 200 86 200 c 13
57 500 m 9
 124 500 190 500 257 500 c 25
 257 467 257 433 257 400 c 25
 267 400 276 400 286 400 c 25
 286 300 286 200 286 100 c 25
 295 100 305 100 314 100 c 25
 314 67 314 33 314 0 c 25
 228 0 143 0 57 0 c 25
 57 33 57 67 57 100 c 25
 47 100 39 100 29 100 c 25
 29 133 29 167 29 200 c 25
 39 200 47 200 57 200 c 25
 57 233 57 267 57 300 c 25
 114 300 172 300 229 300 c 25
 229 333 229 367 229 400 c 25
 172 400 114 400 57 400 c 25
 57 433 57 467 57 500 c 9
EndSplineSet
Validated: 8388609
EndChar

StartChar: uni0431
Encoding: 1073 1073 144
Width: 348
Flags: HW
HStem: 0 100<200 450> 300 200<300 450> 300 100<200 300> 600 100<150 200 300 550>
VStem: 100 100<100 300> 200 100<500 600> 300 150<400 500> 450 100<100 300>
LayerCount: 2
Back
Fore
SplineSet
114 300 m 13
 114 233 114 167 114 100 c 25
 162 100 209 100 257 100 c 25
 257 167 257 233 257 300 c 25
 209 300 162 300 114 300 c 13
86 700 m 9
 162 700 238 700 314 700 c 25
 314 667 314 633 314 600 c 25
 266 600 219 600 171 600 c 25
 171 567 171 533 171 500 c 25
 200 500 228 500 257 500 c 25
 257 467 257 433 257 400 c 25
 267 400 276 400 286 400 c 25
 286 367 286 333 286 300 c 25
 296 300 304 300 314 300 c 25
 314 233 314 167 314 100 c 25
 304 100 296 100 286 100 c 25
 286 67 286 33 286 0 c 25
 219 0 153 0 86 0 c 25
 86 33 86 67 86 100 c 25
 76 100 67 100 57 100 c 25
 57 167 57 233 57 300 c 25
 67 300 76 300 86 300 c 25
 86 333 86 367 86 400 c 25
 115 400 142 400 171 400 c 25
 171 433 171 467 171 500 c 25
 152 500 133 500 114 500 c 25
 114 533 114 567 114 600 c 25
 104 600 96 600 86 600 c 25
 86 633 86 667 86 700 c 9
EndSplineSet
Validated: 8388613
EndChar

StartChar: uni0432
Encoding: 1074 1074 145
Width: 348
Flags: HW
HStem: 0 100<200 450> 100 100<500 550> 200 100<200 450> 300 100<500 550> 400 100<200 450>
VStem: 100 400<0 100 200 300 400 500> 100 100<100 200 300 400> 450 100<100 200 300 400>
LayerCount: 2
Back
Fore
SplineSet
114 200 m 13
 114 167 114 133 114 100 c 25
 162 100 209 100 257 100 c 25
 257 133 257 167 257 200 c 25
 209 200 162 200 114 200 c 13
114 400 m 9
 114 367 114 333 114 300 c 25
 162 300 209 300 257 300 c 25
 257 333 257 367 257 400 c 25
 209 400 162 400 114 400 c 9
57 500 m 9
 133 500 210 500 286 500 c 25
 286 467 286 433 286 400 c 25
 296 400 304 400 314 400 c 25
 314 367 314 333 314 300 c 25
 304 300 296 300 286 300 c 25
 286 267 286 233 286 200 c 25
 296 200 304 200 314 200 c 25
 314 167 314 133 314 100 c 25
 304 100 296 100 286 100 c 25
 286 67 286 33 286 0 c 25
 210 0 133 0 57 0 c 25
 57 167 57 333 57 500 c 9
EndSplineSet
Validated: 8388609
EndChar

StartChar: uni0433
Encoding: 1075 1075 146
Width: 348
Flags: HW
HStem: 0 21G<100 200> 400 100<200 550>
VStem: 100 100<0 400>
LayerCount: 2
Back
Fore
SplineSet
57 0 m 13
 57 167 57 333 57 500 c 25
 143 500 228 500 314 500 c 25
 314 467 314 434 314 401 c 25
 247 401 181 400 114 400 c 25
 114 267 114 133 114 0 c 25
 95 0 76 0 57 0 c 13
EndSplineSet
Validated: 1
EndChar

StartChar: uni0434
Encoding: 1076 1076 147
Width: 348
Flags: HW
HStem: -100 200<50 149 450 550> -1 101<149 150 250 350> 400 100<250 350>
VStem: 50 100<-100 -1> 150 100<100 400> 350 100<100 400> 450 100<-100 0>
LayerCount: 2
Back
Fore
SplineSet
143 400 m 13
 143 300 143 200 143 100 c 25
 162 100 181 100 200 100 c 25
 200 200 200 300 200 400 c 25
 181 400 162 400 143 400 c 13
114 500 m 9
 162 500 209 500 257 500 c 25
 257 367 257 233 257 100 c 25
 276 100 295 100 314 100 c 25
 314 33 314 -33 314 -100 c 25
 295 -100 276 -100 257 -100 c 25
 257 -67 257 -33 257 0 c 25
 200 0 142 -1 85 -1 c 25
 85 -34 86 -67 86 -100 c 25
 67 -100 48 -100 29 -100 c 25
 29 -33 29 33 29 100 c 25
 48 100 67 100 86 100 c 25
 86 200 86 300 86 400 c 25
 96 400 104 400 114 400 c 25
 114 433 114 467 114 500 c 9
EndSplineSet
Validated: 8388609
EndChar

StartChar: uni0435
Encoding: 1077 1077 148
Width: 348
Flags: HW
HStem: 0 100<200 500> 200 100<200 450> 400 100<200 450>
VStem: 100 100<100 200 300 400> 450 100<300 400>
CounterMasks: 1 e0
LayerCount: 2
Back
Fore
SplineSet
114 400 m 1
 114 367 114 333 114 300 c 1
 162 300 209 300 257 300 c 1
 257 333 257 367 257 400 c 1
 209 400 162 400 114 400 c 1
86 400 m 1
 86 433 86 467 86 500 c 1
 152 500 219 500 285 500 c 1
 285 467 286 433 286 400 c 25
 296 400 304 400 314 400 c 25
 314 333 314 267 314 200 c 1
 247 200 181 200 114 200 c 1
 114 167 114 133 114 100 c 1
 171 100 229 100 286 100 c 1
 286 67 286 33 286 0 c 1
 219 0 153 0 86 0 c 1
 86 33 86 67 86 100 c 1
 76 100 67 100 57 100 c 1
 57 200 57 300 57 400 c 5
 67 400 76 400 86 400 c 1
EndSplineSet
Validated: 1
EndChar

StartChar: uni0436
Encoding: 1078 1078 149
Width: 348
Flags: HW
HStem: 0 100<50 100 500 550> 200 100<200 250 350 400> 400 100<50 100 500 550>
VStem: 50 100<0 100 400 500> 100 100<100 200 300 400> 250 100<0 200 300 500> 400 100<100 200 300 400> 450 100<0 100 400 500>
CounterMasks: 1 e0
LayerCount: 2
Back
Fore
SplineSet
29 500 m 13
 48 500 67 500 86 500 c 25
 86 467 86 433 86 400 c 25
 96 400 104 400 114 400 c 25
 114 367 114 333 114 300 c 25
 124 300 133 300 143 300 c 25
 143 367 143 433 143 500 c 25
 162 500 181 500 200 500 c 25
 200 433 200 367 200 300 c 25
 210 300 219 300 229 300 c 25
 229 333 229 367 229 400 c 25
 239 400 247 400 257 400 c 25
 257 433 257 467 257 500 c 25
 276 500 295 500 314 500 c 25
 314 467 314 433 314 400 c 25
 304 400 296 400 286 400 c 25
 286 367 286 333 286 300 c 25
 276 300 267 300 257 300 c 25
 257 267 257 233 257 200 c 25
 267 200 276 200 286 200 c 25
 286 167 286 133 286 100 c 25
 296 100 304 100 314 100 c 25
 314 67 314 33 314 0 c 25
 295 0 276 0 257 0 c 25
 257 33 257 67 257 100 c 25
 247 100 239 100 229 100 c 25
 229 133 229 167 229 200 c 25
 219 200 210 200 200 200 c 25
 200 133 200 67 200 0 c 25
 181 0 162 0 143 0 c 25
 143 67 143 133 143 200 c 25
 133 200 124 200 114 200 c 25
 114 167 114 133 114 100 c 25
 104 100 96 100 86 100 c 25
 86 67 86 33 86 0 c 25
 67 0 48 0 29 0 c 25
 29 33 29 67 29 100 c 25
 39 100 47 100 57 100 c 25
 57 133 57 167 57 200 c 25
 67 200 76 200 86 200 c 25
 86 233 86 267 86 300 c 25
 76 300 67 300 57 300 c 25
 57 333 57 367 57 400 c 25
 47 400 39 400 29 400 c 25
 29 433 29 467 29 500 c 13
EndSplineSet
Validated: 8388609
EndChar

StartChar: uni0437
Encoding: 1079 1079 150
Width: 348
Flags: HW
HStem: 0 100<200 450> 100 100<100 150 500 550> 300 100<100 150 500 550> 400 100<200 450>
VStem: 100 100<100 200 300 400> 450 100<100 200 300 400>
LayerCount: 2
Back
Fore
SplineSet
57 400 m 13
 67 400 76 400 86 400 c 1
 86 433 86 467 86 500 c 25
 153 500 219 500 286 500 c 25
 286 467 286 433 286 400 c 25
 296 400 304 400 314 400 c 25
 314 367 314 333 314 300 c 25
 304 300 296 300 286 300 c 25
 286 267 286 233 286 200 c 25
 296 200 304 200 314 200 c 25
 314 167 314 133 314 100 c 25
 304 100 296 100 286 100 c 25
 286 67 286 33 286 0 c 25
 219 0 153 0 86 0 c 25
 86 33 86 67 86 100 c 25
 76 100 67 100 57 100 c 25
 57 133 57 167 57 200 c 25
 76 200 95 200 114 200 c 25
 114 167 114 133 114 100 c 25
 162 100 209 100 257 100 c 25
 257 133 257 167 257 200 c 25
 228 200 200 200 171 200 c 25
 171 233 171 267 171 300 c 25
 200 300 228 300 257 300 c 25
 257 333 257 367 257 400 c 25
 209 400 162 400 114 400 c 25
 114 367 114 333 114 300 c 25
 95 300 76 300 57 300 c 1
 57 333 57 367 57 400 c 13
EndSplineSet
Validated: 8388609
EndChar

StartChar: uni0438
Encoding: 1080 1080 151
Width: 348
Flags: HW
HStem: 0 100<200 250> 100 100<250 300> 200 100<300 350> 300 100<350 400> 400 100<400 450>
VStem: 100 150<0 100> 100 100<100 500> 250 50<100 200> 300 50<200 300> 350 50<300 400> 400 150<400 500> 450 100<0 400>
LayerCount: 2
Back
Fore
SplineSet
57 0 m 13
 57 167 57 333 57 500 c 5
 76 500 95 500 114 500 c 29
 114 367 114 233 114 100 c 29
 124 100 133 100 143 100 c 29
 143 133 143 167 143 200 c 29
 153 200 161 200 171 200 c 29
 171 233 171 267 171 300 c 29
 181 300 190 300 200 300 c 29
 200 333 200 367 200 400 c 29
 210 400 219 400 229 400 c 29
 229 433 229 467 229 500 c 29
 258 500 285 500 314 500 c 29
 314 333 314 167 314 0 c 29
 295 0 276 0 257 0 c 29
 257 133 257 267 257 400 c 29
 247 400 239 400 229 400 c 29
 229 367 229 333 229 300 c 29
 219 300 210 300 200 300 c 29
 200 267 200 233 200 200 c 29
 190 200 181 200 171 200 c 29
 171 167 171 133 171 100 c 29
 161 100 153 100 143 100 c 29
 143 67 143 33 143 0 c 5
 114 0 86 0 57 0 c 13
EndSplineSet
Validated: 8388613
EndChar

StartChar: uni0439
Encoding: 1081 1081 152
Width: 348
Flags: HW
HStem: 0 100<200 250> 100 100<250 300> 200 100<300 350> 300 100<350 400> 400 100<400 450> 600 100<250 400> 700 100<150 200 450 500>
VStem: 100 100<100 500> 150 100<700 800> 250 50<100 200> 300 50<200 300> 350 50<300 400> 400 100<700 800> 450 100<0 400>
LayerCount: 2
Back
Fore
SplineSet
86 800 m 13
 105 800 124 800 143 800 c 29
 143 767 143 733 143 700 c 29
 172 700 200 700 229 700 c 29
 229 733 229 767 229 800 c 29
 248 800 267 800 286 800 c 29
 286 767 286 733 286 700 c 29
 276 700 267 700 257 700 c 29
 257 667 257 633 257 600 c 29
 209 600 162 600 114 600 c 29
 114 633 114 667 114 700 c 29
 104 700 96 700 86 700 c 29
 86 733 86 767 86 800 c 13
57 0 m 9
 57 167 57 333 57 500 c 1
 76 500 95 500 114 500 c 25
 114 367 114 233 114 100 c 25
 124 100 133 100 143 100 c 25
 143 133 143 167 143 200 c 25
 153 200 161 200 171 200 c 25
 171 233 171 267 171 300 c 25
 181 300 190 300 200 300 c 25
 200 333 200 367 200 400 c 25
 210 400 219 400 229 400 c 25
 229 433 229 467 229 500 c 25
 258 500 285 500 314 500 c 25
 314 333 314 167 314 0 c 25
 295 0 276 0 257 0 c 25
 257 133 257 267 257 400 c 25
 247 400 239 400 229 400 c 25
 229 367 229 333 229 300 c 25
 219 300 210 300 200 300 c 25
 200 267 200 233 200 200 c 25
 190 200 181 200 171 200 c 25
 171 167 171 133 171 100 c 25
 161 100 153 100 143 100 c 25
 143 67 143 33 143 0 c 1
 114 0 86 0 57 0 c 9
EndSplineSet
Validated: 8388613
EndChar

StartChar: uni043A
Encoding: 1082 1082 153
Width: 348
Flags: HW
HStem: 0 100<450 550> 200 100<200 350> 400 100<450 550>
VStem: 100 100<0 200 300 500> 350 100<100 200 300 400> 400 150<0 100 400 500>
CounterMasks: 1 e0
LayerCount: 2
Back
Fore
SplineSet
57 500 m 13
 76 500 95 500 114 500 c 25
 114 433 114 367 114 300 c 25
 143 300 171 300 200 300 c 25
 200 333 200 367 200 400 c 25
 210 400 219 400 229 400 c 25
 229 433 229 467 229 500 c 25
 258 500 285 500 314 500 c 25
 314 467 314 433 314 400 c 25
 295 400 276 400 257 400 c 25
 257 367 257 333 257 300 c 25
 247 300 239 300 229 300 c 25
 229 267 229 233 229 200 c 25
 239 200 247 200 257 200 c 25
 257 167 257 133 257 100 c 25
 276 100 295 100 314 100 c 25
 314 67 314 33 314 0 c 25
 285 0 258 0 229 0 c 25
 229 33 229 67 229 100 c 25
 219 100 210 100 200 100 c 25
 200 133 200 167 200 200 c 25
 171 200 143 200 114 200 c 25
 114 133 114 67 114 0 c 25
 95 0 76 0 57 0 c 25
 57 167 57 333 57 500 c 13
EndSplineSet
Validated: 8388609
EndChar

StartChar: uni043B
Encoding: 1083 1083 154
Width: 348
Flags: HW
HStem: 0 100<100 150> 400 100<250 450>
VStem: 100 100<0 100> 150 100<100 400> 450 100<0 400>
LayerCount: 2
Back
Fore
SplineSet
57 100 m 13
 67 100 76 100 86 100 c 25
 86 200 86 300 86 400 c 25
 96 400 104 400 114 400 c 25
 114 433 114 467 114 500 c 25
 181 500 247 500 314 500 c 25
 314 333 314 167 314 0 c 25
 295 0 276 0 257 0 c 25
 257 133 257 267 257 400 c 25
 219 400 181 400 143 400 c 25
 143 300 143 200 143 100 c 25
 133 100 124 100 114 100 c 25
 114 67 114 33 114 0 c 25
 95 0 76 0 57 0 c 25
 57 33 57 67 57 100 c 13
EndSplineSet
Validated: 8388609
EndChar

StartChar: uni043C
Encoding: 1084 1084 155
Width: 348
Flags: HW
HStem: 0 21G<100 200 450 550> 480 20G<100 250 400 550>
VStem: 100 150<400 500> 100 100<0 300> 250 150<200 300> 400 150<400 500> 450 100<0 300>
LayerCount: 2
Back
Fore
SplineSet
57 0 m 13
 57 167 57 333 57 500 c 25
 86 500 114 500 143 500 c 25
 143 467 143 433 143 400 c 25
 153 400 161 400 171 400 c 25
 171 367 171 333 171 300 c 25
 181 300 190 300 200 300 c 25
 200 333 200 367 200 400 c 25
 210 400 219 400 229 400 c 25
 229 433 229 467 229 500 c 25
 258 500 285 500 314 500 c 25
 314 333 314 167 314 0 c 25
 295 0 276 0 257 0 c 25
 257 100 257 200 257 300 c 25
 247 300 239 300 229 300 c 25
 229 267 229 233 229 200 c 25
 219 200 210 200 200 200 c 25
 200 167 200 133 200 100 c 25
 190 100 181 100 171 100 c 25
 171 133 171 167 171 200 c 25
 161 200 153 200 143 200 c 25
 143 233 143 267 143 300 c 25
 133 300 124 300 114 300 c 25
 114 200 114 100 114 0 c 25
 95 0 76 0 57 0 c 13
EndSplineSet
Validated: 8388609
EndChar

StartChar: uni043D
Encoding: 1085 1085 156
Width: 348
Flags: HW
HStem: 0 21G<100 200 400 500> 200 100<200 400> 480 20G<100 200 400 500>
VStem: 100 100<0 200 300 500> 400 100<0 200 300 500>
LayerCount: 2
Back
Fore
SplineSet
57 500 m 9
 76 500 95 500 114 500 c 25
 114 433 114 367 114 300 c 1
 152 300 191 300 229 300 c 1
 229 367 229 433 229 500 c 5
 248 500 267 500 286 500 c 1
 286 333 286 167 286 0 c 1
 267 0 248 0 229 0 c 1
 229 67 229 133 229 200 c 1
 191 200 152 200 114 200 c 1
 114 133 114 67 114 0 c 25
 95 0 76 0 57 0 c 25
 57 167 57 333 57 500 c 9
EndSplineSet
Validated: 1
EndChar

StartChar: uni043E
Encoding: 1086 1086 157
Width: 348
Flags: HW
HStem: 0 100<200 450> 400 100<200 450>
VStem: 100 100<100 400> 450 100<100 400>
LayerCount: 2
Back
Fore
SplineSet
114 400 m 13
 114 300 114 200 114 100 c 25
 162 100 209 100 257 100 c 25
 257 200 257 300 257 400 c 25
 209 400 162 400 114 400 c 13
86 500 m 9
 153 500 219 500 286 500 c 25
 286 467 286 433 286 400 c 25
 296 400 304 400 314 400 c 25
 314 300 314 200 314 100 c 25
 304 100 296 100 286 100 c 25
 286 67 286 33 286 0 c 25
 219 0 153 0 86 0 c 25
 86 33 86 67 86 100 c 25
 76 100 67 100 57 100 c 25
 57 200 57 300 57 400 c 25
 67 400 76 400 86 400 c 25
 86 433 86 467 86 500 c 9
EndSplineSet
Validated: 1
EndChar

StartChar: uni043F
Encoding: 1087 1087 158
Width: 348
Flags: HW
HStem: 0 21G<100 200 450 550> 400 100<200 450>
VStem: 100 100<0 400> 450 100<0 400>
LayerCount: 2
Back
Fore
SplineSet
57 0 m 13
 57 167 57 333 57 500 c 25
 143 500 228 500 314 500 c 25
 314 333 314 167 314 0 c 25
 295 0 276 0 257 0 c 25
 257 133 257 267 257 400 c 25
 209 400 162 400 114 400 c 25
 114 267 114 133 114 0 c 25
 95 0 76 0 57 0 c 13
EndSplineSet
Validated: 1
EndChar

StartChar: uni0440
Encoding: 1088 1088 159
Width: 348
Flags: HW
HStem: -200 21G<100 200> 0 100<250 450> 100 100<200 250> 300 100<200 250> 400 100<250 450>
VStem: 100 150<100 200 300 400> 100 100<-200 100 200 300 400 500> 250 250<0 100 400 500> 450 100<100 400>
LayerCount: 2
Back
Fore
SplineSet
143 300 m 13
 133 300 124 300 114 300 c 25
 114 267 114 233 114 200 c 25
 124 200 133 200 143 200 c 25
 143 167 143 133 143 100 c 25
 181 100 219 100 257 100 c 25
 257 200 257 300 257 400 c 25
 219 400 181 400 143 400 c 25
 143 367 143 333 143 300 c 13
57 500 m 9
 76 500 95 500 114 500 c 25
 114 467 114 433 114 400 c 25
 124 400 133 400 143 400 c 25
 143 433 143 467 143 500 c 25
 191 500 238 500 286 500 c 25
 286 467 286 433 286 400 c 25
 296 400 304 400 314 400 c 25
 314 300 314 200 314 100 c 25
 304 100 296 100 286 100 c 25
 286 67 286 33 286 0 c 25
 238 0 191 0 143 0 c 25
 143 33 143 67 143 100 c 25
 133 100 124 100 114 100 c 25
 114 0 114 -100 114 -200 c 25
 95 -200 76 -200 57 -200 c 25
 57 33 57 267 57 500 c 9
EndSplineSet
Validated: 8388613
EndChar

StartChar: uni0441
Encoding: 1089 1089 160
Width: 348
Flags: HW
HStem: 0 100<250 550> 200 100<100 150> 400 100<250 550>
VStem: 100 100<200 300> 150 100<100 200 300 400>
CounterMasks: 1 e0
LayerCount: 2
Back
Fore
SplineSet
114 500 m 13
 181 500 247 500 314 500 c 25
 314 467 314 433 314 400 c 25
 257 400 200 400 143 400 c 25
 143 367 143 333 143 300 c 25
 133 300 124 300 114 300 c 25
 114 267 114 233 114 200 c 25
 124 200 133 200 143 200 c 25
 143 167 143 133 143 100 c 25
 200 100 257 100 314 100 c 25
 314 67 314 33 314 0 c 25
 247 0 181 0 114 0 c 25
 114 33 114 67 114 100 c 25
 104 100 96 100 86 100 c 25
 86 133 86 167 86 200 c 25
 76 200 67 200 57 200 c 25
 57 233 57 267 57 300 c 25
 67 300 76 300 86 300 c 25
 86 333 86 367 86 400 c 25
 96 400 104 400 114 400 c 25
 114 433 114 467 114 500 c 13
EndSplineSet
Validated: 8388609
EndChar

StartChar: uni0442
Encoding: 1090 1090 161
Width: 348
Flags: HW
HStem: 0 21G<250 350> 400 100<50 250 350 550>
VStem: 250 100<0 400>
LayerCount: 2
Back
Fore
SplineSet
29 500 m 1
 124 500 219 500 314 500 c 1
 314 467 314 433 314 400 c 5
 276 400 238 400 200 400 c 1
 200 267 200 133 200 0 c 25
 181 0 162 0 143 0 c 25
 143 133 143 267 143 400 c 1
 105 400 67 400 29 400 c 1
 29 433 29 467 29 500 c 1
EndSplineSet
Validated: 1
EndChar

StartChar: uni0443
Encoding: 1091 1091 162
Width: 348
Flags: HW
HStem: -200 100<100 200> 400 100<100 150 500 550>
VStem: 100 100<400 500> 150 100<300 400> 200 100<-100 0 200 300> 250 150<100 200> 250 100<0 100> 350 100<200 300> 400 100<300 400> 450 100<400 500>
LayerCount: 2
Back
Fore
SplineSet
57 500 m 13
 76 500 95 500 114 500 c 25
 114 467 114 433 114 400 c 25
 124 400 133 400 143 400 c 25
 143 367 143 333 143 300 c 25
 153 300 161 300 171 300 c 25
 171 267 171 233 171 200 c 25
 181 200 190 200 200 200 c 25
 200 233 200 267 200 300 c 25
 210 300 219 300 229 300 c 25
 229 333 229 367 229 400 c 25
 239 400 247 400 257 400 c 25
 257 433 257 467 257 500 c 25
 276 500 295 500 314 500 c 25
 314 467 314 433 314 400 c 25
 304 400 296 400 286 400 c 25
 286 367 286 333 286 300 c 25
 276 300 267 300 257 300 c 25
 257 267 257 233 257 200 c 25
 247 200 239 200 229 200 c 25
 229 167 229 133 229 100 c 25
 219 100 210 100 200 100 c 25
 200 67 200 33 200 0 c 25
 190 0 181 0 171 0 c 25
 171 -33 171 -67 171 -100 c 25
 161 -100 153 -100 143 -100 c 25
 143 -133 143 -167 143 -200 c 25
 114 -200 86 -200 57 -200 c 25
 57 -167 57 -133 57 -100 c 25
 76 -100 95 -100 114 -100 c 25
 114 -67 114 -33 114 0 c 25
 124 0 133 0 143 0 c 25
 143 67 143 133 143 200 c 25
 133 200 124 200 114 200 c 25
 114 233 114 267 114 300 c 25
 104 300 96 300 86 300 c 25
 86 333 86 367 86 400 c 25
 76 400 67 400 57 400 c 25
 57 433 57 467 57 500 c 13
EndSplineSet
Validated: 8388609
EndChar

StartChar: uni0444
Encoding: 1092 1092 163
Width: 348
Flags: HW
HStem: -200 21G<250 350> 0 100<150 250 350 450> 400 100<150 250 350 450> 680 20G<250 350>
VStem: 50 100<100 400> 250 100<-200 0 100 400 500 700> 450 100<100 400>
CounterMasks: 1 0e
LayerCount: 2
Back
Fore
SplineSet
143 400 m 13
 124 400 105 400 86 400 c 25
 86 300 86 200 86 100 c 25
 105 100 124 100 143 100 c 25
 143 200 143 300 143 400 c 13
200 400 m 9
 200 300 200 200 200 100 c 25
 219 100 238 100 257 100 c 25
 257 200 257 300 257 400 c 25
 238 400 219 400 200 400 c 9
143 700 m 9
 162 700 181 700 200 700 c 25
 200 633 200 567 200 500 c 25
 229 500 257 500 286 500 c 25
 286 467 286 433 286 400 c 25
 296 400 304 400 314 400 c 25
 314 300 314 200 314 100 c 25
 304 100 296 100 286 100 c 25
 286 67 286 33 286 0 c 25
 257 0 229 0 200 0 c 25
 200 -67 200 -133 200 -200 c 25
 181 -200 162 -200 143 -200 c 25
 143 -133 143 -67 143 0 c 25
 114 0 86 0 57 0 c 25
 57 33 57 67 57 100 c 25
 47 100 39 100 29 100 c 25
 29 200 29 300 29 400 c 25
 39 400 47 400 57 400 c 25
 57 433 57 467 57 500 c 25
 86 500 114 500 143 500 c 25
 143 567 143 633 143 700 c 9
EndSplineSet
Validated: 1
EndChar

StartChar: uni0445
Encoding: 1093 1093 164
Width: 348
Flags: HW
HStem: 0 100<50 150 450 550> 200 100<250 350> 400 100<50 150 450 550>
VStem: 50 150<0 100 400 500> 150 100<100 200 300 400> 350 100<100 200 300 400> 400 150<0 100 400 500>
CounterMasks: 1 e0
LayerCount: 2
Back
Fore
SplineSet
29 500 m 13
 58 500 85 500 114 500 c 25
 114 467 114 433 114 400 c 25
 124 400 133 400 143 400 c 25
 143 367 143 333 143 300 c 25
 162 300 181 300 200 300 c 25
 200 333 200 367 200 400 c 25
 210 400 219 400 229 400 c 25
 229 433 229 467 229 500 c 25
 258 500 285 500 314 500 c 25
 314 467 314 433 314 400 c 25
 295 400 276 400 257 400 c 25
 257 367 257 333 257 300 c 25
 247 300 239 300 229 300 c 25
 229 267 229 233 229 200 c 25
 239 200 247 200 257 200 c 25
 257 167 257 133 257 100 c 25
 276 100 295 100 314 100 c 25
 314 67 314 33 314 0 c 25
 285 0 258 0 229 0 c 25
 229 33 229 67 229 100 c 25
 219 100 210 100 200 100 c 25
 200 133 200 167 200 200 c 25
 181 200 162 200 143 200 c 25
 143 167 143 133 143 100 c 25
 133 100 124 100 114 100 c 25
 114 67 114 33 114 0 c 25
 85 0 58 0 29 0 c 25
 29 33 29 67 29 100 c 25
 48 100 67 100 86 100 c 25
 86 133 86 167 86 200 c 25
 96 200 104 200 114 200 c 25
 114 233 114 267 114 300 c 25
 104 300 96 300 86 300 c 25
 86 333 86 367 86 400 c 25
 67 400 48 400 29 400 c 25
 29 433 29 467 29 500 c 13
EndSplineSet
Validated: 8388609
EndChar

StartChar: uni0446
Encoding: 1094 1094 165
Width: 348
Flags: HW
HStem: 0 100<200 350> 480 20G<100 200 350 450>
VStem: 100 100<100 500> 350 100<100 500> 450 100<-100 0>
LayerCount: 2
Back
Fore
SplineSet
57 500 m 13
 76 500 95 500 114 500 c 25
 114 367 114 233 114 100 c 25
 143 100 171 100 200 100 c 25
 200 233 200 367 200 500 c 25
 219 500 238 500 257 500 c 25
 257 367 257 233 257 100 c 25
 276 100 295 100 314 100 c 25
 314 33 314 -33 314 -100 c 25
 295 -100 276 -100 257 -100 c 25
 257 -67 257 -33 257 0 c 25
 190 0 124 0 57 0 c 25
 57 167 57 333 57 500 c 13
EndSplineSet
Validated: 8388609
EndChar

StartChar: uni0447
Encoding: 1095 1095 166
Width: 348
Flags: HW
HStem: 0 21G<450 550> 200 100<200 450> 480 20G<100 200 450 550>
VStem: 100 100<300 500> 450 100<0 200 300 500>
LayerCount: 2
Back
Fore
SplineSet
57 500 m 13
 76 500 95 500 114 500 c 25
 114 433 114 367 114 300 c 25
 162 300 209 300 257 300 c 25
 257 367 257 433 257 500 c 25
 276 500 295 500 314 500 c 25
 314 333 314 167 314 0 c 25
 295 0 276 0 257 0 c 25
 257 67 257 133 257 200 c 25
 200 200 143 200 86 200 c 25
 86 233 86 267 86 300 c 25
 76 300 67 300 57 300 c 25
 57 367 57 433 57 500 c 13
EndSplineSet
Validated: 1
EndChar

StartChar: uni0448
Encoding: 1096 1096 167
Width: 348
Flags: HW
HStem: 0 100<150 250 350 450> 480 20G<50 150 250 350 450 550>
VStem: 50 100<100 500> 250 100<100 500> 450 100<100 500>
CounterMasks: 1 38
LayerCount: 2
Back
Fore
SplineSet
29 500 m 13
 48 500 67 500 86 500 c 25
 86 367 86 233 86 100 c 25
 105 100 124 100 143 100 c 25
 143 233 143 367 143 500 c 25
 162 500 181 500 200 500 c 25
 200 367 200 233 200 100 c 25
 219 100 238 100 257 100 c 25
 257 233 257 367 257 500 c 25
 276 500 295 500 314 500 c 25
 314 333 314 167 314 0 c 25
 219 0 124 0 29 0 c 25
 29 167 29 333 29 500 c 13
EndSplineSet
Validated: 1
EndChar

StartChar: uni0449
Encoding: 1097 1097 168
Width: 348
Flags: HW
HStem: 0 100<150 250 350 450> 480 20G<50 150 250 350 450 550>
VStem: 50 100<100 500> 250 100<100 500> 450 100<100 500> 500 100<-100 0>
LayerCount: 2
Back
Fore
SplineSet
29 500 m 13
 48 500 67 500 86 500 c 25
 86 367 86 233 86 100 c 25
 105 100 124 100 143 100 c 25
 143 233 143 367 143 500 c 25
 162 500 181 500 200 500 c 25
 200 367 200 233 200 100 c 25
 219 100 238 100 257 100 c 25
 257 233 257 367 257 500 c 25
 276 500 295 500 314 500 c 25
 314 367 314 233 314 100 c 25
 324 100 333 100 343 100 c 25
 343 33 343 -33 343 -100 c 25
 324 -100 305 -100 286 -100 c 25
 286 -67 286 -33 286 0 c 25
 200 0 115 0 29 0 c 25
 29 167 29 333 29 500 c 13
EndSplineSet
Validated: 8388609
EndChar

StartChar: uni044A
Encoding: 1098 1098 169
Width: 348
Flags: HW
HStem: 0 100<250 450> 100 100<500 550> 200 100<250 450> 400 100<50 150>
VStem: 150 100<100 200 300 400> 450 100<100 200>
LayerCount: 2
Back
Fore
SplineSet
143 200 m 13
 143 167 143 133 143 100 c 25
 181 100 219 100 257 100 c 25
 257 133 257 167 257 200 c 25
 219 200 181 200 143 200 c 13
29 500 m 9
 67 500 105 500 143 500 c 25
 143 433 143 367 143 300 c 25
 191 300 238 300 286 300 c 25
 286 267 286 233 286 200 c 25
 296 200 304 200 314 200 c 25
 314 167 314 133 314 100 c 25
 304 100 296 100 286 100 c 25
 286 67 286 33 286 0 c 25
 219 0 153 0 86 0 c 25
 86 133 86 267 86 400 c 25
 67 400 48 400 29 400 c 25
 29 433 29 467 29 500 c 9
EndSplineSet
Validated: 8388609
EndChar

StartChar: uni044B
Encoding: 1099 1099 170
Width: 348
Flags: HW
HStem: 0 100<150 300> 100 100<350 400> 200 100<150 300> 480 20G<50 150 450 550>
VStem: 50 300<0 100 200 300> 50 100<100 200 300 500> 300 100<100 200> 450 100<0 500>
LayerCount: 2
Back
Fore
SplineSet
257 0 m 13
 257 167 257 333 257 500 c 25
 276 500 295 500 314 500 c 25
 314 333 314 167 314 0 c 25
 295 0 276 0 257 0 c 13
86 200 m 9
 86 167 86 133 86 100 c 25
 115 100 142 100 171 100 c 25
 171 133 171 167 171 200 c 25
 142 200 115 200 86 200 c 9
29 500 m 9
 48 500 67 500 86 500 c 25
 86 433 86 367 86 300 c 25
 124 300 162 300 200 300 c 25
 200 267 200 233 200 200 c 25
 210 200 219 200 229 200 c 25
 229 167 229 133 229 100 c 25
 219 100 210 100 200 100 c 25
 200 67 200 33 200 0 c 25
 143 0 86 0 29 0 c 25
 29 167 29 333 29 500 c 9
EndSplineSet
Validated: 8388609
EndChar

StartChar: uni044C
Encoding: 1100 1100 171
Width: 348
Flags: HW
HStem: 0 100<200 450> 100 100<500 550> 200 100<200 450> 480 20G<100 200>
VStem: 100 100<100 200 300 500> 450 100<100 200>
LayerCount: 2
Back
Fore
SplineSet
114 100 m 1
 162 100 209 100 257 100 c 1
 257 133 257 167 257 200 c 1
 209 200 162 200 114 200 c 1
 114 167 114 133 114 100 c 1
57 500 m 1
 76 500 95 500 114 500 c 1
 114 433 114 367 114 300 c 5
 171 300 229 300 286 300 c 1
 286 267 286 233 286 200 c 25
 296 200 304 200 314 200 c 25
 314 167 314 133 314 100 c 25
 304 100 296 100 286 100 c 25
 286 67 286 33 286 0 c 1
 210 0 133 0 57 0 c 1
 57 167 57 333 57 500 c 1
EndSplineSet
Validated: 8388609
EndChar

StartChar: uni044D
Encoding: 1101 1101 172
Width: 348
Flags: HW
HStem: 0 100<200 450> 100 100<100 150> 200 100<300 450> 300 100<100 150> 400 100<200 450>
VStem: 100 100<100 200 300 400> 450 100<100 200 300 400>
LayerCount: 2
Back
Fore
SplineSet
57 300 m 13
 57 333 57 367 57 400 c 25
 67 400 76 400 86 400 c 25
 86 433 86 467 86 500 c 25
 153 500 219 500 286 500 c 25
 286 467 286 433 286 400 c 25
 296 400 304 400 314 400 c 25
 314 300 314 200 314 100 c 25
 304 100 296 100 286 100 c 25
 286 67 286 33 286 0 c 25
 219 0 153 0 86 0 c 25
 86 33 86 67 86 100 c 25
 76 100 67 100 57 100 c 25
 57 133 57 167 57 200 c 25
 76 200 95 200 114 200 c 25
 114 167 114 133 114 100 c 25
 162 100 209 100 257 100 c 25
 257 133 257 167 257 200 c 25
 228 200 200 200 171 200 c 25
 171 233 171 267 171 300 c 25
 200 300 228 300 257 300 c 25
 257 333 257 367 257 400 c 25
 209 400 162 400 114 400 c 25
 114 367 114 333 114 300 c 25
 95 300 76 300 57 300 c 13
EndSplineSet
Validated: 8388609
EndChar

StartChar: uni044E
Encoding: 1102 1102 173
Width: 348
Flags: HW
HStem: 0 100<350 450> 200 100<200 250> 400 100<350 450>
VStem: 100 100<0 200 300 500> 250 100<100 200 300 400> 300 200<0 100 400 500> 450 100<100 400>
CounterMasks: 1 e0
LayerCount: 2
Back
Fore
SplineSet
200 100 m 13
 219 100 238 100 257 100 c 25
 257 200 257 300 257 400 c 25
 238 400 219 400 200 400 c 25
 200 300 200 200 200 100 c 13
57 0 m 9
 57 167 57 333 57 500 c 25
 76 500 95 500 114 500 c 25
 114 433 114 367 114 300 c 25
 124 300 133 300 143 300 c 25
 143 333 143 367 143 400 c 25
 153 400 161 400 171 400 c 25
 171 433 171 467 171 500 c 25
 209 500 248 500 286 500 c 25
 286 467 286 433 286 400 c 25
 296 400 304 400 314 400 c 25
 314 300 314 200 314 100 c 25
 304 100 296 100 286 100 c 25
 286 67 286 33 286 0 c 25
 248 0 209 0 171 0 c 25
 171 33 171 67 171 100 c 25
 161 100 153 100 143 100 c 25
 143 133 143 167 143 200 c 25
 133 200 124 200 114 200 c 25
 114 133 114 67 114 0 c 25
 95 0 76 0 57 0 c 9
EndSplineSet
Validated: 8388609
EndChar

StartChar: uni044F
Encoding: 1103 1103 174
Width: 348
Flags: HW
HStem: 0 100<100 200> 200 100<150 200 350 400> 300 100<50 100> 400 100<150 400>
VStem: 50 100<300 400> 100 150<0 100> 200 150<100 200> 400 100<0 200 300 400>
LayerCount: 2
Back
Fore
SplineSet
86 400 m 13
 86 367 86 333 86 300 c 25
 134 300 181 300 229 300 c 25
 229 333 229 367 229 400 c 25
 181 400 134 400 86 400 c 13
29 400 m 9
 39 400 47 400 57 400 c 25
 57 433 57 467 57 500 c 25
 133 500 210 500 286 500 c 25
 286 333 286 167 286 0 c 25
 267 0 248 0 229 0 c 25
 229 67 229 133 229 200 c 25
 219 200 210 200 200 200 c 25
 200 167 200 133 200 100 c 25
 181 100 162 100 143 100 c 25
 143 67 143 33 143 0 c 25
 114 0 86 0 57 0 c 25
 57 33 57 67 57 100 c 25
 76 100 95 100 114 100 c 25
 114 133 114 167 114 200 c 25
 95 200 76 200 57 200 c 25
 57 233 57 267 57 300 c 25
 47 300 39 300 29 300 c 25
 29 333 29 367 29 400 c 9
EndSplineSet
Validated: 8388609
EndChar

StartChar: uni2116
Encoding: 8470 8470 175
Width: 348
Flags: HW
HStem: 0 21G<0 100 200 300> 200 100<350 600> 400 100<450 500> 500 100<350 400 550 600> 600 100<450 500>
VStem: 0 150<400 600> 0 100<0 250 600 700> 150 150<100 250> 200 100<0 100 400 700> 350 100<500 600> 400 150<400 500 600 700> 500 100<500 600>
LayerCount: 2
Back
Fore
SplineSet
200 300 m 13
 248 300 295 300 343 300 c 25
 343 267 343 233 343 200 c 25
 295 200 248 200 200 200 c 25
 200 233 200 267 200 300 c 13
257 600 m 9
 257 567 257 533 257 500 c 25
 267 500 276 500 286 500 c 25
 286 533 286 567 286 600 c 25
 276 600 267 600 257 600 c 9
229 600 m 9
 229 633 229 667 229 700 c 25
 258 700 285 700 314 700 c 25
 314 667 314 633 314 600 c 25
 324 600 333 600 343 600 c 25
 343 567 343 533 343 500 c 25
 333 500 324 500 314 500 c 25
 314 467 314 433 314 400 c 25
 285 400 258 400 229 400 c 25
 229 433 229 467 229 500 c 25
 219 500 210 500 200 500 c 25
 200 533 200 567 200 600 c 25
 210 600 219 600 229 600 c 9
0 0 m 9
 0 233 0 467 0 700 c 25
 19 700 38 700 57 700 c 25
 57 667 57 633 57 600 c 25
 67 600 76 600 86 600 c 25
 86 533 86 467 86 400 c 25
 96 400 104 400 114 400 c 25
 114 500 114 600 114 700 c 25
 133 700 152 700 171 700 c 25
 171 467 171 233 171 0 c 25
 152 0 133 0 114 0 c 25
 114 33 114 67 114 100 c 25
 104 100 96 100 86 100 c 25
 86 150 86 200 86 250 c 25
 76 250 67 250 57 250 c 25
 57 167 57 83 57 0 c 25
 38 0 19 0 0 0 c 9
EndSplineSet
Validated: 8388609
EndChar

StartChar: asciitilde
Encoding: 126 126 176
Width: 348
Flags: HW
HStem: 500 100<100 150 350 450> 600 100<200 300 500 550>
VStem: 100 100<501 600> 450 100<600 700>
LayerCount: 2
Back
Fore
SplineSet
57 600 m 13
 67 600 76 600 86 600 c 25
 86 633 86 667 86 700 c 25
 124 700 162 700 200 700 c 25
 200 667 200 633 200 600 c 25
 219 600 238 600 257 600 c 25
 257 633 257 667 257 700 c 25
 276 700 295 700 314 700 c 25
 314 667 314 633 314 600 c 25
 304 600 296 600 286 600 c 25
 286 567 286 533 286 500 c 25
 248 500 209 500 171 500 c 25
 171 533 171 567 171 600 c 25
 152 600 133 600 114 600 c 25
 114 567 114 533 114 500 c 25
 95 500 76 501 57 501 c 25
 57 534 57 567 57 600 c 13
EndSplineSet
Validated: 8388609
EndChar

StartChar: section
Encoding: 167 167 177
Width: 348
Flags: HW
HStem: 0 100<150 300> 100 100<50 100> 200 100<250 300> 300 100<150 200 400 450> 400 100<300 350> 500 100<500 550> 600 100<300 450>
VStem: 50 100<100 200> 150 100<300 400> 200 100<500 600> 300 100<100 200> 350 100<300 400> 450 100<500 600>
LayerCount: 2
Back
Fore
SplineSet
200 400 m 13
 181 400 162 400 143 400 c 25
 143 367 143 333 143 300 c 25
 162 300 181 300 200 300 c 25
 200 333 200 367 200 400 c 13
257 500 m 9
 257 533 257 567 257 600 c 25
 228 600 200 600 171 600 c 25
 171 567 171 533 171 500 c 25
 190 500 210 500 229 500 c 25
 229 467 229 433 229 400 c 25
 239 400 247 400 257 400 c 25
 257 367 257 333 257 300 c 25
 247 300 239 300 229 300 c 25
 229 233 229 167 229 100 c 25
 219 100 210 100 200 100 c 25
 200 67 200 33 200 0 c 25
 152 0 105 0 57 0 c 25
 57 33 57 67 57 100 c 25
 47 100 39 100 29 100 c 25
 29 133 29 167 29 200 c 25
 48 200 67 200 86 200 c 25
 86 167 86 133 86 100 c 25
 115 100 142 100 171 100 c 25
 171 133 171 167 171 200 c 25
 152 200 133 200 114 200 c 25
 114 233 114 267 114 300 c 25
 104 300 96 300 86 300 c 25
 86 333 86 367 86 400 c 25
 96 400 104 400 114 400 c 25
 114 467 114 533 114 600 c 25
 124 600 133 600 143 600 c 25
 143 633 143 667 143 700 c 25
 191 700 238 700 286 700 c 25
 286 667 286 633 286 600 c 25
 296 600 304 600 314 600 c 25
 314 567 314 533 314 500 c 25
 295 500 276 500 257 500 c 9
EndSplineSet
Validated: 8388609
EndChar

StartChar: parenleft
Encoding: 40 40 178
Width: 348
Flags: HW
HStem: 0 100<300 400> 600 100<300 400>
VStem: 150 100<200 500> 200 100<100 200 500 600> 250 150<0 100 600 700>
LayerCount: 2
Back
Fore
SplineSet
143 600 m 13
 143 633 143 667 143 700 c 25
 172 700 200 700 229 700 c 25
 229 667 229 633 229 600 c 25
 210 600 190 600 171 600 c 25
 171 567 171 533 171 500 c 25
 161 500 153 500 143 500 c 25
 143 400 143 300 143 200 c 25
 153 200 161 200 171 200 c 25
 171 167 171 133 171 100 c 25
 190 100 210 100 229 100 c 25
 229 67 229 33 229 0 c 25
 200 0 172 0 143 0 c 25
 143 33 143 67 143 100 c 25
 133 100 124 100 114 100 c 25
 114 133 114 167 114 200 c 25
 104 200 96 200 86 200 c 25
 86 300 86 400 86 500 c 25
 96 500 104 500 114 500 c 25
 114 533 114 567 114 600 c 25
 124 600 133 600 143 600 c 13
EndSplineSet
Validated: 8388609
EndChar

StartChar: quotedbl
Encoding: 34 34 179
Width: 348
Flags: HW
HStem: 400 100<100 150 350 400> 600 100<100 150 350 400>
VStem: 100 100<400 500> 150 100<500 600> 350 100<400 500> 400 100<500 600>
LayerCount: 2
Back
Fore
SplineSet
200 400 m 13
 200 433 200 467 200 500 c 25
 210 500 219 500 229 500 c 25
 229 533 229 567 229 600 c 25
 219 600 210 600 200 600 c 25
 200 633 200 667 200 700 c 25
 229 700 257 700 286 700 c 25
 286 633 286 567 286 500 c 25
 276 500 267 500 257 500 c 25
 257 467 257 433 257 400 c 25
 238 400 219 400 200 400 c 13
57 600 m 9
 57 633 57 667 57 700 c 25
 86 700 114 700 143 700 c 25
 143 633 143 567 143 500 c 25
 133 500 124 500 114 500 c 25
 114 467 114 433 114 400 c 25
 95 400 76 400 57 400 c 25
 57 433 57 467 57 500 c 25
 67 500 76 500 86 500 c 25
 86 533 86 567 86 600 c 25
 76 600 67 600 57 600 c 9
EndSplineSet
Validated: 8388609
EndChar

StartChar: numbersign
Encoding: 35 35 180
Width: 348
Flags: HW
HStem: 0 21G<150 250 350 450> 200 100<50 150 250 350 450 550> 400 100<50 150 250 350 450 550> 680 20G<150 250 350 450>
VStem: 150 100<0 200 300 400 500 700> 350 100<0 200 300 400 500 700>
LayerCount: 2
Back
Fore
SplineSet
143 300 m 13
 162 300 181 300 200 300 c 25
 200 333 200 367 200 400 c 25
 181 400 162 400 143 400 c 25
 143 367 143 333 143 300 c 13
86 700 m 9
 105 700 124 700 143 700 c 25
 143 633 143 567 143 500 c 25
 162 500 181 500 200 500 c 25
 200 567 200 633 200 700 c 25
 219 700 238 700 257 700 c 25
 257 633 257 567 257 500 c 25
 276 500 295 500 314 500 c 25
 314 467 314 433 314 400 c 25
 295 400 276 400 257 400 c 25
 257 367 257 333 257 300 c 25
 276 300 295 300 314 300 c 25
 314 267 314 233 314 200 c 25
 295 200 276 200 257 200 c 25
 257 133 257 67 257 0 c 25
 238 0 219 0 200 0 c 25
 200 67 200 133 200 200 c 25
 181 200 162 200 143 200 c 25
 143 133 143 67 143 0 c 25
 124 0 105 0 86 0 c 25
 86 67 86 133 86 200 c 25
 67 200 48 200 29 200 c 25
 29 233 29 267 29 300 c 25
 48 300 67 300 86 300 c 25
 86 333 86 367 86 400 c 25
 67 400 48 400 29 400 c 25
 29 433 29 467 29 500 c 25
 48 500 67 500 86 500 c 25
 86 567 86 633 86 700 c 9
EndSplineSet
Validated: 1
EndChar

StartChar: dollar
Encoding: 36 36 181
Width: 348
Flags: HW
HStem: 0 100<150 250 350 450> 100 100<50 100> 300 100<150 250 350 450> 500 100<500 550> 600 100<150 250 350 450>
VStem: 50 100<100 200 400 600> 100 400<0 100 300 400 600 700> 250 100<-100 0 100 300 400 600 700 800> 450 100<100 300 500 600>
LayerCount: 2
Back
Fore
SplineSet
257 100 m 13
 257 167 257 233 257 300 c 25
 238 300 219 300 200 300 c 25
 200 233 200 167 200 100 c 25
 219 100 238 100 257 100 c 13
143 600 m 9
 124 600 105 600 86 600 c 25
 86 533 86 467 86 400 c 25
 105 400 124 400 143 400 c 25
 143 467 143 533 143 600 c 9
200 800 m 9
 200 767 200 733 200 700 c 1
 229 700 257 700 286 700 c 25
 286 667 286 633 286 600 c 25
 296 600 304 600 314 600 c 25
 314 567 314 533 314 500 c 25
 295 500 276 500 257 500 c 25
 257 533 257 567 257 600 c 25
 238 600 219 600 200 600 c 25
 200 533 200 467 200 400 c 25
 229 400 257 400 286 400 c 25
 286 367 286 333 286 300 c 25
 296 300 304 300 314 300 c 25
 314 233 314 167 314 100 c 25
 304 100 296 100 286 100 c 25
 286 67 286 33 286 0 c 25
 257 0 229 0 200 0 c 25
 200 -33 200 -67 200 -100 c 25
 181 -100 162 -100 143 -100 c 25
 143 -67 143 -33 143 0 c 25
 114 0 86 0 57 0 c 25
 57 33 57 67 57 100 c 25
 47 100 39 100 29 100 c 25
 29 133 29 167 29 200 c 25
 48 200 67 200 86 200 c 25
 86 167 86 133 86 100 c 25
 105 100 124 100 143 100 c 25
 143 167 143 233 143 300 c 25
 114 300 86 300 57 300 c 25
 57 333 57 367 57 400 c 25
 47 400 39 400 29 400 c 25
 29 467 29 533 29 600 c 25
 39 600 47 600 57 600 c 25
 57 633 57 667 57 700 c 25
 86 700 114 700 143 700 c 25
 143 733 143 767 143 800 c 1
 162 800 181 800 200 800 c 9
EndSplineSet
Validated: 8388609
EndChar

StartChar: percent
Encoding: 37 37 182
Width: 348
Flags: HW
HStem: 0 100<100 150 450 500> 100 100<350 400 550 600> 200 100<450 500> 400 100<100 150> 500 100<0 50 200 250> 600 100<100 150 450 500>
VStem: 0 100<500 600> 50 150<400 500 600 700> 100 100<0 100> 150 100<100 200 500 600> 200 100<200 300> 250 100<300 400> 300 100<400 500> 350 100<100 200 500 600> 400 150<0 100 200 300> 400 100<600 700> 500 100<100 200>
LayerCount: 2
Back
Fore
SplineSet
229 700 m 13
 248 700 267 700 286 700 c 25
 286 667 286 633 286 600 c 25
 276 600 267 600 257 600 c 25
 257 567 257 533 257 500 c 25
 247 500 239 500 229 500 c 25
 229 467 229 433 229 400 c 25
 219 400 210 400 200 400 c 25
 200 367 200 333 200 300 c 25
 190 300 181 300 171 300 c 25
 171 267 171 233 171 200 c 25
 161 200 153 200 143 200 c 25
 143 167 143 133 143 100 c 25
 133 100 124 100 114 100 c 25
 114 67 114 33 114 0 c 25
 95 0 76 0 57 0 c 25
 57 33 57 67 57 100 c 25
 67 100 76 100 86 100 c 25
 86 133 86 167 86 200 c 25
 96 200 104 200 114 200 c 25
 114 233 114 267 114 300 c 25
 124 300 133 300 143 300 c 25
 143 333 143 367 143 400 c 25
 153 400 161 400 171 400 c 25
 171 433 171 467 171 500 c 25
 181 500 190 500 200 500 c 25
 200 533 200 567 200 600 c 25
 210 600 219 600 229 600 c 25
 229 633 229 667 229 700 c 13
257 100 m 9
 267 100 276 100 286 100 c 25
 286 133 286 167 286 200 c 25
 276 200 267 200 257 200 c 25
 257 167 257 133 257 100 c 9
229 300 m 9
 258 300 285 300 314 300 c 25
 314 267 314 233 314 200 c 25
 324 200 333 200 343 200 c 25
 343 167 343 133 343 100 c 25
 333 100 324 100 314 100 c 25
 314 67 314 33 314 0 c 25
 285 0 258 0 229 0 c 25
 229 33 229 67 229 100 c 25
 219 100 210 100 200 100 c 25
 200 133 200 167 200 200 c 25
 210 200 219 200 229 200 c 25
 229 233 229 267 229 300 c 9
57 600 m 9
 57 567 57 533 57 500 c 25
 67 500 76 500 86 500 c 25
 86 533 86 567 86 600 c 25
 76 600 67 600 57 600 c 9
0 600 m 9
 10 600 19 600 29 600 c 25
 29 633 29 667 29 700 c 25
 58 700 85 700 114 700 c 25
 114 667 114 633 114 600 c 25
 124 600 133 600 143 600 c 25
 143 567 143 533 143 500 c 25
 133 500 124 500 114 500 c 25
 114 467 114 433 114 400 c 25
 85 400 58 400 29 400 c 25
 29 433 29 467 29 500 c 25
 19 500 10 500 0 500 c 25
 0 533 0 567 0 600 c 9
EndSplineSet
Validated: 8388609
EndChar

StartChar: ampersand
Encoding: 38 38 183
Width: 348
Flags: HW
HStem: 0 100<150 350 500 600> 100 100<50 100 400 450> 200 100<500 550> 300 100<200 300> 600 100<200 300>
VStem: 50 100<100 200> 100 100<200 300 400 600> 150 200<300 400 600 700> 300 100<200 300 400 600> 450 150<0 100> 450 100<200 300>
LayerCount: 2
Back
Fore
SplineSet
114 300 m 13
 114 267 114 233 114 200 c 25
 104 200 96 200 86 200 c 25
 86 167 86 133 86 100 c 25
 124 100 162 100 200 100 c 25
 200 133 200 167 200 200 c 25
 190 200 181 200 171 200 c 25
 171 233 171 267 171 300 c 25
 152 300 133 300 114 300 c 13
114 600 m 9
 114 533 114 467 114 400 c 25
 133 400 152 400 171 400 c 25
 171 467 171 533 171 600 c 25
 152 600 133 600 114 600 c 9
86 700 m 9
 124 700 162 700 200 700 c 25
 200 667 200 633 200 600 c 25
 210 600 219 600 229 600 c 25
 229 533 229 467 229 400 c 25
 219 400 210 400 200 400 c 25
 200 367 200 333 200 300 c 25
 210 300 219 300 229 300 c 25
 229 267 229 233 229 200 c 25
 239 200 247 200 257 200 c 25
 257 233 257 267 257 300 c 25
 276 300 295 300 314 300 c 25
 314 267 314 233 314 200 c 25
 304 200 296 200 286 200 c 25
 286 167 286 133 286 100 c 25
 305 100 324 100 343 100 c 25
 343 67 343 33 343 0 c 25
 314 0 286 0 257 0 c 25
 257 33 257 67 257 100 c 25
 247 100 239 100 229 100 c 25
 229 67 229 33 229 0 c 25
 172 0 114 0 57 0 c 25
 57 33 57 67 57 100 c 25
 47 100 39 100 29 100 c 25
 29 133 29 167 29 200 c 25
 39 200 47 200 57 200 c 25
 57 233 57 267 57 300 c 25
 67 300 76 300 86 300 c 25
 86 333 86 367 86 400 c 25
 76 400 67 400 57 400 c 25
 57 467 57 533 57 600 c 25
 67 600 76 600 86 600 c 25
 86 633 86 667 86 700 c 9
EndSplineSet
Validated: 8388609
EndChar

StartChar: quotesingle
Encoding: 39 39 184
Width: 348
Flags: HW
HStem: 400 100<250 300> 600 100<250 300>
VStem: 250 100<400 500> 300 100<500 600>
LayerCount: 2
Back
Fore
SplineSet
143 600 m 13
 143 633 143 667 143 700 c 25
 172 700 200 700 229 700 c 25
 229 633 229 567 229 500 c 25
 219 500 210 500 200 500 c 25
 200 467 200 433 200 400 c 25
 181 400 162 400 143 400 c 25
 143 433 143 467 143 500 c 25
 153 500 161 500 171 500 c 25
 171 533 171 567 171 600 c 25
 161 600 153 600 143 600 c 13
EndSplineSet
Validated: 8388609
EndChar

StartChar: parenright
Encoding: 41 41 185
Width: 348
Flags: HW
HStem: 0 100<200 300> 600 100<200 300>
VStem: 200 150<0 100 600 700> 300 100<100 200 500 600> 350 100<200 500>
LayerCount: 2
Back
Fore
SplineSet
114 700 m 13
 143 700 171 700 200 700 c 25
 200 667 200 633 200 600 c 25
 210 600 219 600 229 600 c 25
 229 567 229 533 229 500 c 25
 239 500 247 500 257 500 c 25
 257 400 257 300 257 200 c 25
 247 200 239 200 229 200 c 25
 229 167 229 133 229 100 c 25
 219 100 210 100 200 100 c 25
 200 67 200 33 200 0 c 25
 171 0 143 0 114 0 c 25
 114 33 114 67 114 100 c 25
 133 100 152 100 171 100 c 25
 171 133 171 167 171 200 c 25
 181 200 190 200 200 200 c 25
 200 300 200 400 200 500 c 25
 190 500 181 500 171 500 c 25
 171 533 171 567 171 600 c 25
 152 600 133 600 114 600 c 25
 114 633 114 667 114 700 c 13
EndSplineSet
Validated: 8388609
EndChar

StartChar: braceleft
Encoding: 123 123 186
Width: 348
Flags: HW
HStem: 0 100<350 450> 300 100<150 250> 600 100<350 450>
VStem: 150 150<300 400> 250 100<100 300 400 600> 300 150<0 100 600 700>
CounterMasks: 1 e0
LayerCount: 2
Back
Fore
SplineSet
257 700 m 13
 257 667 257 633 257 600 c 1
 238 600 219 600 200 600 c 25
 200 533 200 467 200 400 c 25
 190 400 181 400 171 400 c 25
 171 367 171 333 171 300 c 25
 181 300 190 300 200 300 c 25
 200 233 200 167 200 100 c 25
 219 100 238 100 257 100 c 25
 257 67 257 33 257 0 c 25
 228 0 200 0 171 0 c 25
 171 33 171 67 171 100 c 25
 161 100 153 100 143 100 c 25
 143 167 143 233 143 300 c 25
 124 300 105 300 86 300 c 25
 86 333 86 367 86 400 c 25
 105 400 124 400 143 400 c 25
 143 467 143 533 143 600 c 25
 153 600 161 600 171 600 c 25
 171 633 171 667 171 700 c 1
 200 700 228 700 257 700 c 13
EndSplineSet
Validated: 8388609
EndChar

StartChar: bar
Encoding: 124 124 187
Width: 348
Flags: HW
HStem: 0 21G<250 350> 680 20G<250 350>
VStem: 250 100<0 700>
LayerCount: 2
Back
Fore
SplineSet
143 700 m 13
 162 700 181 700 200 700 c 25
 200 467 200 233 200 0 c 25
 181 0 162 0 143 0 c 25
 143 233 143 467 143 700 c 13
EndSplineSet
Validated: 1
EndChar

StartChar: braceright
Encoding: 125 125 188
Width: 348
Flags: HW
HStem: 0 100<150 250> 300 100<350 450> 600 100<150 250>
VStem: 150 150<0 100 600 700> 250 100<100 300 400 600> 300 150<300 400>
CounterMasks: 1 e0
LayerCount: 2
Back
Fore
SplineSet
86 700 m 13
 115 700 142 700 171 700 c 25
 171 667 171 633 171 600 c 25
 181 600 190 600 200 600 c 25
 200 533 200 467 200 400 c 25
 219 400 238 400 257 400 c 25
 257 367 257 333 257 300 c 25
 238 300 219 300 200 300 c 25
 200 233 200 167 200 100 c 25
 190 100 181 100 171 100 c 25
 171 67 171 33 171 0 c 25
 142 0 115 0 86 0 c 25
 86 33 86 67 86 100 c 25
 105 100 124 100 143 100 c 25
 143 167 143 233 143 300 c 25
 153 300 161 300 171 300 c 25
 171 333 171 367 171 400 c 25
 161 400 153 400 143 400 c 25
 143 467 143 533 143 600 c 25
 124 600 105 600 86 600 c 25
 86 633 86 667 86 700 c 13
EndSplineSet
Validated: 8388609
EndChar

StartChar: uni0451
Encoding: 1105 1105 189
Width: 348
Flags: HW
HStem: 0 100<200 500> 200 100<200 450> 400 100<200 450> 600 100<150 250 400 500>
VStem: 100 100<100 200 300 400> 150 100<600 700> 400 100<600 700> 450 100<300 400>
LayerCount: 2
Back
Fore
SplineSet
229 700 m 9
 248 700 267 700 286 700 c 25
 286 667 286 633 286 600 c 25
 267 600 248 600 229 600 c 25
 229 633 229 667 229 700 c 9
86 700 m 9
 105 700 124 700 143 700 c 25
 143 667 143 633 143 600 c 25
 124 600 105 600 86 600 c 25
 86 633 86 667 86 700 c 9
114 400 m 1
 114 367 114 333 114 300 c 1
 162 300 209 300 257 300 c 1
 257 333 257 367 257 400 c 1
 209 400 162 400 114 400 c 1
86 400 m 1
 86 433 86 467 86 500 c 1
 152 500 219 500 285 500 c 1
 285 467 286 433 286 400 c 25
 296 400 304 400 314 400 c 25
 314 333 314 267 314 200 c 1
 247 200 181 200 114 200 c 1
 114 167 114 133 114 100 c 1
 171 100 229 100 286 100 c 1
 286 67 286 33 286 0 c 1
 219 0 153 0 86 0 c 1
 86 33 86 67 86 100 c 1
 76 100 67 100 57 100 c 1
 57 200 57 300 57 400 c 5
 67 400 76 400 86 400 c 1
EndSplineSet
Validated: 8388609
EndChar

StartChar: underscore
Encoding: 95 95 190
Width: 348
Flags: HW
HStem: -100 100<50 550>
LayerCount: 2
Back
Fore
SplineSet
29 -100 m 13
 29 -67 29 -33 29 0 c 1
 124 0 219 0 314 0 c 25
 314 -33 314 -67 314 -100 c 1
 219 -100 124 -100 29 -100 c 13
EndSplineSet
Validated: 1
EndChar

StartChar: asciicircum
Encoding: 94 94 191
Width: 348
Flags: HW
HStem: 400 100<150 200 450 500> 600 100<300 350>
VStem: 150 100<400 500> 200 100<500 600> 350 100<500 600> 400 100<400 500>
LayerCount: 2
Back
Fore
SplineSet
86 400 m 13
 86 433 86 467 86 500 c 25
 96 500 104 500 114 500 c 25
 114 533 114 567 114 600 c 25
 124 600 133 600 143 600 c 25
 143 633 143 667 143 700 c 25
 172 700 200 700 229 700 c 25
 229 667 229 633 229 600 c 25
 239 600 247 600 257 600 c 25
 257 567 257 533 257 500 c 25
 267 500 276 500 286 500 c 25
 286 467 286 433 286 400 c 25
 267 400 248 400 229 400 c 25
 229 433 229 467 229 500 c 25
 219 500 210 500 200 500 c 25
 200 533 200 567 200 600 c 25
 190 600 181 600 171 600 c 25
 171 567 171 533 171 500 c 25
 161 500 153 500 143 500 c 25
 143 467 143 433 143 400 c 25
 124 400 105 400 86 400 c 13
EndSplineSet
Validated: 8388609
EndChar

StartChar: grave
Encoding: 96 96 192
Width: 348
Flags: HW
HStem: 400 100<300 350> 600 100<150 200>
VStem: 150 100<600 700> 200 100<500 600> 250 100<400 500>
LayerCount: 2
Back
Fore
SplineSet
86 700 m 13
 105 700 124 700 143 700 c 25
 143 667 143 633 143 600 c 25
 153 600 161 600 171 600 c 25
 171 567 171 533 171 500 c 25
 181 500 190 500 200 500 c 25
 200 467 200 433 200 400 c 25
 181 400 162 400 143 400 c 25
 143 433 143 467 143 500 c 25
 133 500 124 500 114 500 c 25
 114 533 114 567 114 600 c 25
 104 600 96 600 86 600 c 25
 86 633 86 667 86 700 c 13
EndSplineSet
Validated: 8388609
EndChar

StartChar: bracketleft
Encoding: 91 91 193
Width: 348
Flags: HW
HStem: 0 100<300 400> 600 100<300 400>
VStem: 200 200<0 100 600 700> 200 100<100 600>
LayerCount: 2
Back
Fore
SplineSet
229 600 m 13
 210 600 190 600 171 600 c 25
 171 433 171 267 171 100 c 25
 190 100 210 100 229 100 c 25
 229 67 229 33 229 0 c 25
 191 0 152 0 114 0 c 25
 114 233 114 467 114 700 c 25
 152 700 191 700 229 700 c 25
 229 667 229 633 229 600 c 13
EndSplineSet
Validated: 8388609
EndChar

StartChar: bracketright
Encoding: 93 93 194
Width: 348
Flags: HW
HStem: 0 100<200 300> 600 100<200 300>
VStem: 200 200<0 100 600 700> 300 100<100 600>
LayerCount: 2
Back
Fore
SplineSet
114 700 m 13
 152 700 190 700 228 700 c 1
 228 467 229 233 229 0 c 25
 191 0 152 0 114 0 c 25
 114 33 114 67 114 100 c 25
 133 100 152 100 171 100 c 25
 171 267 171 433 171 600 c 25
 152 600 133 600 114 600 c 1
 114 633 114 667 114 700 c 13
EndSplineSet
Validated: 8388609
EndChar

StartChar: backslash
Encoding: 92 92 195
Width: 348
Flags: HW
HStem: 0 100<450 500> 600 100<100 150>
VStem: 100 100<600 700> 150 100<500 600> 200 100<400 500> 250 100<300 400> 300 100<200 300> 350 100<100 200> 400 100<0 100>
LayerCount: 2
Back
Fore
SplineSet
57 600 m 13
 57 633 57 667 57 700 c 25
 76 700 95 700 114 700 c 25
 114 667 114 633 114 600 c 25
 124 600 133 600 143 600 c 25
 143 567 143 533 143 500 c 25
 153 500 161 500 171 500 c 25
 171 467 171 433 171 400 c 25
 181 400 190 400 200 400 c 25
 200 367 200 333 200 300 c 25
 210 300 219 300 229 300 c 25
 229 267 229 233 229 200 c 25
 239 200 247 200 257 200 c 25
 257 167 257 133 257 100 c 25
 267 100 276 100 286 100 c 25
 286 67 286 33 286 0 c 25
 267 0 248 0 229 0 c 25
 229 33 229 67 229 100 c 25
 219 100 210 100 200 100 c 25
 200 133 200 167 200 200 c 25
 190 200 181 200 171 200 c 25
 171 233 171 267 171 300 c 25
 161 300 153 300 143 300 c 25
 143 333 143 367 143 400 c 25
 133 400 124 400 114 400 c 25
 114 433 114 467 114 500 c 25
 104 500 96 500 86 500 c 25
 86 533 86 567 86 600 c 25
 76 600 67 600 57 600 c 13
EndSplineSet
Validated: 8388609
EndChar

StartChar: Odieresis
Encoding: 214 214 196
Width: 348
Flags: HMW
LayerCount: 2
Back
Fore
SplineSet
114 500 m 13
 114 467 114 433 114 400 c 25
 104 400 96 400 86 400 c 25
 86 333 86 267 86 200 c 25
 96 200 104 200 114 200 c 25
 114 167 114 133 114 100 c 25
 152 100 191 100 229 100 c 25
 229 133 229 167 229 200 c 25
 239 200 247 200 257 200 c 25
 257 267 257 333 257 400 c 25
 247 400 239 400 229 400 c 25
 229 433 229 467 229 500 c 25
 191 500 152 500 114 500 c 13
86 600 m 9
 143 600 200 600 257 600 c 25
 257 567 257 533 257 500 c 25
 267 500 276 500 286 500 c 25
 286 467 286 433 286 400 c 25
 296 400 304 400 314 400 c 25
 314 333 314 267 314 200 c 25
 304 200 296 200 286 200 c 25
 286 167 286 133 286 100 c 25
 276 100 267 100 257 100 c 25
 257 67 257 33 257 0 c 25
 200 0 143 0 86 0 c 25
 86 33 86 67 86 100 c 25
 76 100 67 100 57 100 c 25
 57 133 57 167 57 200 c 25
 47 200 39 200 29 200 c 25
 29 267 29 333 29 400 c 25
 39 400 47 400 57 400 c 25
 57 433 57 467 57 500 c 25
 67 500 76 500 86 500 c 25
 86 533 86 567 86 600 c 9
200 700 m 9
 200 733 200 767 200 800 c 25
 219 800 238 800 257 800 c 25
 257 767 257 733 257 700 c 25
 238 700 219 700 200 700 c 9
86 700 m 9
 86 733 86 767 86 800 c 25
 105 800 124 800 143 800 c 25
 143 767 143 733 143 700 c 25
 124 700 105 700 86 700 c 9
EndSplineSet
Validated: 1
EndChar

StartChar: acute
Encoding: 180 180 197
Width: 348
Flags: HW
HStem: 400 100<150 200> 600 100<300 350>
VStem: 150 100<400 500> 200 100<500 600> 250 100<600 700>
LayerCount: 2
Back
Fore
SplineSet
143 600 m 13
 143 633 143 667 143 700 c 25
 162 700 181 700 200 700 c 25
 200 667 200 633 200 600 c 25
 190 600 181 600 171 600 c 25
 171 567 171 533 171 500 c 25
 161 500 153 500 143 500 c 25
 143 467 143 433 143 400 c 25
 124 400 105 400 86 400 c 25
 86 433 86 467 86 500 c 25
 96 500 104 500 114 500 c 25
 114 533 114 567 114 600 c 25
 124 600 133 600 143 600 c 13
EndSplineSet
Validated: 8388609
EndChar

StartChar: plusminus
Encoding: 177 177 198
Width: 348
Flags: HW
HStem: 100 100<100 500> 451 99<100 250 350 500> 680 20G<250 350>
VStem: 250 100<300 450 550 700>
LayerCount: 2
Back
Fore
SplineSet
57 200 m 13
 133 200 210 200 286 200 c 25
 286 167 286 134 286 101 c 25
 210 101 133 100 57 100 c 25
 57 133 57 167 57 200 c 13
57 550 m 9
 86 550 114 550 143 550 c 25
 143 600 143 650 143 700 c 25
 162 700 181 700 200 700 c 25
 200 650 200 600 200 550 c 25
 229 550 257 551 286 551 c 25
 286 517 286 484 286 450 c 25
 257 450 229 450 200 450 c 25
 200 400 200 350 200 300 c 25
 181 300 162 300 143 300 c 25
 143 350 143 401 143 451 c 25
 114 451 86 451 57 451 c 25
 57 484 57 517 57 550 c 9
EndSplineSet
Validated: 1
EndChar

StartChar: uni20BD
Encoding: 8381 8381 199
Width: 348
Flags: HW
HStem: 0 21G<100 200> 150 100<0 100 200 400> 300 100<0 100 200 450> 600 100<200 450>
VStem: 100 100<0 150 250 300 400 600> 450 100<400 600>
LayerCount: 2
Back
Fore
SplineSet
114 400 m 9
 162 400 209 400 257 400 c 25
 257 467 257 533 257 600 c 25
 209 600 162 600 114 600 c 25
 114 533 114 467 114 400 c 9
57 700 m 9
 133 700 210 700 286 700 c 25
 286 683 286 667 286 650 c 25
 296 650 304 650 314 650 c 25
 314 567 314 483 314 400 c 25
 304 400 296 400 286 400 c 25
 286 367 286 333 286 300 c 25
 229 300 171 300 114 300 c 25
 114 283 114 267 114 250 c 1
 152 250 191 250 229 250 c 5
 229 217 229 183 229 150 c 1
 191 150 152 150 114 150 c 1
 114 100 114 50 114 0 c 25
 95 0 76 0 57 0 c 25
 57 50 57 100 57 150 c 25
 38 150 19 150 0 150 c 25
 0 183 0 217 0 250 c 25
 19 250 38 250 57 250 c 25
 57 267 57 283 57 300 c 25
 38 300 19 300 0 300 c 25
 0 333 0 367 0 400 c 25
 19 400 38 400 57 400 c 25
 57 500 57 600 57 700 c 9
EndSplineSet
Validated: 1
EndChar

StartChar: Udieresis
Encoding: 220 220 200
Width: 348
Flags: HW
HStem: 0 100<200 450> 700 100<150 250 400 500>
VStem: 100 100<100 600> 150 100<700 800> 400 100<700 800> 450 100<100 600>
LayerCount: 2
Back
Fore
SplineSet
229 800 m 13
 248 800 267 800 286 800 c 25
 286 767 286 733 286 700 c 25
 267 700 248 700 229 700 c 25
 229 733 229 767 229 800 c 13
86 700 m 9
 86 733 86 767 86 800 c 25
 105 800 124 800 143 800 c 25
 143 767 143 733 143 700 c 25
 124 700 105 700 86 700 c 9
57 600 m 1
 76 600 95 600 114 600 c 1
 114 433 114 267 114 100 c 1
 162 100 209 100 257 100 c 1
 257 267 257 433 257 600 c 1
 276 600 295 600 314 600 c 1
 314 433 314 267 314 100 c 1
 304 100 296 100 286 100 c 25
 286 67 286 33 286 0 c 25
 219 0 153 0 86 0 c 25
 86 33 86 67 86 100 c 25
 76 100 67 100 57 100 c 1
 57 267 57 433 57 600 c 1
EndSplineSet
Validated: 8388609
EndChar

StartChar: Adieresis
Encoding: 196 196 201
Width: 348
Flags: HW
HStem: 0 21G<50 150 450 550> 200 100<150 450> 500 100<200 400> 700 100<150 250 350 450>
VStem: 50 100<0 200 300 400> 100 100<400 500> 150 100<700 800> 350 100<700 800> 400 100<400 500> 450 100<0 200 300 400>
LayerCount: 2
Back
Fore
SplineSet
200 700 m 9
 200 733 200 767 200 800 c 25
 219 800 238 800 257 800 c 25
 257 767 257 733 257 700 c 25
 238 700 219 700 200 700 c 9
86 700 m 9
 86 733 86 767 86 800 c 25
 105 800 124 800 143 800 c 25
 143 767 143 733 143 700 c 25
 124 700 105 700 86 700 c 9
86 300 m 9
 143 300 200 300 257 300 c 25
 257 333 257 367 257 400 c 25
 247 400 239 400 229 400 c 1
 229 433 229 467 229 500 c 25
 191 500 152 500 114 500 c 1
 114 467 114 433 114 400 c 29
 104 400 96 400 86 400 c 1
 86 367 86 333 86 300 c 9
29 0 m 9
 29 133 29 267 29 400 c 1
 39 400 47 400 57 400 c 25
 57 433 57 467 57 500 c 25
 67 500 76 500 86 500 c 25
 86 533 86 567 86 600 c 25
 143 600 200 600 257 600 c 25
 257 567 257 533 257 500 c 25
 267 500 276 500 286 500 c 25
 286 467 286 433 286 400 c 25
 296 400 304 400 314 400 c 25
 314 267 314 133 314 0 c 25
 295 0 276 0 257 0 c 25
 257 67 257 133 257 200 c 25
 200 200 143 200 86 200 c 25
 86 133 86 67 86 0 c 1
 67 0 48 0 29 0 c 9
EndSplineSet
Validated: 8388609
EndChar

StartChar: adieresis
Encoding: 228 228 202
Width: 348
Flags: HW
HStem: 0 100<150 400 500 549> 100 100<50 100> 200 100<150 400> 400 100<100 400> 600 100<150 250 350 450>
VStem: 50 100<100 200> 150 100<600 700> 350 100<600 700> 400 100<100 200 300 400>
LayerCount: 2
Back
Fore
SplineSet
200 600 m 13
 200 633 200 667 200 700 c 29
 219 700 238 700 257 700 c 29
 257 667 257 633 257 600 c 29
 238 600 219 600 200 600 c 13
86 600 m 13
 86 633 86 667 86 700 c 29
 105 700 124 700 143 700 c 29
 143 667 143 633 143 600 c 29
 124 600 105 600 86 600 c 13
86 200 m 9
 86 167 86 133 86 100 c 25
 134 100 181 100 229 100 c 25
 229 133 229 167 229 200 c 25
 181 200 134 200 86 200 c 9
57 500 m 9
 124 500 190 500 257 500 c 25
 257 467 257 433 257 400 c 25
 267 400 276 400 286 400 c 25
 286 300 286 200 286 100 c 25
 295 100 305 100 314 100 c 25
 314 67 314 33 314 0 c 25
 228 0 143 0 57 0 c 25
 57 33 57 67 57 100 c 25
 47 100 39 100 29 100 c 25
 29 133 29 167 29 200 c 25
 39 200 47 200 57 200 c 25
 57 233 57 267 57 300 c 25
 114 300 172 300 229 300 c 25
 229 333 229 367 229 400 c 25
 172 400 114 400 57 400 c 25
 57 433 57 467 57 500 c 9
EndSplineSet
Validated: 8388609
EndChar

StartChar: odieresis
Encoding: 246 246 203
Width: 348
Flags: HW
HStem: 0 100<200 450> 400 100<200 450> 600 100<150 250 400 500>
VStem: 100 100<100 400> 150 100<600 700> 400 100<600 700> 450 100<100 400>
LayerCount: 2
Back
Fore
SplineSet
229 600 m 13
 229 633 229 667 229 700 c 29
 248 700 267 700 286 700 c 29
 286 667 286 633 286 600 c 29
 267 600 248 600 229 600 c 13
86 600 m 9
 86 633 86 667 86 700 c 25
 105 700 124 700 143 700 c 25
 143 667 143 633 143 600 c 25
 124 600 105 600 86 600 c 9
114 400 m 9
 114 300 114 200 114 100 c 25
 162 100 209 100 257 100 c 25
 257 200 257 300 257 400 c 25
 209 400 162 400 114 400 c 9
86 500 m 9
 153 500 219 500 286 500 c 25
 286 467 286 433 286 400 c 25
 296 400 304 400 314 400 c 25
 314 300 314 200 314 100 c 25
 304 100 296 100 286 100 c 25
 286 67 286 33 286 0 c 25
 219 0 153 0 86 0 c 25
 86 33 86 67 86 100 c 25
 76 100 67 100 57 100 c 25
 57 200 57 300 57 400 c 25
 67 400 76 400 86 400 c 25
 86 433 86 467 86 500 c 9
EndSplineSet
Validated: 8388609
EndChar

StartChar: germandbls
Encoding: 223 223 204
Width: 348
Flags: HW
HStem: 0 100<250 450> 300 100<300 400> 600 100<250 400>
VStem: 100 100<0 500> 150 100<500 600> 300 150<300 400> 400 100<400 600> 450 100<100 300>
CounterMasks: 1 e0
LayerCount: 2
Back
Fore
SplineSet
114 600 m 9
 114 633 114 667 114 700 c 1
 162 700 209 700 257 700 c 25
 257 667 257 633 257 600 c 25
 267 600 276 600 286 600 c 25
 286 533 286 467 286 400 c 25
 276 400 267 400 257 400 c 25
 257 367 257 333 257 300 c 25
 276 300 295 300 314 300 c 25
 314 233 314 167 314 100 c 25
 304 100 296 100 286 100 c 25
 286 67 286 33 286 0 c 25
 238 0 191 0 143 0 c 25
 143 33 143 67 143 100 c 25
 181 100 219 100 257 100 c 25
 257 167 257 233 257 300 c 25
 228 300 200 300 171 300 c 25
 171 333 171 367 171 400 c 25
 190 400 210 400 229 400 c 25
 229 467 229 533 229 600 c 25
 200 600 172 600 143 600 c 25
 143 567 143 533 143 500 c 25
 133 500 124 500 114 500 c 25
 114 333 114 167 114 0 c 25
 95 0 76 0 57 0 c 25
 57 167 57 333 57 500 c 25
 67 500 76 500 86 500 c 25
 86 533 86 567 86 600 c 1
 96 600 104 600 114 600 c 9
EndSplineSet
Validated: 8388613
EndChar

StartChar: uniFFFD
Encoding: 65533 65533 205
Width: 348
Flags: HW
HStem: -200 21G<200 400> 100 100<250 350> 480 20G<250 350> 600 200<200 400>
VStem: 50 100<400 500> 100 150<0 100> 100 100<500 600> 150 300<-100 0 600 700> 200 200<-200 -100 700 800> 250 100<400 500> 350 150<0 100> 400 100<500 600> 450 150<300 400> 450 100<400 500>
LayerCount: 2
Back
Fore
SplineSet
143 200 m 13
 172 200 200 200 229 200 c 25
 229 233 229 267 229 300 c 25
 239 300 247 300 257 300 c 25
 257 367 257 433 257 500 c 25
 247 500 239 500 229 500 c 25
 229 533 229 567 229 600 c 25
 191 600 152 600 114 600 c 25
 114 567 114 533 114 500 c 25
 104 500 96 500 86 500 c 25
 86 467 86 433 86 400 c 25
 105 400 124 400 143 400 c 25
 143 433 143 467 143 500 c 25
 162 500 181 500 200 500 c 25
 200 433 200 367 200 300 c 25
 181 300 162 300 143 300 c 25
 143 267 143 233 143 200 c 13
143 0 m 9
 162 0 181 0 200 0 c 25
 200 33 200 67 200 100 c 25
 181 100 162 100 143 100 c 25
 143 67 143 33 143 0 c 9
0 200 m 9
 0 267 0 333 0 400 c 25
 10 400 19 400 29 400 c 25
 29 433 29 467 29 500 c 25
 39 500 47 500 57 500 c 25
 57 533 57 567 57 600 c 25
 67 600 76 600 86 600 c 25
 86 633 86 667 86 700 c 25
 96 700 104 700 114 700 c 25
 114 733 114 767 114 800 c 25
 152 800 191 800 229 800 c 25
 229 767 229 733 229 700 c 25
 239 700 247 700 257 700 c 25
 257 667 257 633 257 600 c 25
 267 600 276 600 286 600 c 25
 286 567 286 533 286 500 c 25
 296 500 304 500 314 500 c 25
 314 467 314 433 314 400 c 25
 324 400 333 400 343 400 c 25
 343 333 343 267 343 200 c 25
 333 200 324 200 314 200 c 25
 314 167 314 133 314 100 c 25
 304 100 296 100 286 100 c 25
 286 67 286 33 286 0 c 25
 276 0 267 0 257 0 c 25
 257 -33 257 -67 257 -100 c 25
 247 -100 239 -100 229 -100 c 25
 229 -133 229 -167 229 -200 c 25
 191 -200 152 -200 114 -200 c 25
 114 -167 114 -133 114 -100 c 25
 104 -100 96 -100 86 -100 c 25
 86 -67 86 -33 86 0 c 25
 76 0 67 0 57 0 c 25
 57 33 57 67 57 100 c 25
 47 100 39 100 29 100 c 25
 29 133 29 167 29 200 c 25
 19 200 10 200 0 200 c 9
EndSplineSet
Validated: 8388609
EndChar

StartChar: Oslash
Encoding: 216 216 206
Width: 348
Flags: HW
HStem: 0 100<200 400> 600 100<200 400>
VStem: 50 100<200 500> 100 100<100 200 500 600> 150 300<0 100 600 700> 400 100<100 200 500 600> 450 100<200 500>
LayerCount: 2
Back
Fore
SplineSet
229 100 m 13
 229 133 229 167 229 200 c 25
 239 200 247 200 257 200 c 25
 257 300 257 400 257 500 c 25
 247 500 239 500 229 500 c 25
 229 533 229 567 229 600 c 25
 191 600 152 600 114 600 c 25
 114 567 114 533 114 500 c 25
 104 500 96 500 86 500 c 25
 86 400 86 300 86 200 c 25
 96 200 104 200 114 200 c 25
 114 167 114 133 114 100 c 25
 152 100 191 100 229 100 c 13
257 0 m 9
 200 0 143 0 86 0 c 25
 86 33 86 67 86 100 c 25
 76 100 67 100 57 100 c 25
 57 133 57 167 57 200 c 25
 47 200 39 200 29 200 c 25
 29 300 29 400 29 500 c 25
 39 500 47 500 57 500 c 25
 57 533 57 567 57 600 c 25
 67 600 76 600 86 600 c 25
 86 633 86 667 86 700 c 25
 143 700 200 700 257 700 c 25
 257 667 257 633 257 600 c 25
 267 600 276 600 286 600 c 25
 286 567 286 533 286 500 c 25
 296 500 304 500 314 500 c 25
 314 400 314 300 314 200 c 25
 304 200 296 200 286 200 c 25
 286 167 286 133 286 100 c 25
 276 100 267 100 257 100 c 25
 257 67 257 33 257 0 c 9
EndSplineSet
Validated: 8388609
EndChar

StartChar: multiply
Encoding: 215 215 207
Width: 348
Flags: HMW
LayerCount: 2
Back
Fore
SplineSet
86 200 m 13
 86 233 86 267 86 300 c 25
 105 300 124 300 143 300 c 25
 143 333 143 367 143 400 c 25
 124 400 105 400 86 400 c 25
 86 433 86 467 86 500 c 25
 105 500 124 500 143 500 c 25
 143 467 143 433 143 400 c 25
 162 400 181 400 200 400 c 25
 200 433 200 467 200 500 c 25
 219 500 238 500 257 500 c 25
 257 467 257 433 257 400 c 25
 238 400 219 400 200 400 c 25
 200 367 200 333 200 300 c 25
 219 300 238 300 257 300 c 25
 257 267 257 233 257 200 c 25
 238 200 219 200 200 200 c 25
 200 233 200 267 200 300 c 25
 181 300 162 300 143 300 c 25
 143 267 143 233 143 200 c 25
 124 200 105 200 86 200 c 13
EndSplineSet
Validated: 5
EndChar

StartChar: divide
Encoding: 247 247 208
Width: 348
Flags: HMW
LayerCount: 2
Back
Fore
SplineSet
143 100 m 13
 143 133 143 167 143 200 c 25
 162 200 181 200 200 200 c 25
 200 167 200 133 200 100 c 25
 181 100 162 100 143 100 c 13
57 300 m 9
 57 333 57 367 57 400 c 25
 133 400 210 400 286 400 c 25
 286 367 286 333 286 300 c 25
 210 300 133 300 57 300 c 9
143 500 m 9
 143 533 143 567 143 600 c 25
 162 600 181 600 200 600 c 25
 200 567 200 533 200 500 c 25
 181 500 162 500 143 500 c 9
EndSplineSet
Validated: 1
EndChar

StartChar: brokenbar
Encoding: 166 166 209
Width: 348
Flags: HW
HStem: 0 21G<250 350> 680 20G<250 350>
VStem: 250 100<0 700>
LayerCount: 2
Back
Fore
SplineSet
143 700 m 13
 162 700 181 700 200 700 c 25
 200 467 200 233 200 0 c 25
 181 0 162 0 143 0 c 25
 143 233 143 467 143 700 c 13
EndSplineSet
Validated: 1
EndChar

StartChar: degree
Encoding: 176 176 210
Width: 348
Flags: HMW
LayerCount: 2
Back
Fore
SplineSet
143 600 m 13
 143 567 143 533 143 500 c 25
 162 500 181 500 200 500 c 25
 200 533 200 567 200 600 c 25
 181 600 162 600 143 600 c 13
114 600 m 9
 114 633 114 667 114 700 c 25
 152 700 191 700 229 700 c 25
 229 667 229 633 229 600 c 25
 239 600 247 600 257 600 c 25
 257 567 257 533 257 500 c 25
 247 500 239 500 229 500 c 25
 229 467 229 433 229 400 c 25
 191 400 152 400 114 400 c 25
 114 433 114 467 114 500 c 25
 104 500 96 500 86 500 c 25
 86 533 86 567 86 600 c 25
 96 600 104 600 114 600 c 9
EndSplineSet
Validated: 1
EndChar

StartChar: arrowright
Encoding: 8594 8594 211
Width: 348
Flags: HW
HStem: 100 100<250 300> 300 100<0 300 450 550> 500 100<250 300>
VStem: 250 100<100 200 500 600> 300 150<200 300 400 500>
CounterMasks: 1 e0
LayerCount: 2
Back
Fore
SplineSet
143 500 m 13
 143 533 143 567 143 600 c 25
 162 600 181 600 200 600 c 25
 200 567 200 533 200 500 c 25
 219 500 238 500 257 500 c 25
 257 467 257 433 257 400 c 25
 276 400 295 400 314 400 c 25
 314 367 314 333 314 300 c 25
 295 300 276 300 257 300 c 25
 257 267 257 233 257 200 c 25
 238 200 219 200 200 200 c 25
 200 167 200 133 200 100 c 25
 181 100 162 100 143 100 c 25
 143 133 143 167 143 200 c 25
 153 200 161 200 171 200 c 25
 171 233 171 267 171 300 c 25
 114 300 57 300 0 300 c 25
 0 333 0 367 0 400 c 25
 57 400 114 400 171 400 c 25
 171 433 171 467 171 500 c 25
 161 500 153 500 143 500 c 13
EndSplineSet
Validated: 8388609
EndChar

StartChar: arrowleft
Encoding: 8592 8592 212
Width: 348
Flags: HW
HStem: 100 100<350 400> 300 100<100 200 350 600> 500 100<350 400>
VStem: 200 150<200 300 400 500> 300 100<100 200 500 600>
CounterMasks: 1 e0
LayerCount: 2
Back
Fore
SplineSet
171 500 m 13
 171 533 171 567 171 600 c 25
 190 600 210 600 229 600 c 25
 229 567 229 533 229 500 c 25
 219 500 210 500 200 500 c 25
 200 467 200 433 200 400 c 25
 248 400 295 400 343 400 c 25
 343 367 343 333 343 300 c 25
 295 300 248 300 200 300 c 25
 200 267 200 233 200 200 c 25
 210 200 219 200 229 200 c 25
 229 167 229 133 229 100 c 25
 210 100 190 100 171 100 c 25
 171 133 171 167 171 200 c 25
 152 200 133 200 114 200 c 25
 114 233 114 267 114 300 c 25
 95 300 76 300 57 300 c 25
 57 333 57 367 57 400 c 25
 76 400 95 400 114 400 c 25
 114 433 114 467 114 500 c 25
 133 500 152 500 171 500 c 13
EndSplineSet
Validated: 8388609
EndChar

StartChar: arrowup
Encoding: 8593 8593 213
Width: 348
Flags: HW
HStem: 0 21G<250 350> 300 100<100 150 450 500> 680 20G<250 350>
VStem: 100 100<300 400> 250 100<0 400 600 700> 400 100<300 400>
CounterMasks: 1 1c
LayerCount: 2
Back
Fore
SplineSet
114 300 m 13
 95 300 76 300 57 300 c 25
 57 333 57 367 57 400 c 25
 67 400 76 400 86 400 c 25
 86 433 86 467 86 500 c 25
 96 500 104 500 114 500 c 25
 114 533 114 567 114 600 c 25
 124 600 133 600 143 600 c 25
 143 633 143 667 143 700 c 25
 162 700 181 700 200 700 c 25
 200 667 200 633 200 600 c 25
 210 600 219 600 229 600 c 25
 229 567 229 533 229 500 c 25
 239 500 247 500 257 500 c 25
 257 467 257 433 257 400 c 25
 267 400 276 400 286 400 c 25
 286 367 286 333 286 300 c 25
 267 300 248 300 229 300 c 25
 229 333 229 367 229 400 c 25
 219 400 210 400 200 400 c 25
 200 267 200 133 200 0 c 25
 181 0 162 0 143 0 c 25
 143 133 143 267 143 400 c 25
 133 400 124 400 114 400 c 25
 114 367 114 333 114 300 c 13
EndSplineSet
Validated: 1
EndChar

StartChar: arrowdown
Encoding: 8595 8595 214
Width: 348
Flags: HW
HStem: 0 21G<250 350> 300 100<100 150 450 500> 680 20G<250 350>
VStem: 100 100<300 400> 250 100<0 100 300 700> 400 100<300 400>
CounterMasks: 1 1c
LayerCount: 2
Back
Fore
SplineSet
143 300 m 13
 143 433 143 567 143 700 c 1
 162 700 181 700 200 700 c 25
 200 567 200 433 200 300 c 25
 210 300 219 300 229 300 c 25
 229 333 229 367 229 400 c 25
 248 400 267 400 286 400 c 25
 286 367 286 333 286 300 c 25
 276 300 267 300 257 300 c 25
 257 267 257 233 257 200 c 25
 247 200 239 200 229 200 c 25
 229 167 229 133 229 100 c 25
 219 100 210 100 200 100 c 25
 200 67 200 33 200 0 c 25
 181 0 162 0 143 0 c 25
 143 33 143 67 143 100 c 25
 133 100 124 100 114 100 c 25
 114 133 114 167 114 200 c 25
 104 200 96 200 86 200 c 25
 86 233 86 267 86 300 c 25
 76 300 67 300 57 300 c 25
 57 333 57 367 57 400 c 25
 76 400 95 400 114 400 c 25
 114 367 114 333 114 300 c 1
 124 300 133 300 143 300 c 13
EndSplineSet
Validated: 1
EndChar

StartChar: arrowboth
Encoding: 8596 8596 215
Width: 696
Flags: HW
HStem: 100 100<400 500 700 800> 200 300<300 400 800 900> 300 100<200 300 400 800 900 1000> 500 100<400 500 700 800>
VStem: 300 100<200 300 400 500> 400 100<100 200 500 600> 700 100<100 200 500 600> 800 100<200 300 400 500>
LayerCount: 2
Back
Fore
SplineSet
114 300 m 13
 114 333 114 367 114 400 c 25
 133 400 152 400 171 400 c 25
 171 433 171 467 171 500 c 25
 190 500 210 500 229 500 c 25
 229 533 229 567 229 600 c 25
 248 600 267 600 286 600 c 25
 286 567 286 533 286 500 c 25
 267 500 248 500 229 500 c 25
 229 467 229 433 229 400 c 25
 305 400 381 400 457 400 c 25
 457 433 457 467 457 500 c 25
 438 500 419 500 400 500 c 25
 400 533 400 567 400 600 c 25
 419 600 438 600 457 600 c 25
 457 567 457 533 457 500 c 25
 476 500 495 500 514 500 c 25
 514 467 514 433 514 400 c 25
 533 400 552 400 571 400 c 25
 571 367 571 333 571 300 c 25
 552 300 533 300 514 300 c 25
 514 267 514 233 514 200 c 25
 495 200 476 200 457 200 c 25
 457 167 457 133 457 100 c 25
 438 100 419 100 400 100 c 25
 400 133 400 167 400 200 c 25
 419 200 438 200 457 200 c 25
 457 233 457 267 457 300 c 25
 381 300 305 300 229 300 c 25
 229 267 229 233 229 200 c 25
 248 200 267 200 286 200 c 25
 286 167 286 133 286 100 c 25
 267 100 248 100 229 100 c 25
 229 133 229 167 229 200 c 25
 210 200 190 200 171 200 c 25
 171 233 171 267 171 300 c 25
 152 300 133 300 114 300 c 13
EndSplineSet
Validated: 8388613
EndChar

StartChar: arrowupdn
Encoding: 8597 8597 216
Width: 348
Flags: HW
HStem: 0 21G<200 400> 200 100<100 150 450 500> 400 100<100 150 450 500> 680 20G<200 400>
VStem: 100 100<200 300 400 500> 150 300<100 200 500 600> 200 200<0 100 600 700> 400 100<200 300 400 500>
LayerCount: 2
Back
Fore
SplineSet
57 200 m 13
 57 233 57 267 57 300 c 25
 76 300 95 300 114 300 c 25
 114 267 114 233 114 200 c 25
 124 200 133 200 143 200 c 25
 143 300 143 400 143 500 c 25
 133 500 124 500 114 500 c 25
 114 467 114 433 114 400 c 25
 95 400 76 400 57 400 c 25
 57 433 57 467 57 500 c 25
 67 500 76 500 86 500 c 25
 86 533 86 567 86 600 c 25
 96 600 104 600 114 600 c 25
 114 633 114 667 114 700 c 25
 152 700 191 700 229 700 c 25
 229 667 229 633 229 600 c 25
 239 600 247 600 257 600 c 25
 257 567 257 533 257 500 c 25
 267 500 276 500 286 500 c 25
 286 467 286 433 286 400 c 25
 267 400 248 400 229 400 c 25
 229 433 229 467 229 500 c 25
 219 500 210 500 200 500 c 25
 200 400 200 300 200 200 c 25
 210 200 219 200 229 200 c 25
 229 233 229 267 229 300 c 25
 248 300 267 300 286 300 c 25
 286 267 286 233 286 200 c 25
 276 200 267 200 257 200 c 25
 257 167 257 133 257 100 c 25
 247 100 239 100 229 100 c 25
 229 67 229 33 229 0 c 25
 191 0 152 0 114 0 c 25
 114 33 114 67 114 100 c 25
 104 100 96 100 86 100 c 25
 86 133 86 167 86 200 c 25
 76 200 67 200 57 200 c 13
EndSplineSet
Validated: 8388609
EndChar

StartChar: uni2600
Encoding: 9728 9728 217
Width: 696
Flags: HW
HStem: -100 100<550 650> 0 100<300 400 800 900> 200 300<450 550 650 750> 300 100<100 250 350 450 750 850 950 1100> 600 100<250 350 850 950> 700 100<550 650>
VStem: 100 150<300 400> 250 100<600 700> 300 100<0 100> 450 300<200 300 400 500> 550 100<-100 0 100 200 500 600 700 800> 800 100<0 100> 850 100<600 700> 950 150<300 400>
LayerCount: 2
Back
Fore
SplineSet
486 600 m 9
 486 633 486 667 486 700 c 25
 505 700 524 700 543 700 c 25
 543 667 543 633 543 600 c 25
 524 600 505 600 486 600 c 9
314 700 m 9
 314 733 314 767 314 800 c 25
 333 800 352 800 371 800 c 25
 371 767 371 733 371 700 c 25
 352 700 333 700 314 700 c 9
143 600 m 9
 143 633 143 667 143 700 c 25
 162 700 181 700 200 700 c 25
 200 667 200 633 200 600 c 25
 181 600 162 600 143 600 c 9
543 300 m 1
 543 333 543 367 543 400 c 25
 572 400 600 400 629 400 c 1
 629 367 629 333 629 300 c 25
 600 300 572 300 543 300 c 1
57 300 m 1
 57 333 57 367 57 400 c 25
 86 400 114 400 143 400 c 1
 143 367 143 333 143 300 c 25
 114 300 86 300 57 300 c 1
457 0 m 9
 457 33 457 67 457 100 c 25
 476 100 495 100 514 100 c 25
 514 67 514 33 514 0 c 25
 495 0 476 0 457 0 c 9
314 -100 m 9
 314 -67 314 -33 314 0 c 25
 333 0 352 0 371 0 c 25
 371 -33 371 -67 371 -100 c 25
 352 -100 333 -100 314 -100 c 9
171 0 m 9
 171 33 171 67 171 100 c 25
 190 100 210 100 229 100 c 25
 229 67 229 33 229 0 c 25
 210 0 190 0 171 0 c 9
200 300 m 9
 200 333 200 367 200 400 c 1
 219 400 238 400 257 400 c 25
 257 433 257 467 257 500 c 1
 276 500 295 500 314 500 c 1
 314 533 314 567 314 600 c 1
 333 600 352 600 371 600 c 1
 371 567 371 533 371 500 c 25
 390 500 410 500 429 500 c 25
 429 467 429 433 429 400 c 25
 448 400 467 400 486 400 c 25
 486 367 486 333 486 300 c 25
 467 300 448 300 429 300 c 25
 429 267 429 233 429 200 c 25
 410 200 390 200 371 200 c 25
 371 167 371 133 371 100 c 25
 352 100 333 100 314 100 c 25
 314 133 314 167 314 200 c 25
 295 200 276 200 257 200 c 25
 257 233 257 267 257 300 c 1
 238 300 219 300 200 300 c 9
EndSplineSet
Validated: 8388609
EndChar

StartChar: uni2601
Encoding: 9729 9729 218
Width: 348
Flags: HW
HStem: 100 300<100 200 350 500> 200 100<0 100 550 600> 480 20G<200 350>
VStem: 200 150<400 500>
LayerCount: 2
Back
Fore
SplineSet
0 200 m 13
 0 233 0 267 0 300 c 25
 19 300 38 300 57 300 c 25
 57 333 57 367 57 400 c 25
 76 400 95 400 114 400 c 25
 114 433 114 467 114 500 c 25
 143 500 171 500 200 500 c 25
 200 467 200 433 200 400 c 25
 229 400 257 400 286 400 c 25
 286 367 286 333 286 300 c 25
 305 300 324 300 343 300 c 25
 343 267 343 233 343 200 c 25
 333 200 324 200 314 200 c 25
 314 167 314 133 314 100 c 25
 228 100 143 100 57 100 c 25
 57 133 57 167 57 200 c 25
 38 200 19 200 0 200 c 13
EndSplineSet
Validated: 8388609
EndChar

StartChar: uni2602
Encoding: 9730 9730 219
Width: 348
Flags: HW
HStem: -100 100<150 250> 400 200<100 200 400 500> 400 100<0 100 500 600> 680 20G<200 400>
VStem: 150 150<-100 0> 250 100<0 400>
LayerCount: 2
Back
Fore
SplineSet
0 400 m 13
 0 433 0 467 0 500 c 25
 19 500 38 500 57 500 c 25
 57 533 57 567 57 600 c 25
 76 600 95 600 114 600 c 25
 114 633 114 667 114 700 c 25
 152 700 191 700 229 700 c 25
 229 667 229 633 229 600 c 25
 248 600 267 600 286 600 c 25
 286 567 286 533 286 500 c 25
 305 500 324 500 343 500 c 25
 343 467 343 433 343 400 c 25
 295 400 248 400 200 400 c 25
 200 267 200 133 200 0 c 25
 190 0 181 0 171 0 c 25
 171 -33 171 -67 171 -100 c 25
 142 -100 115 -100 86 -100 c 25
 86 -67 86 -33 86 0 c 25
 105 0 124 0 143 0 c 25
 143 133 143 267 143 400 c 25
 95 400 48 400 0 400 c 13
EndSplineSet
Validated: 8388609
EndChar

StartChar: uni2603
Encoding: 9731 9731 220
Width: 348
Flags: HW
HStem: -100 100<50 150 500 600> -100 50<250 300 350 400> 0 100<200 450> 50 50<0 50 550 600> 100 100<100 150 500 550> 150 50<0 50> 200 100<250 300 350 400> 250 50<50 100 550 600> 350 50<0 50 550 600> 400 100<100 150 250 300 350 400 500 550> 500 100<50 100 150 200 450 500 550 600> 600 200<250 400> 650 50<50 100 500 550> 750 50<0 50 150 200 450 500 550 600>
VStem: 0 50<50 100 150 200 350 400 750 800> 50 50<250 300 500 600 650 700> 100 50<400 500> 150 100<300 400 500 600> 150 50<750 800> 200 100<400 500> 250 50<-100 -50> 350 100<400 500> 350 50<-100 -50> 400 100<300 400 500 600> 450 50<750 800> 500 50<400 500 650 700> 550 50<50 100 250 300 350 400 500 600 750 800>
LayerCount: 2
Back
Fore
SplineSet
143 500 m 13
 153 500 161 500 171 500 c 29
 171 467 171 433 171 400 c 29
 161 400 153 400 143 400 c 29
 143 367 143 333 143 300 c 29
 153 300 161 300 171 300 c 29
 171 267 171 233 171 200 c 29
 152 200 133 200 114 200 c 29
 114 167 114 133 114 100 c 29
 162 100 209 100 257 100 c 29
 257 133 257 167 257 200 c 29
 238 200 219 200 200 200 c 29
 200 233 200 267 200 300 c 29
 210 300 219 300 229 300 c 29
 229 333 229 367 229 400 c 29
 219 400 210 400 200 400 c 29
 200 433 200 467 200 500 c 29
 210 500 219 500 229 500 c 29
 229 533 229 567 229 600 c 29
 200 600 172 600 143 600 c 29
 143 567 143 533 143 500 c 13
29 -100 m 13
 29 -67 29 -33 29 0 c 29
 48 0 67 0 86 0 c 29
 86 33 86 67 86 100 c 29
 76 100 67 100 57 100 c 29
 57 133 57 167 57 200 c 29
 67 200 76 200 86 200 c 29
 86 267 86 333 86 400 c 29
 96 400 104 400 114 400 c 29
 114 433 114 467 114 500 c 29
 104 500 96 500 86 500 c 29
 86 533 86 567 86 600 c 29
 96 600 104 600 114 600 c 29
 114 633 114 667 114 700 c 29
 124 700 133 700 143 700 c 29
 143 733 143 767 143 800 c 29
 172 800 200 800 229 800 c 29
 229 767 229 733 229 700 c 29
 239 700 247 700 257 700 c 29
 257 667 257 633 257 600 c 29
 267 600 276 600 286 600 c 29
 286 567 286 533 286 500 c 29
 276 500 267 500 257 500 c 29
 257 467 257 433 257 400 c 29
 267 400 276 400 286 400 c 29
 286 333 286 267 286 200 c 29
 296 200 304 200 314 200 c 29
 314 167 314 133 314 100 c 29
 304 100 296 100 286 100 c 29
 286 67 286 33 286 0 c 29
 305 0 324 0 343 0 c 29
 343 -33 343 -67 343 -100 c 29
 314 -100 286 -100 257 -100 c 29
 257 -67 257 -33 257 0 c 29
 209 0 162 0 114 0 c 29
 114 -33 114 -67 114 -100 c 29
 85 -100 58 -100 29 -100 c 13
57 500 m 13
 67 500 76 500 86 500 c 29
 86 467 86 433 86 400 c 29
 76 400 67 400 57 400 c 29
 57 433 57 467 57 500 c 13
29 600 m 13
 39 600 47 600 57 600 c 29
 57 567 57 533 57 500 c 29
 47 500 39 500 29 500 c 29
 29 533 29 567 29 600 c 13
0 50 m 13
 0 67 0 83 0 100 c 5
 10 100 19 100 29 100 c 29
 29 83 29 67 29 50 c 5
 19 50 10 50 0 50 c 13
0 150 m 13
 0 167 0 183 0 200 c 5
 10 200 19 200 29 200 c 29
 29 183 29 167 29 150 c 5
 19 150 10 150 0 150 c 13
29 250 m 13
 29 267 29 283 29 300 c 5
 39 300 47 300 57 300 c 29
 57 283 57 267 57 250 c 5
 47 250 39 250 29 250 c 13
0 350 m 13
 0 367 0 383 0 400 c 5
 10 400 19 400 29 400 c 29
 29 383 29 367 29 350 c 5
 19 350 10 350 0 350 c 13
143 -100 m 13
 143 -83 143 -67 143 -50 c 29
 153 -50 161 -50 171 -50 c 29
 171 -67 171 -83 171 -100 c 29
 161 -100 153 -100 143 -100 c 13
200 -100 m 13
 200 -83 200 -67 200 -50 c 29
 210 -50 219 -50 229 -50 c 29
 229 -67 229 -83 229 -100 c 29
 219 -100 210 -100 200 -100 c 13
314 50 m 13
 314 67 314 83 314 100 c 29
 324 100 333 100 343 100 c 29
 343 83 343 67 343 50 c 29
 333 50 324 50 314 50 c 13
314 250 m 13
 314 267 314 283 314 300 c 29
 324 300 333 300 343 300 c 29
 343 283 343 267 343 250 c 29
 333 250 324 250 314 250 c 13
314 350 m 13
 314 367 314 383 314 400 c 29
 324 400 333 400 343 400 c 29
 343 383 343 367 343 350 c 29
 333 350 324 350 314 350 c 13
286 400 m 13
 286 433 286 467 286 500 c 29
 296 500 304 500 314 500 c 29
 314 467 314 433 314 400 c 29
 304 400 296 400 286 400 c 13
314 500 m 13
 314 533 314 567 314 600 c 29
 324 600 333 600 343 600 c 29
 343 567 343 533 343 500 c 29
 333 500 324 500 314 500 c 13
286 650 m 13
 286 667 286 683 286 700 c 29
 296 700 304 700 314 700 c 29
 314 683 314 667 314 650 c 29
 304 650 296 650 286 650 c 13
314 750 m 13
 314 767 314 783 314 800 c 29
 324 800 333 800 343 800 c 29
 343 783 343 767 343 750 c 29
 333 750 324 750 314 750 c 13
257 750 m 13
 257 767 257 783 257 800 c 29
 267 800 276 800 286 800 c 29
 286 783 286 767 286 750 c 29
 276 750 267 750 257 750 c 13
86 750 m 13
 86 767 86 783 86 800 c 5
 96 800 104 800 114 800 c 29
 114 783 114 767 114 750 c 5
 104 750 96 750 86 750 c 13
0 750 m 13
 0 767 0 783 0 800 c 5
 10 800 19 800 29 800 c 29
 29 783 29 767 29 750 c 5
 19 750 10 750 0 750 c 13
29 650 m 13
 29 667 29 683 29 700 c 5
 39 700 47 700 57 700 c 29
 57 683 57 667 57 650 c 5
 47 650 39 650 29 650 c 13
EndSplineSet
Validated: 8388613
EndChar

StartChar: uni26C4
Encoding: 9924 9924 221
Width: 348
Flags: HW
HStem: -100 100<50 150 500 600> 100 100<100 150 500 550> 200 100<250 300 350 400> 400 100<100 150 250 300 350 400 500 550> 500 100<50 100 150 200 450 500 550 600> 600 200<250 400>
VStem: 50 50<500 600> 100 100<100 200> 100 50<400 500> 150 100<300 400 500 600> 200 100<400 500> 250 150<700 800> 350 100<400 500> 400 100<300 400 500 600> 450 100<100 200> 500 50<400 500> 550 50<500 600>
LayerCount: 2
Back
Fore
SplineSet
143 500 m 13
 153 500 161 500 171 500 c 29
 171 467 171 433 171 400 c 29
 161 400 153 400 143 400 c 29
 143 367 143 333 143 300 c 29
 153 300 161 300 171 300 c 29
 171 267 171 233 171 200 c 29
 152 200 133 200 114 200 c 29
 114 167 114 133 114 100 c 29
 162 100 209 100 257 100 c 29
 257 133 257 167 257 200 c 29
 238 200 219 200 200 200 c 29
 200 233 200 267 200 300 c 29
 210 300 219 300 229 300 c 29
 229 333 229 367 229 400 c 29
 219 400 210 400 200 400 c 29
 200 433 200 467 200 500 c 29
 210 500 219 500 229 500 c 29
 229 533 229 567 229 600 c 29
 200 600 172 600 143 600 c 29
 143 567 143 533 143 500 c 13
29 -100 m 13
 29 -67 29 -33 29 0 c 29
 48 0 67 0 86 0 c 29
 86 33 86 67 86 100 c 29
 76 100 67 100 57 100 c 29
 57 133 57 167 57 200 c 29
 67 200 76 200 86 200 c 29
 86 267 86 333 86 400 c 29
 96 400 104 400 114 400 c 29
 114 433 114 467 114 500 c 29
 104 500 96 500 86 500 c 29
 86 533 86 567 86 600 c 29
 96 600 104 600 114 600 c 29
 114 633 114 667 114 700 c 29
 124 700 133 700 143 700 c 29
 143 733 143 767 143 800 c 29
 172 800 200 800 229 800 c 29
 229 767 229 733 229 700 c 29
 239 700 247 700 257 700 c 29
 257 667 257 633 257 600 c 29
 267 600 276 600 286 600 c 29
 286 567 286 533 286 500 c 29
 276 500 267 500 257 500 c 29
 257 467 257 433 257 400 c 29
 267 400 276 400 286 400 c 29
 286 333 286 267 286 200 c 29
 296 200 304 200 314 200 c 5
 314 167 314 133 314 100 c 29
 304 100 296 100 286 100 c 5
 286 67 286 33 286 0 c 29
 305 0 324 0 343 0 c 29
 343 -33 343 -67 343 -100 c 29
 314 -100 286 -100 257 -100 c 29
 257 -67 257 -33 257 0 c 29
 209 0 162 0 114 0 c 29
 114 -33 114 -67 114 -100 c 29
 85 -100 58 -100 29 -100 c 13
57 500 m 13
 67 500 76 500 86 500 c 29
 86 467 86 433 86 400 c 29
 76 400 67 400 57 400 c 29
 57 433 57 467 57 500 c 13
29 600 m 13
 39 600 47 600 57 600 c 29
 57 567 57 533 57 500 c 29
 47 500 39 500 29 500 c 29
 29 533 29 567 29 600 c 13
286 400 m 13
 286 433 286 467 286 500 c 29
 296 500 304 500 314 500 c 29
 314 467 314 433 314 400 c 29
 304 400 296 400 286 400 c 13
314 500 m 13
 314 533 314 567 314 600 c 29
 324 600 333 600 343 600 c 29
 343 567 343 533 343 500 c 29
 333 500 324 500 314 500 c 13
EndSplineSet
Validated: 8388613
EndChar

StartChar: uni2614
Encoding: 9748 9748 222
Width: 348
Flags: HW
HStem: -100 100<150 250> 0 100<50 100 500 550> 150 100<0 50 550 600> 250 100<100 150 450 500> 400 200<100 200 400 500> 400 100<0 100 500 600> 600 100<0 50 550 600> 700 100<100 150 450 500>
VStem: 0 50<150 250 600 700> 50 50<0 100> 100 50<250 350 700 800> 150 150<-100 0> 250 100<0 400> 450 50<250 350 700 800> 500 50<0 100> 550 50<150 250 600 700>
LayerCount: 2
Back
Fore
SplineSet
86 -100 m 13
 86 -67 86 -33 86 0 c 25
 105 0 124 0 143 0 c 25
 143 133 143 267 143 400 c 25
 95 400 48 400 0 400 c 25
 0 433 0 467 0 500 c 25
 19 500 38 500 57 500 c 25
 57 533 57 567 57 600 c 25
 76 600 95 600 114 600 c 25
 114 633 114 667 114 700 c 25
 152 700 191 700 229 700 c 25
 229 667 229 633 229 600 c 25
 248 600 267 600 286 600 c 25
 286 567 286 533 286 500 c 25
 305 500 324 500 343 500 c 25
 343 467 343 433 343 400 c 25
 295 400 248 400 200 400 c 25
 200 267 200 133 200 0 c 25
 190 0 181 0 171 0 c 25
 171 -33 171 -67 171 -100 c 25
 142 -100 115 -100 86 -100 c 13
29 0 m 1
 29 33 29 67 29 100 c 1
 39 100 47 100 57 100 c 1
 57 67 57 33 57 0 c 1
 47 0 39 0 29 0 c 1
286 0 m 1
 286 33 286 67 286 100 c 1
 296 100 304 100 314 100 c 1
 314 67 314 33 314 0 c 1
 304 0 296 0 286 0 c 1
0 150 m 1
 0 183 0 217 0 250 c 1
 10 250 19 250 29 250 c 1
 29 217 29 183 29 150 c 1
 19 150 10 150 0 150 c 1
57 250 m 1
 57 283 57 317 57 350 c 1
 67 350 76 350 86 350 c 1
 86 317 86 283 86 250 c 1
 76 250 67 250 57 250 c 1
314 150 m 1
 314 183 314 217 314 250 c 1
 324 250 333 250 343 250 c 1
 343 217 343 183 343 150 c 1
 333 150 324 150 314 150 c 1
257 250 m 1
 257 283 257 317 257 350 c 1
 267 350 276 350 286 350 c 1
 286 317 286 283 286 250 c 1
 276 250 267 250 257 250 c 1
314 600 m 1
 314 633 314 667 314 700 c 1
 324 700 333 700 343 700 c 1
 343 667 343 633 343 600 c 1
 333 600 324 600 314 600 c 1
0 600 m 1
 0 633 0 667 0 700 c 1
 10 700 19 700 29 700 c 1
 29 667 29 633 29 600 c 1
 19 600 10 600 0 600 c 1
257 700 m 1
 257 733 257 767 257 800 c 1
 267 800 276 800 286 800 c 1
 286 767 286 733 286 700 c 1
 276 700 267 700 257 700 c 1
57 700 m 1
 57 733 57 767 57 800 c 1
 67 800 76 800 86 800 c 1
 86 767 86 733 86 700 c 1
 76 700 67 700 57 700 c 1
EndSplineSet
Validated: 8388609
EndChar

StartChar: uni2669
Encoding: 9833 9833 223
Width: 348
Flags: HW
HStem: 0 300<150 350> 100 100<100 150>
VStem: 350 100<300 800>
LayerCount: 2
Back
Fore
SplineSet
86 100 m 13
 76 100 67 100 57 100 c 25
 57 133 57 167 57 200 c 25
 67 200 76 200 86 200 c 25
 86 233 86 267 86 300 c 25
 124 300 162 300 200 300 c 25
 200 467 200 633 200 800 c 25
 219 800 238 800 257 800 c 25
 257 567 257 333 257 100 c 25
 247 100 239 100 229 100 c 25
 229 67 229 33 229 0 c 25
 181 0 134 0 86 0 c 25
 86 33 86 67 86 100 c 13
EndSplineSet
Validated: 8388609
EndChar

StartChar: uni2757
Encoding: 10071 10071 225
Width: 348
Flags: HW
HStem: 0 100<250 350> 680 20G<250 350>
VStem: 250 100<0 100 200 700>
LayerCount: 2
Back
Fore
SplineSet
143 700 m 13
 162 700 181 700 200 700 c 25
 200 533 200 367 200 200 c 25
 181 200 162 200 143 200 c 25
 143 367 143 533 143 700 c 13
200 0 m 9
 181 0 162 0 143 0 c 1
 143 33 143 67 143 100 c 25
 162 100 181 100 200 100 c 1
 200 67 200 33 200 0 c 9
EndSplineSet
Validated: 1
EndChar

StartChar: uni2753
Encoding: 10067 10067 226
Width: 348
Flags: HW
HStem: 0 100<300 400> 200 100<300 400> 300 100<400 450> 600 100<200 450>
VStem: 100 100<400 600> 300 100<0 100 200 300> 400 100<300 400> 450 100<400 600>
LayerCount: 2
Back
Fore
SplineSet
171 300 m 1
 190 300 210 300 229 300 c 1
 229 267 229 233 229 200 c 1
 210 200 190 200 171 200 c 1
 171 233 171 267 171 300 c 1
229 0 m 9
 210 0 190 0 171 0 c 1
 171 33 171 67 171 100 c 25
 190 100 210 100 229 100 c 1
 229 67 229 33 229 0 c 9
57 600 m 9
 67 600 76 600 86 600 c 25
 86 633 86 667 86 700 c 25
 153 700 219 700 286 700 c 25
 286 667 286 633 286 600 c 25
 296 600 304 600 314 600 c 25
 314 533 314 467 314 400 c 25
 304 400 295 400 285 400 c 25
 285 367 286 333 286 300 c 25
 267 300 248 300 229 300 c 25
 229 333 229 367 229 400 c 25
 239 400 247 400 257 400 c 25
 257 467 257 533 257 600 c 25
 209 600 162 600 114 600 c 25
 114 533 114 467 114 400 c 25
 95 400 76 400 57 400 c 25
 57 467 57 533 57 600 c 9
EndSplineSet
Validated: 8388613
EndChar

StartChar: uni2795
Encoding: 10133 10133 227
Width: 348
Flags: HW
HStem: 250 100<100 250 350 500>
VStem: 250 100<50 250 350 550>
LayerCount: 2
Back
Fore
SplineSet
143 550 m 13
 162 550 181 550 200 550 c 25
 200 483 200 417 200 350 c 25
 229 350 257 350 286 350 c 25
 286 317 286 283 286 250 c 25
 257 250 229 250 200 250 c 25
 200 183 200 117 200 50 c 25
 181 50 162 50 143 50 c 25
 143 117 143 183 143 250 c 25
 114 250 86 250 57 250 c 25
 57 283 57 317 57 350 c 25
 86 350 114 350 143 350 c 25
 143 417 143 483 143 550 c 13
EndSplineSet
Validated: 1
EndChar

StartChar: uni2796
Encoding: 10134 10134 228
Width: 348
Flags: HW
HStem: 250 100<100 500>
LayerCount: 2
Back
Fore
SplineSet
57 250 m 13
 57 283 57 317 57 350 c 25
 133 350 210 350 286 350 c 25
 286 317 286 283 286 250 c 25
 210 250 133 250 57 250 c 13
EndSplineSet
Validated: 1
EndChar

StartChar: uni231A
Encoding: 8986 8986 229
Width: 696
Flags: HW
HStem: -100 200<450 750> 0 100<400 450 750 800> 300 100<650 750> 480 20G<550 650> 600 200<450 750> 600 100<400 450 750 800>
VStem: 250 100<200 500> 300 100<100 200 500 600> 450 300<-100 0 700 800> 550 100<400 500> 800 100<100 200 500 600> 850 100<200 500>
LayerCount: 2
Back
Fore
SplineSet
314 500 m 13
 333 500 352 500 371 500 c 25
 371 467 371 433 371 400 c 25
 390 400 410 400 429 400 c 25
 429 367 429 333 429 300 c 25
 391 300 352 300 314 300 c 25
 314 367 314 433 314 500 c 13
229 600 m 9
 229 567 229 533 229 500 c 25
 219 500 210 500 200 500 c 25
 200 400 200 300 200 200 c 25
 210 200 219 200 229 200 c 25
 229 167 229 133 229 100 c 25
 305 100 381 100 457 100 c 25
 457 133 457 167 457 200 c 25
 467 200 476 200 486 200 c 25
 486 300 486 400 486 500 c 25
 476 500 467 500 457 500 c 25
 457 533 457 567 457 600 c 25
 381 600 305 600 229 600 c 9
257 700 m 9
 257 733 257 767 257 800 c 25
 314 800 372 800 429 800 c 25
 429 767 429 733 429 700 c 25
 448 700 467 700 486 700 c 25
 486 667 486 633 486 600 c 25
 496 600 504 600 514 600 c 25
 514 567 514 533 514 500 c 25
 524 500 533 500 543 500 c 25
 543 400 543 300 543 200 c 25
 533 200 524 200 514 200 c 25
 514 167 514 133 514 100 c 25
 504 100 496 100 486 100 c 25
 486 67 486 33 486 0 c 25
 467 0 448 0 429 0 c 25
 429 -33 429 -67 429 -100 c 25
 372 -100 314 -100 257 -100 c 25
 257 -67 257 -33 257 0 c 25
 238 0 219 0 200 0 c 25
 200 33 200 67 200 100 c 25
 190 100 181 100 171 100 c 25
 171 133 171 167 171 200 c 25
 161 200 153 200 143 200 c 25
 143 300 143 400 143 500 c 25
 153 500 161 500 171 500 c 25
 171 533 171 567 171 600 c 25
 181 600 190 600 200 600 c 25
 200 633 200 667 200 700 c 25
 219 700 238 700 257 700 c 9
EndSplineSet
Validated: 8388609
EndChar

StartChar: uni2797
Encoding: 10135 10135 230
Width: 348
Flags: HW
HStem: 100 100<250 350> 300 100<100 500> 500 100<250 350>
VStem: 250 100<100 200 500 600>
CounterMasks: 1 e0
LayerCount: 2
Back
Fore
SplineSet
143 100 m 13
 143 133 143 167 143 200 c 25
 162 200 181 200 200 200 c 25
 200 167 200 133 200 100 c 25
 181 100 162 100 143 100 c 13
57 300 m 9
 57 333 57 367 57 400 c 25
 133 400 210 400 286 400 c 25
 286 367 286 333 286 300 c 25
 210 300 133 300 57 300 c 9
143 500 m 9
 143 533 143 567 143 600 c 25
 162 600 181 600 200 600 c 25
 200 567 200 533 200 500 c 25
 181 500 162 500 143 500 c 9
EndSplineSet
Validated: 1
EndChar

StartChar: uni25B6
Encoding: 9654 9654 231
Width: 348
Flags: HMW
LayerCount: 2
Back
Fore
SplineSet
57 0 m 13
 57 233 57 467 57 700 c 25
 86 700 114 700 143 700 c 25
 143 667 143 633 143 600 c 25
 162 600 181 600 200 600 c 25
 200 567 200 533 200 500 c 25
 219 500 238 500 257 500 c 25
 257 467 257 433 257 400 c 25
 276 400 295 400 314 400 c 25
 314 367 314 333 314 300 c 25
 295 300 276 300 257 300 c 25
 257 267 257 233 257 200 c 25
 238 200 219 200 200 200 c 25
 200 167 200 133 200 100 c 25
 181 100 162 100 143 100 c 25
 143 67 143 33 143 0 c 25
 114 0 86 0 57 0 c 13
EndSplineSet
Validated: 1
EndChar

StartChar: uni25C0
Encoding: 9664 9664 232
Width: 348
Flags: HMW
LayerCount: 2
Back
Fore
SplineSet
229 0 m 13
 229 33 229 67 229 100 c 25
 210 100 190 100 171 100 c 25
 171 133 171 167 171 200 c 25
 152 200 133 200 114 200 c 25
 114 233 114 267 114 300 c 25
 95 300 76 300 57 300 c 25
 57 333 57 367 57 400 c 25
 76 400 95 400 114 400 c 25
 114 433 114 467 114 500 c 25
 133 500 152 500 171 500 c 25
 171 533 171 567 171 600 c 25
 190 600 210 600 229 600 c 25
 229 633 229 667 229 700 c 25
 258 700 285 700 314 700 c 25
 314 467 314 233 314 0 c 25
 285 0 258 0 229 0 c 13
EndSplineSet
Validated: 1
EndChar

StartChar: H18543
Encoding: 9642 9642 233
Width: 348
Flags: HMW
LayerCount: 2
Back
Fore
SplineSet
86 100 m 13
 86 200 86 300 86 400 c 25
 134 400 181 400 229 400 c 25
 229 300 229 200 229 100 c 25
 181 100 134 100 86 100 c 13
EndSplineSet
Validated: 1
EndChar

